<svg xmlns="http://www.w3.org/2000/svg" viewBox="0 0 767.38 860.09"><defs><style>.cls-1{fill:#00b1af;}.cls-2{fill:#ff8f33;}</style></defs><g id="Layer_2" data-name="Layer 2"><g id="Layer_1-2" data-name="Layer 1"><path class="cls-1" d="M.35,500C-1.17,617.11-2.41,654.46,102.23,711.27l260,148.82q-.78-122.42-.77-122.39L184.69,636.82C121.35,600.67,20.91,551.76.37,500Z"/><path class="cls-1" d="M360.63,181V300.92L184.36,401.35C156.91,388.43,116.59,366.71,82,340.44c6.26-3.78,13-7.61,20.19-11.54Z"/><path class="cls-2" d="M94.89,153.41,251.83,62.28,360.63,0V122L184.68,222.38c-41.63,23.77-99.28,53-139.76,85C29,290.2,17.64,272,14.66,253.64,8.82,217.7,36.38,183,94.89,153.41Z"/><path class="cls-2" d="M.35,319C-1.17,436.13-2.41,473.47,102.23,530.29l260,148.82q-.78-122.42-.77-122.39L184.69,455.84C121.35,419.69,20.91,370.78.37,319Z"/><path class="cls-2" d="M767,360.13c1.53-117.16,2.77-154.51-101.86-211.32L405.18,0,406,122.4,582.69,223.27C646,259.42,746.47,308.33,767,360.13Z"/><path class="cls-2" d="M406.75,679.1V559.16L583,458.73c27.45,12.92,67.78,34.64,102.31,60.92-6.26,3.77-13,7.6-20.18,11.53Z"/><path class="cls-1" d="M672.48,706.67,515.55,797.8l-108.8,62.28v-122l176-100.43c41.63-23.77,99.28-53,139.75-85,15.93,17.2,27.28,35.42,30.26,53.75,5.85,36-21.71,70.64-80.23,100.24Z"/><path class="cls-1" d="M767,541.12c1.53-117.17,2.77-154.51-101.86-211.33Q405.2,181,405.18,181L406,303.38,582.69,404.26C646,440.41,746.47,489.32,767,541.12Z"/></g></g></svg>