<svg xmlns="http://www.w3.org/2000/svg" xmlns:xlink="http://www.w3.org/1999/xlink" viewBox="0 0 421.5 420.17"><defs><style>.cls-1{fill:none;}.cls-2{isolation:isolate;}.cls-3{fill:url(#Degradado_sin_nombre_14);}.cls-169,.cls-170,.cls-177,.cls-4{mix-blend-mode:multiply;}.cls-170,.cls-4{opacity:0.5;}.cls-5{fill:url(#Degradado_sin_nombre_72);}.cls-6{fill:url(#Degradado_sin_nombre_81);}.cls-7{fill:url(#Degradado_sin_nombre_81-2);}.cls-8{fill:url(#Degradado_sin_nombre_81-3);}.cls-9{fill:#f2e2d7;}.cls-10{fill:#d6bbaa;}.cls-11{fill:url(#Degradado_sin_nombre_45);}.cls-12{fill:url(#Degradado_sin_nombre_50);}.cls-13{fill:url(#Degradado_sin_nombre_17);}.cls-14{fill:url(#Degradado_sin_nombre_45-2);}.cls-15{fill:url(#Degradado_sin_nombre_19);}.cls-16{fill:url(#Degradado_sin_nombre_89);}.cls-17{fill:url(#Degradado_sin_nombre_19-2);}.cls-18{fill:url(#Degradado_sin_nombre_82);}.cls-19{fill:url(#Degradado_sin_nombre_45-3);}.cls-20{fill:url(#Degradado_sin_nombre_19-3);}.cls-21{fill:url(#Degradado_sin_nombre_82-2);}.cls-22{fill:url(#Degradado_sin_nombre_45-4);}.cls-23{fill:url(#Degradado_sin_nombre_19-4);}.cls-24{fill:url(#Degradado_sin_nombre_82-3);}.cls-25{fill:url(#Degradado_sin_nombre_45-5);}.cls-26{fill:url(#Degradado_sin_nombre_19-5);}.cls-27{fill:url(#Degradado_sin_nombre_82-4);}.cls-28{fill:url(#Degradado_sin_nombre_45-6);}.cls-29{fill:url(#Degradado_sin_nombre_19-6);}.cls-30{fill:url(#Degradado_sin_nombre_82-5);}.cls-31{fill:url(#Degradado_sin_nombre_45-7);}.cls-32{fill:url(#Degradado_sin_nombre_19-7);}.cls-33{fill:url(#Degradado_sin_nombre_82-6);}.cls-34{fill:url(#Degradado_sin_nombre_45-8);}.cls-35{fill:url(#Degradado_sin_nombre_19-8);}.cls-36{fill:url(#Degradado_sin_nombre_82-7);}.cls-37{fill:url(#Degradado_sin_nombre_45-9);}.cls-38{fill:url(#Degradado_sin_nombre_19-9);}.cls-39{fill:url(#Degradado_sin_nombre_82-8);}.cls-40{fill:url(#Degradado_sin_nombre_45-10);}.cls-41{fill:url(#Degradado_sin_nombre_19-10);}.cls-42{fill:url(#Degradado_sin_nombre_82-9);}.cls-43{fill:url(#Degradado_sin_nombre_45-11);}.cls-44{fill:url(#Degradado_sin_nombre_19-11);}.cls-45{fill:url(#Degradado_sin_nombre_82-10);}.cls-46{fill:url(#Degradado_sin_nombre_45-12);}.cls-47{fill:url(#Degradado_sin_nombre_19-12);}.cls-48{fill:url(#Degradado_sin_nombre_82-11);}.cls-49{fill:url(#Degradado_sin_nombre_45-13);}.cls-50{fill:url(#Degradado_sin_nombre_19-13);}.cls-51{fill:url(#Degradado_sin_nombre_82-12);}.cls-52{fill:url(#Degradado_sin_nombre_45-14);}.cls-53{fill:url(#Degradado_sin_nombre_19-14);}.cls-54{fill:url(#Degradado_sin_nombre_82-13);}.cls-55{fill:url(#Degradado_sin_nombre_45-15);}.cls-56{fill:url(#Degradado_sin_nombre_19-15);}.cls-57{fill:url(#Degradado_sin_nombre_82-14);}.cls-58{fill:url(#Degradado_sin_nombre_45-16);}.cls-59{fill:url(#Degradado_sin_nombre_19-16);}.cls-60{fill:url(#Degradado_sin_nombre_82-15);}.cls-61{fill:url(#Degradado_sin_nombre_45-17);}.cls-62{fill:url(#Degradado_sin_nombre_19-17);}.cls-63{fill:url(#Degradado_sin_nombre_82-16);}.cls-64{fill:url(#Degradado_sin_nombre_45-18);}.cls-65{fill:url(#Degradado_sin_nombre_19-18);}.cls-66{fill:url(#Degradado_sin_nombre_82-17);}.cls-67{fill:url(#Degradado_sin_nombre_45-19);}.cls-68{fill:url(#Degradado_sin_nombre_19-19);}.cls-69{fill:url(#Degradado_sin_nombre_82-18);}.cls-70{fill:url(#Degradado_sin_nombre_45-20);}.cls-71{fill:url(#Degradado_sin_nombre_19-20);}.cls-72{fill:url(#Degradado_sin_nombre_82-19);}.cls-73{fill:url(#Degradado_sin_nombre_45-21);}.cls-74{fill:url(#Degradado_sin_nombre_19-21);}.cls-75{fill:url(#Degradado_sin_nombre_82-20);}.cls-76{fill:url(#Degradado_sin_nombre_45-22);}.cls-77{fill:url(#Degradado_sin_nombre_19-22);}.cls-78{fill:url(#Degradado_sin_nombre_82-21);}.cls-79{fill:url(#Degradado_sin_nombre_45-23);}.cls-80{fill:url(#Degradado_sin_nombre_19-23);}.cls-81{fill:url(#Degradado_sin_nombre_82-22);}.cls-82{fill:url(#Degradado_sin_nombre_45-24);}.cls-83{fill:url(#Degradado_sin_nombre_19-24);}.cls-84{fill:url(#Degradado_sin_nombre_82-23);}.cls-85{fill:url(#Degradado_sin_nombre_45-25);}.cls-86{fill:url(#Degradado_sin_nombre_19-25);}.cls-87{fill:url(#Degradado_sin_nombre_82-24);}.cls-88{fill:url(#Degradado_sin_nombre_45-26);}.cls-89{fill:url(#Degradado_sin_nombre_19-26);}.cls-90{fill:url(#Degradado_sin_nombre_82-25);}.cls-91{fill:url(#Degradado_sin_nombre_45-27);}.cls-92{fill:url(#Degradado_sin_nombre_19-27);}.cls-93{fill:url(#Degradado_sin_nombre_82-26);}.cls-94{fill:url(#Degradado_sin_nombre_45-28);}.cls-95{fill:url(#Degradado_sin_nombre_19-28);}.cls-96{fill:url(#Degradado_sin_nombre_82-27);}.cls-97{fill:url(#Degradado_sin_nombre_45-29);}.cls-98{fill:url(#Degradado_sin_nombre_19-29);}.cls-99{fill:url(#Degradado_sin_nombre_82-28);}.cls-100{fill:url(#Degradado_sin_nombre_45-30);}.cls-101{fill:url(#Degradado_sin_nombre_19-30);}.cls-102{fill:url(#Degradado_sin_nombre_82-29);}.cls-103{fill:url(#Degradado_sin_nombre_45-31);}.cls-104{fill:url(#Degradado_sin_nombre_19-31);}.cls-105{fill:url(#Degradado_sin_nombre_82-30);}.cls-106{fill:url(#Degradado_sin_nombre_45-32);}.cls-107{fill:url(#Degradado_sin_nombre_19-32);}.cls-108{fill:url(#Degradado_sin_nombre_82-31);}.cls-109{fill:url(#Degradado_sin_nombre_45-33);}.cls-110{fill:url(#Degradado_sin_nombre_19-33);}.cls-111{fill:url(#Degradado_sin_nombre_82-32);}.cls-112{fill:url(#Degradado_sin_nombre_45-34);}.cls-113{fill:url(#Degradado_sin_nombre_19-34);}.cls-114{fill:url(#Degradado_sin_nombre_82-33);}.cls-115{fill:url(#Degradado_sin_nombre_45-35);}.cls-116{fill:url(#Degradado_sin_nombre_19-35);}.cls-117{fill:url(#Degradado_sin_nombre_82-34);}.cls-118{fill:url(#Degradado_sin_nombre_45-36);}.cls-119{fill:url(#Degradado_sin_nombre_19-36);}.cls-120{fill:url(#Degradado_sin_nombre_82-35);}.cls-121{fill:url(#Degradado_sin_nombre_45-37);}.cls-122{fill:url(#Degradado_sin_nombre_19-37);}.cls-123{fill:url(#Degradado_sin_nombre_82-36);}.cls-124{fill:url(#Degradado_sin_nombre_45-38);}.cls-125{fill:url(#Degradado_sin_nombre_19-38);}.cls-126{fill:url(#Degradado_sin_nombre_82-37);}.cls-127{fill:url(#Degradado_sin_nombre_45-39);}.cls-128{fill:url(#Degradado_sin_nombre_19-39);}.cls-129{fill:url(#Degradado_sin_nombre_82-38);}.cls-130{fill:url(#Degradado_sin_nombre_45-40);}.cls-131{fill:url(#Degradado_sin_nombre_19-40);}.cls-132{fill:url(#Degradado_sin_nombre_82-39);}.cls-133{fill:url(#Degradado_sin_nombre_45-41);}.cls-134{fill:url(#Degradado_sin_nombre_19-41);}.cls-135{fill:url(#Degradado_sin_nombre_82-40);}.cls-136{fill:url(#Degradado_sin_nombre_45-42);}.cls-137{fill:url(#Degradado_sin_nombre_19-42);}.cls-138{fill:url(#Degradado_sin_nombre_82-41);}.cls-139{fill:url(#Degradado_sin_nombre_45-43);}.cls-140{fill:url(#Degradado_sin_nombre_19-43);}.cls-141{fill:url(#Degradado_sin_nombre_45-44);}.cls-142{fill:url(#Degradado_sin_nombre_41);}.cls-143{fill:url(#Degradado_sin_nombre_38);}.cls-144{fill:url(#Degradado_sin_nombre_39);}.cls-145{fill:url(#Degradado_sin_nombre_19-44);}.cls-146{fill:url(#Degradado_sin_nombre_19-45);}.cls-147{fill:url(#Degradado_sin_nombre_19-46);}.cls-148{fill:url(#Degradado_sin_nombre_19-47);}.cls-149{fill:url(#Degradado_sin_nombre_19-48);}.cls-150{fill:url(#Degradado_sin_nombre_19-49);}.cls-151{fill:#d1e4ed;}.cls-152{fill:url(#Degradado_sin_nombre_17-2);}.cls-153{fill:url(#Degradado_sin_nombre_17-3);}.cls-154{fill:url(#Degradado_sin_nombre_45-45);}.cls-155{fill:url(#Degradado_sin_nombre_17-4);}.cls-156{fill:url(#Degradado_sin_nombre_17-5);}.cls-157{fill:url(#Degradado_sin_nombre_45-46);}.cls-158{fill:url(#Degradado_sin_nombre_17-6);}.cls-159{fill:url(#Degradado_sin_nombre_17-7);}.cls-160{fill:url(#Degradado_sin_nombre_45-47);}.cls-161{fill:#ffd07d;}.cls-162{fill:url(#Degradado_sin_nombre_28);}.cls-163{fill:#a9d0ff;}.cls-164{fill:url(#Degradado_sin_nombre_45-48);}.cls-165{fill:#8dc996;}.cls-166{fill:url(#Degradado_sin_nombre_47);}.cls-167{fill:#f96969;}.cls-168{fill:url(#Degradado_sin_nombre_38-2);}.cls-169{fill:url(#Degradado_sin_nombre_72-2);}.cls-170{fill:url(#Degradado_sin_nombre_72-3);}.cls-171{fill:url(#Degradado_sin_nombre_63);}.cls-172{clip-path:url(#clip-path);}.cls-173{fill:url(#Degradado_sin_nombre_63-2);}.cls-174{fill:url(#Degradado_sin_nombre_64);}.cls-175{fill:#acc3ef;}.cls-176{fill:#33527f;}.cls-177{fill:#c4d3f7;}.cls-178{clip-path:url(#clip-path-2);}.cls-179{fill:#1b2b42;}.cls-180{fill:#1c2c45;}.cls-181{fill:#1d2e47;}.cls-182{fill:#1e304a;}.cls-183{fill:#1f314c;}.cls-184{fill:#20334f;}.cls-185{fill:#213451;}.cls-186{fill:#223654;}.cls-187{fill:#233856;}.cls-188{fill:#243959;}.cls-189{fill:#253b5b;}.cls-190{clip-path:url(#clip-path-3);}.cls-191{clip-path:url(#clip-path-4);}.cls-192{fill:#2f5976;}.cls-193{fill:#2d5672;}.cls-194{clip-path:url(#clip-path-5);}.cls-195{clip-path:url(#clip-path-6);}.cls-196{fill:#816649;}.cls-197{fill:#866a4c;}.cls-198{fill:#8b6e4e;}.cls-199{fill:#907251;}.cls-200{fill:#957654;}.cls-201{fill:#9a7a57;}.cls-202{fill:#9f7d5a;}.cls-203{fill:#a4815c;}.cls-204{clip-path:url(#clip-path-7);}.cls-205{fill:#a9855f;}.cls-206{fill:#ae8962;}.cls-207{fill:#b38d65;}.cls-208{clip-path:url(#clip-path-8);}.cls-209{fill:#7d5632;}.cls-210{fill:#7a5430;}.cls-211{fill:#76512f;}.cls-212{fill:#724e2d;}.cls-213{fill:#6e4c2c;}.cls-214{fill:#6a492a;}.cls-215{fill:#664629;}.cls-216{clip-path:url(#clip-path-9);}.cls-217{fill:#305c7a;}.cls-218{fill:#325f7d;}.cls-219{fill:#336281;}.cls-220{fill:#356585;}.cls-221{fill:#376889;}.cls-222{fill:#386b8d;}.cls-223{fill:#2c536e;}.cls-224{fill:#2a506a;}.cls-225{fill:#294d66;}.cls-226{clip-path:url(#clip-path-10);}.cls-227{fill:#1b2c44;}.cls-228{clip-path:url(#clip-path-11);}.cls-229{clip-path:url(#clip-path-12);}.cls-230{fill:#8b7b68;}.cls-231{fill:#8f7f6c;}.cls-232{fill:#948370;}.cls-233{fill:#998873;}.cls-234{fill:#9e8c77;}.cls-235{fill:#a3907a;}.cls-236{fill:#a7947e;}.cls-237{fill:#ac9982;}.cls-238{fill:#273f62;}.cls-239{clip-path:url(#clip-path-13);}.cls-240{clip-path:url(#clip-path-14);}.cls-241{fill:#7c6e5e;}.cls-242{fill:#b8a48b;}.cls-243{fill:#807261;}.cls-244{clip-path:url(#clip-path-15);}.cls-245{fill:#867765;}.cls-246{fill:#817261;}.cls-247{fill:url(#Degradado_sin_nombre_28-2);}.cls-248{fill:#fff;}.cls-249{fill:#ef863f;}.cls-250{fill:url(#Degradado_sin_nombre_17-8);}.cls-251{fill:url(#Degradado_sin_nombre_84);}.cls-252{fill:url(#Degradado_sin_nombre_82-42);}.cls-253{fill:#6c8db5;}.cls-254{fill:url(#Degradado_sin_nombre_82-43);}.cls-255{fill:url(#Degradado_sin_nombre_84-2);}.cls-256{fill:#ffac48;}.cls-257{fill:url(#Degradado_sin_nombre_72-4);}.cls-258{fill:url(#Degradado_sin_nombre_81-4);}.cls-259{fill:url(#Degradado_sin_nombre_81-5);}.cls-260{fill:url(#Degradado_sin_nombre_81-6);}.cls-261{fill:url(#Degradado_sin_nombre_41-2);}.cls-262{fill:url(#Degradado_sin_nombre_38-3);}.cls-263{fill:url(#Degradado_sin_nombre_39-2);}.cls-264{fill:url(#Degradado_sin_nombre_32);}.cls-265{fill:url(#Degradado_sin_nombre_33);}.cls-266{fill:url(#Degradado_sin_nombre_28-3);}.cls-267{fill:url(#Degradado_sin_nombre_19-50);}.cls-268{fill:url(#Degradado_sin_nombre_45-49);}.cls-269{fill:url(#Degradado_sin_nombre_82-44);}</style><linearGradient id="Degradado_sin_nombre_14" x1="19.23" y1="309.97" x2="400.01" y2="309.97" gradientUnits="userSpaceOnUse"><stop offset="0" stop-color="#97c6ff"/><stop offset="1" stop-color="#e1ecff"/></linearGradient><linearGradient id="Degradado_sin_nombre_72" y1="220.61" x2="110.59" y2="220.61" gradientUnits="userSpaceOnUse"><stop offset="0" stop-color="#445e84"/><stop offset="1" stop-color="#c4d3f7"/></linearGradient><linearGradient id="Degradado_sin_nombre_81" x1="42.24" y1="212.78" x2="103.64" y2="212.78" gradientUnits="userSpaceOnUse"><stop offset="0" stop-color="#bc7646"/><stop offset="1" stop-color="#f9b587"/></linearGradient><linearGradient id="Degradado_sin_nombre_81-2" x1="6.85" y1="220.38" x2="42.34" y2="220.38" xlink:href="#Degradado_sin_nombre_81"/><linearGradient id="Degradado_sin_nombre_81-3" x1="6.95" y1="184.61" x2="103.64" y2="184.61" xlink:href="#Degradado_sin_nombre_81"/><linearGradient id="Degradado_sin_nombre_45" x1="17.93" y1="330.68" x2="398.08" y2="330.68" gradientUnits="userSpaceOnUse"><stop offset="0" stop-color="#1b54a8"/><stop offset="1" stop-color="#2390e2"/></linearGradient><linearGradient id="Degradado_sin_nombre_50" x1="17.95" y1="284.16" x2="398.08" y2="284.16" gradientUnits="userSpaceOnUse"><stop offset="0" stop-color="#4dbbff"/><stop offset="1" stop-color="#d7f4ff"/></linearGradient><linearGradient id="Degradado_sin_nombre_17" x1="167.27" y1="153.9" x2="410.66" y2="153.9" gradientUnits="userSpaceOnUse"><stop offset="0" stop-color="#2390e2"/><stop offset="1" stop-color="#acc3ef"/></linearGradient><linearGradient id="Degradado_sin_nombre_45-2" x1="165.77" y1="156.04" x2="404.53" y2="156.04" xlink:href="#Degradado_sin_nombre_45"/><linearGradient id="Degradado_sin_nombre_19" x1="170" y1="156.04" x2="400.3" y2="156.04" gradientUnits="userSpaceOnUse"><stop offset="0" stop-color="#c7eaff"/><stop offset="1" stop-color="#bbd5ff"/></linearGradient><linearGradient id="Degradado_sin_nombre_89" x1="178.71" y1="156.04" x2="391.59" y2="156.04" gradientUnits="userSpaceOnUse"><stop offset="0" stop-color="#fff"/><stop offset="1" stop-color="#e1edff"/></linearGradient><linearGradient id="Degradado_sin_nombre_19-2" x1="165.21" y1="206.17" x2="171.35" y2="206.17" xlink:href="#Degradado_sin_nombre_19"/><linearGradient id="Degradado_sin_nombre_82" x1="143.81" y1="201.78" x2="165.22" y2="201.78" gradientUnits="userSpaceOnUse"><stop offset="0" stop-color="#2390e2"/><stop offset="1" stop-color="#1b54a8"/></linearGradient><linearGradient id="Degradado_sin_nombre_45-3" x1="143.82" y1="198.81" x2="171.35" y2="198.81" xlink:href="#Degradado_sin_nombre_45"/><linearGradient id="Degradado_sin_nombre_19-3" x1="189.41" y1="220.14" x2="195.55" y2="220.14" xlink:href="#Degradado_sin_nombre_19"/><linearGradient id="Degradado_sin_nombre_82-2" x1="168.01" y1="215.75" x2="189.41" y2="215.75" xlink:href="#Degradado_sin_nombre_82"/><linearGradient id="Degradado_sin_nombre_45-4" x1="168.01" y1="212.78" x2="195.55" y2="212.78" xlink:href="#Degradado_sin_nombre_45"/><linearGradient id="Degradado_sin_nombre_19-4" x1="213.6" y1="234.11" x2="219.75" y2="234.11" xlink:href="#Degradado_sin_nombre_19"/><linearGradient id="Degradado_sin_nombre_82-3" x1="192.2" y1="229.72" x2="213.61" y2="229.72" xlink:href="#Degradado_sin_nombre_82"/><linearGradient id="Degradado_sin_nombre_45-5" x1="192.21" y1="226.75" x2="219.75" y2="226.75" xlink:href="#Degradado_sin_nombre_45"/><linearGradient id="Degradado_sin_nombre_19-5" x1="237.8" y1="248.08" x2="243.94" y2="248.08" xlink:href="#Degradado_sin_nombre_19"/><linearGradient id="Degradado_sin_nombre_82-4" x1="216.4" y1="243.69" x2="237.81" y2="243.69" xlink:href="#Degradado_sin_nombre_82"/><linearGradient id="Degradado_sin_nombre_45-6" x1="216.41" y1="240.72" x2="243.94" y2="240.72" xlink:href="#Degradado_sin_nombre_45"/><linearGradient id="Degradado_sin_nombre_19-6" x1="261.99" y1="262.05" x2="268.14" y2="262.05" xlink:href="#Degradado_sin_nombre_19"/><linearGradient id="Degradado_sin_nombre_82-5" x1="240.6" y1="257.66" x2="262" y2="257.66" xlink:href="#Degradado_sin_nombre_82"/><linearGradient id="Degradado_sin_nombre_45-7" x1="240.6" y1="254.69" x2="268.14" y2="254.69" xlink:href="#Degradado_sin_nombre_45"/><linearGradient id="Degradado_sin_nombre_19-7" x1="286.19" y1="276.02" x2="292.33" y2="276.02" xlink:href="#Degradado_sin_nombre_19"/><linearGradient id="Degradado_sin_nombre_82-6" x1="264.79" y1="271.63" x2="286.2" y2="271.63" xlink:href="#Degradado_sin_nombre_82"/><linearGradient id="Degradado_sin_nombre_45-8" x1="264.8" y1="268.66" x2="292.33" y2="268.66" xlink:href="#Degradado_sin_nombre_45"/><linearGradient id="Degradado_sin_nombre_19-8" x1="310.39" y1="289.99" x2="316.53" y2="289.99" xlink:href="#Degradado_sin_nombre_19"/><linearGradient id="Degradado_sin_nombre_82-7" x1="288.99" y1="285.6" x2="310.39" y2="285.6" xlink:href="#Degradado_sin_nombre_82"/><linearGradient id="Degradado_sin_nombre_45-9" x1="288.99" y1="282.63" x2="316.53" y2="282.63" xlink:href="#Degradado_sin_nombre_45"/><linearGradient id="Degradado_sin_nombre_19-9" x1="334.58" y1="303.96" x2="340.73" y2="303.96" xlink:href="#Degradado_sin_nombre_19"/><linearGradient id="Degradado_sin_nombre_82-8" x1="313.19" y1="299.57" x2="334.59" y2="299.57" xlink:href="#Degradado_sin_nombre_82"/><linearGradient id="Degradado_sin_nombre_45-10" x1="313.2" y1="296.6" x2="340.73" y2="296.6" xlink:href="#Degradado_sin_nombre_45"/><linearGradient id="Degradado_sin_nombre_19-10" x1="358.78" y1="317.93" x2="364.92" y2="317.93" xlink:href="#Degradado_sin_nombre_19"/><linearGradient id="Degradado_sin_nombre_82-9" x1="337.39" y1="313.54" x2="358.79" y2="313.54" xlink:href="#Degradado_sin_nombre_82"/><linearGradient id="Degradado_sin_nombre_45-11" x1="337.4" y1="310.57" x2="364.92" y2="310.57" xlink:href="#Degradado_sin_nombre_45"/><linearGradient id="Degradado_sin_nombre_19-11" x1="154.1" y1="212.63" x2="160.24" y2="212.63" xlink:href="#Degradado_sin_nombre_19"/><linearGradient id="Degradado_sin_nombre_82-10" x1="132.7" y1="208.24" x2="154.1" y2="208.24" xlink:href="#Degradado_sin_nombre_82"/><linearGradient id="Degradado_sin_nombre_45-12" x1="132.7" y1="205.27" x2="160.24" y2="205.27" xlink:href="#Degradado_sin_nombre_45"/><linearGradient id="Degradado_sin_nombre_19-12" x1="178.29" y1="226.6" x2="184.44" y2="226.6" xlink:href="#Degradado_sin_nombre_19"/><linearGradient id="Degradado_sin_nombre_82-11" x1="156.89" y1="222.21" x2="178.3" y2="222.21" xlink:href="#Degradado_sin_nombre_82"/><linearGradient id="Degradado_sin_nombre_45-13" x1="156.9" y1="219.24" x2="184.44" y2="219.24" xlink:href="#Degradado_sin_nombre_45"/><linearGradient id="Degradado_sin_nombre_19-13" x1="202.49" y1="240.57" x2="208.63" y2="240.57" xlink:href="#Degradado_sin_nombre_19"/><linearGradient id="Degradado_sin_nombre_82-12" x1="181.09" y1="236.17" x2="202.5" y2="236.17" xlink:href="#Degradado_sin_nombre_82"/><linearGradient id="Degradado_sin_nombre_45-14" x1="181.1" y1="233.21" x2="208.63" y2="233.21" xlink:href="#Degradado_sin_nombre_45"/><linearGradient id="Degradado_sin_nombre_19-14" x1="226.69" y1="254.54" x2="232.83" y2="254.54" xlink:href="#Degradado_sin_nombre_19"/><linearGradient id="Degradado_sin_nombre_82-13" x1="205.29" y1="250.14" x2="226.69" y2="250.14" xlink:href="#Degradado_sin_nombre_82"/><linearGradient id="Degradado_sin_nombre_45-15" x1="205.29" y1="247.18" x2="232.83" y2="247.18" xlink:href="#Degradado_sin_nombre_45"/><linearGradient id="Degradado_sin_nombre_19-15" x1="250.88" y1="268.51" x2="257.02" y2="268.51" xlink:href="#Degradado_sin_nombre_19"/><linearGradient id="Degradado_sin_nombre_82-14" x1="229.48" y1="264.11" x2="250.89" y2="264.11" xlink:href="#Degradado_sin_nombre_82"/><linearGradient id="Degradado_sin_nombre_45-16" x1="229.49" y1="261.15" x2="257.02" y2="261.15" xlink:href="#Degradado_sin_nombre_45"/><linearGradient id="Degradado_sin_nombre_19-16" x1="275.08" y1="282.48" x2="281.22" y2="282.48" xlink:href="#Degradado_sin_nombre_19"/><linearGradient id="Degradado_sin_nombre_82-15" x1="253.68" y1="278.08" x2="275.08" y2="278.08" xlink:href="#Degradado_sin_nombre_82"/><linearGradient id="Degradado_sin_nombre_45-17" x1="253.68" y1="275.12" x2="281.22" y2="275.12" xlink:href="#Degradado_sin_nombre_45"/><linearGradient id="Degradado_sin_nombre_19-17" x1="299.27" y1="296.45" x2="305.42" y2="296.45" xlink:href="#Degradado_sin_nombre_19"/><linearGradient id="Degradado_sin_nombre_82-16" x1="277.87" y1="292.05" x2="299.28" y2="292.05" xlink:href="#Degradado_sin_nombre_82"/><linearGradient id="Degradado_sin_nombre_45-18" x1="277.88" y1="289.09" x2="305.42" y2="289.09" xlink:href="#Degradado_sin_nombre_45"/><linearGradient id="Degradado_sin_nombre_19-18" x1="323.47" y1="310.42" x2="329.61" y2="310.42" xlink:href="#Degradado_sin_nombre_19"/><linearGradient id="Degradado_sin_nombre_82-17" x1="302.08" y1="306.03" x2="323.48" y2="306.03" xlink:href="#Degradado_sin_nombre_82"/><linearGradient id="Degradado_sin_nombre_45-19" x1="302.09" y1="303.06" x2="329.61" y2="303.06" xlink:href="#Degradado_sin_nombre_45"/><linearGradient id="Degradado_sin_nombre_19-19" x1="347.67" y1="324.39" x2="353.81" y2="324.39" xlink:href="#Degradado_sin_nombre_19"/><linearGradient id="Degradado_sin_nombre_82-18" x1="326.28" y1="320" x2="347.67" y2="320" xlink:href="#Degradado_sin_nombre_82"/><linearGradient id="Degradado_sin_nombre_45-20" x1="326.28" y1="317.03" x2="353.81" y2="317.03" xlink:href="#Degradado_sin_nombre_45"/><linearGradient id="Degradado_sin_nombre_19-20" x1="142.98" y1="219.09" x2="149.14" y2="219.09" xlink:href="#Degradado_sin_nombre_19"/><linearGradient id="Degradado_sin_nombre_82-19" x1="121.58" y1="214.69" x2="142.99" y2="214.69" xlink:href="#Degradado_sin_nombre_82"/><linearGradient id="Degradado_sin_nombre_45-21" x1="121.59" y1="211.73" x2="149.14" y2="211.73" xlink:href="#Degradado_sin_nombre_45"/><linearGradient id="Degradado_sin_nombre_19-21" x1="167.18" y1="233.06" x2="173.33" y2="233.06" xlink:href="#Degradado_sin_nombre_19"/><linearGradient id="Degradado_sin_nombre_82-20" x1="145.78" y1="228.66" x2="167.19" y2="228.66" xlink:href="#Degradado_sin_nombre_82"/><linearGradient id="Degradado_sin_nombre_45-22" x1="145.79" y1="225.7" x2="173.33" y2="225.7" xlink:href="#Degradado_sin_nombre_45"/><linearGradient id="Degradado_sin_nombre_19-22" x1="191.38" y1="247.03" x2="197.53" y2="247.03" xlink:href="#Degradado_sin_nombre_19"/><linearGradient id="Degradado_sin_nombre_82-21" x1="169.98" y1="242.63" x2="191.38" y2="242.63" xlink:href="#Degradado_sin_nombre_82"/><linearGradient id="Degradado_sin_nombre_45-23" x1="169.98" y1="239.67" x2="197.53" y2="239.67" xlink:href="#Degradado_sin_nombre_45"/><linearGradient id="Degradado_sin_nombre_19-23" x1="215.57" y1="260.99" x2="221.72" y2="260.99" xlink:href="#Degradado_sin_nombre_19"/><linearGradient id="Degradado_sin_nombre_82-22" x1="194.17" y1="256.6" x2="215.58" y2="256.6" xlink:href="#Degradado_sin_nombre_82"/><linearGradient id="Degradado_sin_nombre_45-24" x1="194.18" y1="253.64" x2="221.72" y2="253.64" xlink:href="#Degradado_sin_nombre_45"/><linearGradient id="Degradado_sin_nombre_19-24" x1="239.77" y1="274.96" x2="245.92" y2="274.96" xlink:href="#Degradado_sin_nombre_19"/><linearGradient id="Degradado_sin_nombre_82-23" x1="218.37" y1="270.57" x2="239.78" y2="270.57" xlink:href="#Degradado_sin_nombre_82"/><linearGradient id="Degradado_sin_nombre_45-25" x1="218.38" y1="267.6" x2="245.92" y2="267.6" xlink:href="#Degradado_sin_nombre_45"/><linearGradient id="Degradado_sin_nombre_19-25" x1="263.96" y1="288.93" x2="270.12" y2="288.93" xlink:href="#Degradado_sin_nombre_19"/><linearGradient id="Degradado_sin_nombre_82-24" x1="242.56" y1="284.54" x2="263.97" y2="284.54" xlink:href="#Degradado_sin_nombre_82"/><linearGradient id="Degradado_sin_nombre_45-26" x1="242.57" y1="281.57" x2="270.12" y2="281.57" xlink:href="#Degradado_sin_nombre_45"/><linearGradient id="Degradado_sin_nombre_19-26" x1="288.16" y1="302.9" x2="294.31" y2="302.9" xlink:href="#Degradado_sin_nombre_19"/><linearGradient id="Degradado_sin_nombre_82-25" x1="266.76" y1="298.51" x2="288.17" y2="298.51" xlink:href="#Degradado_sin_nombre_82"/><linearGradient id="Degradado_sin_nombre_45-27" x1="266.77" y1="295.54" x2="294.31" y2="295.54" xlink:href="#Degradado_sin_nombre_45"/><linearGradient id="Degradado_sin_nombre_19-27" x1="312.36" y1="316.87" x2="318.51" y2="316.87" xlink:href="#Degradado_sin_nombre_19"/><linearGradient id="Degradado_sin_nombre_82-26" x1="290.97" y1="312.48" x2="312.36" y2="312.48" xlink:href="#Degradado_sin_nombre_82"/><linearGradient id="Degradado_sin_nombre_45-28" x1="290.97" y1="309.52" x2="318.51" y2="309.52" xlink:href="#Degradado_sin_nombre_45"/><linearGradient id="Degradado_sin_nombre_19-28" x1="336.55" y1="330.84" x2="342.71" y2="330.84" xlink:href="#Degradado_sin_nombre_19"/><linearGradient id="Degradado_sin_nombre_82-27" x1="315.16" y1="326.45" x2="336.56" y2="326.45" xlink:href="#Degradado_sin_nombre_82"/><linearGradient id="Degradado_sin_nombre_45-29" x1="315.17" y1="323.49" x2="342.71" y2="323.49" xlink:href="#Degradado_sin_nombre_45"/><linearGradient id="Degradado_sin_nombre_19-29" x1="131.88" y1="225.54" x2="138.02" y2="225.54" xlink:href="#Degradado_sin_nombre_19"/><linearGradient id="Degradado_sin_nombre_82-28" x1="110.48" y1="221.15" x2="131.89" y2="221.15" xlink:href="#Degradado_sin_nombre_82"/><linearGradient id="Degradado_sin_nombre_45-30" x1="110.49" y1="218.18" x2="138.02" y2="218.18" xlink:href="#Degradado_sin_nombre_45"/><linearGradient id="Degradado_sin_nombre_19-30" x1="156.08" y1="239.51" x2="162.22" y2="239.51" xlink:href="#Degradado_sin_nombre_19"/><linearGradient id="Degradado_sin_nombre_82-29" x1="134.68" y1="235.12" x2="156.08" y2="235.12" xlink:href="#Degradado_sin_nombre_82"/><linearGradient id="Degradado_sin_nombre_45-31" x1="134.68" y1="232.15" x2="162.22" y2="232.15" xlink:href="#Degradado_sin_nombre_45"/><linearGradient id="Degradado_sin_nombre_19-31" x1="180.27" y1="253.48" x2="186.41" y2="253.48" xlink:href="#Degradado_sin_nombre_19"/><linearGradient id="Degradado_sin_nombre_82-30" x1="158.87" y1="249.09" x2="180.28" y2="249.09" xlink:href="#Degradado_sin_nombre_82"/><linearGradient id="Degradado_sin_nombre_45-32" x1="158.88" y1="246.12" x2="186.41" y2="246.12" xlink:href="#Degradado_sin_nombre_45"/><linearGradient id="Degradado_sin_nombre_19-32" x1="204.47" y1="267.45" x2="210.61" y2="267.45" xlink:href="#Degradado_sin_nombre_19"/><linearGradient id="Degradado_sin_nombre_82-31" x1="183.07" y1="263.06" x2="204.47" y2="263.06" xlink:href="#Degradado_sin_nombre_82"/><linearGradient id="Degradado_sin_nombre_45-33" x1="183.07" y1="260.09" x2="210.61" y2="260.09" xlink:href="#Degradado_sin_nombre_45"/><linearGradient id="Degradado_sin_nombre_19-33" x1="228.66" y1="281.42" x2="234.81" y2="281.42" xlink:href="#Degradado_sin_nombre_19"/><linearGradient id="Degradado_sin_nombre_82-32" x1="207.26" y1="277.03" x2="228.67" y2="277.03" xlink:href="#Degradado_sin_nombre_82"/><linearGradient id="Degradado_sin_nombre_45-34" x1="207.27" y1="274.06" x2="234.81" y2="274.06" xlink:href="#Degradado_sin_nombre_45"/><linearGradient id="Degradado_sin_nombre_19-34" x1="252.86" y1="295.39" x2="259" y2="295.39" xlink:href="#Degradado_sin_nombre_19"/><linearGradient id="Degradado_sin_nombre_82-33" x1="231.46" y1="291" x2="252.87" y2="291" xlink:href="#Degradado_sin_nombre_82"/><linearGradient id="Degradado_sin_nombre_45-35" x1="231.47" y1="288.03" x2="259" y2="288.03" xlink:href="#Degradado_sin_nombre_45"/><linearGradient id="Degradado_sin_nombre_19-35" x1="277.06" y1="309.36" x2="283.2" y2="309.36" xlink:href="#Degradado_sin_nombre_19"/><linearGradient id="Degradado_sin_nombre_82-34" x1="255.66" y1="304.97" x2="277.06" y2="304.97" xlink:href="#Degradado_sin_nombre_82"/><linearGradient id="Degradado_sin_nombre_45-36" x1="255.66" y1="302" x2="283.2" y2="302" xlink:href="#Degradado_sin_nombre_45"/><linearGradient id="Degradado_sin_nombre_19-36" x1="301.25" y1="323.33" x2="307.4" y2="323.33" xlink:href="#Degradado_sin_nombre_19"/><linearGradient id="Degradado_sin_nombre_82-35" x1="279.86" y1="318.94" x2="301.26" y2="318.94" xlink:href="#Degradado_sin_nombre_82"/><linearGradient id="Degradado_sin_nombre_45-37" x1="279.87" y1="315.97" x2="307.4" y2="315.97" xlink:href="#Degradado_sin_nombre_45"/><linearGradient id="Degradado_sin_nombre_19-37" x1="325.45" y1="337.3" x2="331.59" y2="337.3" xlink:href="#Degradado_sin_nombre_19"/><linearGradient id="Degradado_sin_nombre_82-36" x1="304.06" y1="332.91" x2="325.46" y2="332.91" xlink:href="#Degradado_sin_nombre_82"/><linearGradient id="Degradado_sin_nombre_45-38" x1="304.07" y1="329.94" x2="331.59" y2="329.94" xlink:href="#Degradado_sin_nombre_45"/><linearGradient id="Degradado_sin_nombre_19-38" x1="120.77" y1="232" x2="126.91" y2="232" xlink:href="#Degradado_sin_nombre_19"/><linearGradient id="Degradado_sin_nombre_82-37" x1="99.37" y1="227.61" x2="120.77" y2="227.61" xlink:href="#Degradado_sin_nombre_82"/><linearGradient id="Degradado_sin_nombre_45-39" x1="99.37" y1="224.64" x2="126.91" y2="224.64" xlink:href="#Degradado_sin_nombre_45"/><linearGradient id="Degradado_sin_nombre_19-39" x1="144.96" y1="245.97" x2="151.1" y2="245.97" xlink:href="#Degradado_sin_nombre_19"/><linearGradient id="Degradado_sin_nombre_82-38" x1="123.56" y1="241.57" x2="144.97" y2="241.57" xlink:href="#Degradado_sin_nombre_82"/><linearGradient id="Degradado_sin_nombre_45-40" x1="123.57" y1="238.61" x2="151.1" y2="238.61" xlink:href="#Degradado_sin_nombre_45"/><linearGradient id="Degradado_sin_nombre_19-40" x1="265.94" y1="315.82" x2="272.09" y2="315.82" xlink:href="#Degradado_sin_nombre_19"/><linearGradient id="Degradado_sin_nombre_82-39" x1="147.76" y1="283.48" x2="265.95" y2="283.48" xlink:href="#Degradado_sin_nombre_82"/><linearGradient id="Degradado_sin_nombre_45-41" x1="147.77" y1="280.52" x2="272.09" y2="280.52" xlink:href="#Degradado_sin_nombre_45"/><linearGradient id="Degradado_sin_nombre_19-41" x1="290.14" y1="329.79" x2="296.28" y2="329.79" xlink:href="#Degradado_sin_nombre_19"/><linearGradient id="Degradado_sin_nombre_82-40" x1="268.75" y1="325.4" x2="290.15" y2="325.4" xlink:href="#Degradado_sin_nombre_82"/><linearGradient id="Degradado_sin_nombre_45-42" x1="268.76" y1="322.43" x2="296.28" y2="322.43" xlink:href="#Degradado_sin_nombre_45"/><linearGradient id="Degradado_sin_nombre_19-42" x1="314.34" y1="343.76" x2="320.48" y2="343.76" xlink:href="#Degradado_sin_nombre_19"/><linearGradient id="Degradado_sin_nombre_82-41" x1="292.95" y1="339.37" x2="314.34" y2="339.37" xlink:href="#Degradado_sin_nombre_82"/><linearGradient id="Degradado_sin_nombre_45-43" x1="292.95" y1="336.4" x2="320.48" y2="336.4" xlink:href="#Degradado_sin_nombre_45"/><linearGradient id="Degradado_sin_nombre_19-43" x1="195.61" y1="329.05" x2="236.97" y2="329.05" xlink:href="#Degradado_sin_nombre_19"/><linearGradient id="Degradado_sin_nombre_45-44" x1="115.04" y1="304.6" x2="236.97" y2="304.6" xlink:href="#Degradado_sin_nombre_45"/><linearGradient id="Degradado_sin_nombre_41" x1="290.53" y1="223.17" x2="372.72" y2="223.17" gradientUnits="userSpaceOnUse"><stop offset="0" stop-color="#ffcfcf"/><stop offset="1" stop-color="#f55"/></linearGradient><linearGradient id="Degradado_sin_nombre_38" x1="286.51" y1="226.01" x2="364.54" y2="226.01" gradientUnits="userSpaceOnUse"><stop offset="0" stop-color="#a81d1d"/><stop offset="1" stop-color="#dd4545"/></linearGradient><linearGradient id="Degradado_sin_nombre_39" x1="291.57" y1="226.01" x2="359.48" y2="226.01" gradientUnits="userSpaceOnUse"><stop offset="0" stop-color="#dd4545"/><stop offset="1" stop-color="#a81d1d"/></linearGradient><linearGradient id="Degradado_sin_nombre_19-44" x1="292.02" y1="208.94" x2="299.75" y2="208.94" xlink:href="#Degradado_sin_nombre_19"/><linearGradient id="Degradado_sin_nombre_19-45" x1="301.16" y1="214.08" x2="308.79" y2="214.08" xlink:href="#Degradado_sin_nombre_19"/><linearGradient id="Degradado_sin_nombre_19-46" x1="309.43" y1="218.83" x2="317.91" y2="218.83" xlink:href="#Degradado_sin_nombre_19"/><linearGradient id="Degradado_sin_nombre_19-47" x1="322.1" y1="226.89" x2="329.85" y2="226.89" xlink:href="#Degradado_sin_nombre_19"/><linearGradient id="Degradado_sin_nombre_19-48" x1="331.3" y1="232.62" x2="340.51" y2="232.62" xlink:href="#Degradado_sin_nombre_19"/><linearGradient id="Degradado_sin_nombre_19-49" x1="340.98" y1="238.63" x2="354.43" y2="238.63" xlink:href="#Degradado_sin_nombre_19"/><linearGradient id="Degradado_sin_nombre_17-2" x1="371.85" y1="214.68" x2="371.85" y2="206.91" xlink:href="#Degradado_sin_nombre_17"/><linearGradient id="Degradado_sin_nombre_17-3" x1="307.01" y1="188.94" x2="372.72" y2="188.94" xlink:href="#Degradado_sin_nombre_17"/><linearGradient id="Degradado_sin_nombre_45-45" x1="306.99" y1="192.82" x2="371.01" y2="192.82" xlink:href="#Degradado_sin_nombre_45"/><linearGradient id="Degradado_sin_nombre_17-4" x1="371.85" y1="202.56" x2="371.85" y2="194.8" xlink:href="#Degradado_sin_nombre_17"/><linearGradient id="Degradado_sin_nombre_17-5" x1="307.01" y1="176.82" x2="372.72" y2="176.82" xlink:href="#Degradado_sin_nombre_17"/><linearGradient id="Degradado_sin_nombre_45-46" x1="306.99" y1="180.7" x2="371.01" y2="180.7" xlink:href="#Degradado_sin_nombre_45"/><linearGradient id="Degradado_sin_nombre_17-6" x1="371.85" y1="190.45" x2="371.85" y2="182.69" xlink:href="#Degradado_sin_nombre_17"/><linearGradient id="Degradado_sin_nombre_17-7" x1="307.01" y1="164.71" x2="372.72" y2="164.71" xlink:href="#Degradado_sin_nombre_17"/><linearGradient id="Degradado_sin_nombre_45-47" x1="306.99" y1="168.59" x2="371.01" y2="168.59" xlink:href="#Degradado_sin_nombre_45"/><linearGradient id="Degradado_sin_nombre_28" x1="310.76" y1="136.3" x2="319.64" y2="136.3" gradientUnits="userSpaceOnUse"><stop offset="0" stop-color="#ffdd31"/><stop offset="1" stop-color="#ff8e31"/></linearGradient><linearGradient id="Degradado_sin_nombre_45-48" x1="325.52" y1="144.66" x2="334.4" y2="144.66" xlink:href="#Degradado_sin_nombre_45"/><linearGradient id="Degradado_sin_nombre_47" x1="340.29" y1="153.03" x2="349.16" y2="153.03" gradientUnits="userSpaceOnUse"><stop offset="0" stop-color="#25a51e"/><stop offset="1" stop-color="#afffab"/></linearGradient><linearGradient id="Degradado_sin_nombre_38-2" x1="355.05" y1="161.39" x2="363.92" y2="161.39" xlink:href="#Degradado_sin_nombre_38"/><linearGradient id="Degradado_sin_nombre_72-2" x1="181.76" y1="233.88" x2="259.88" y2="233.88" xlink:href="#Degradado_sin_nombre_72"/><linearGradient id="Degradado_sin_nombre_72-3" x1="211.67" y1="161.79" x2="274.43" y2="161.79" xlink:href="#Degradado_sin_nombre_72"/><linearGradient id="Degradado_sin_nombre_63" x1="114.3" y1="250.66" x2="182.02" y2="250.66" gradientUnits="userSpaceOnUse"><stop offset="0" stop-color="#ffdec7"/><stop offset="1" stop-color="#fff"/></linearGradient><clipPath id="clip-path"><path class="cls-1" d="M182,269,114.56,229.8a41.8,41.8,0,0,0,4.27-2.16c10.35-6,21.59-17.54,30.2-31.3,7.71-12.3,16.88-32,16.82-56.19C165.72,95.35,195.93,64,207,57.6l67.47,39.21c-11,6.36-41.24,37.75-41.11,82.54.07,24.16-9.1,43.89-16.81,56.2-8.62,13.76-19.85,25.32-30.21,31.29A40.93,40.93,0,0,1,182,269Z"/></clipPath><linearGradient id="Degradado_sin_nombre_63-2" x1="147.83" y1="249.27" x2="245.6" y2="79.92" xlink:href="#Degradado_sin_nombre_63"/><linearGradient id="Degradado_sin_nombre_64" x1="181.77" y1="184.16" x2="274.42" y2="184.16" gradientUnits="userSpaceOnUse"><stop offset="0" stop-color="#ddb397"/><stop offset="1" stop-color="#fff"/></linearGradient><clipPath id="clip-path-2"><path class="cls-1" d="M283.65,256.62c0-1.18,0-2.36,0-3.54a4.51,4.51,0,0,1,2.57-3.39h0c0,1.18,0,2.36,0,3.54,0-1.18,0-2.36,0-3.54a13.81,13.81,0,0,1,12.55,0c1.76,1,2.63,2.34,2.63,3.66v3.55c0-1.32-.87-2.65-2.63-3.67a13.81,13.81,0,0,0-12.55,0A4.53,4.53,0,0,0,283.65,256.62Z"/></clipPath><clipPath id="clip-path-3"><path class="cls-1" d="M283.65,256.62a12.43,12.43,0,0,0-5.82,1.49v-3.55a12.42,12.42,0,0,1,5.82-1.48Z"/></clipPath><clipPath id="clip-path-4"><path class="cls-1" d="M283.64,256.89v-3.55a2.17,2.17,0,0,1,0-.26v3.54A2.44,2.44,0,0,0,283.64,256.89Z"/></clipPath><clipPath id="clip-path-5"><path class="cls-1" d="M277.83,258.11c-1.73,1-2.59,2.31-2.6,3.62v-3.55c0-1.31.87-2.62,2.6-3.62Z"/></clipPath><clipPath id="clip-path-6"><path class="cls-1" d="M293,258.24v3.54c0-1.33-.86-2.66-2.62-3.67a13,13,0,0,0-6.73-1.49v-3.54a12.87,12.87,0,0,1,6.73,1.48C292.15,255.58,293,256.91,293,258.24Z"/></clipPath><clipPath id="clip-path-7"><path class="cls-1" d="M301.41,253.35v3.55c0,1.31-.86,2.61-2.58,3.61A12.51,12.51,0,0,1,293,262v-3.55a12.39,12.39,0,0,0,5.83-1.51C300.55,256,301.41,254.66,301.41,253.35Z"/></clipPath><clipPath id="clip-path-8"><path class="cls-1" d="M283.64,256.89v-3.55c0,1.3.87,2.62,2.61,3.62a13.12,13.12,0,0,0,6.74,1.51V262a13.22,13.22,0,0,1-6.74-1.51C284.51,259.51,283.63,258.19,283.64,256.89Z"/></clipPath><clipPath id="clip-path-9"><path class="cls-1" d="M275.23,261.73v-3.55c0,1.32.88,2.65,2.63,3.66a13.86,13.86,0,0,0,12.57,0,4.5,4.5,0,0,0,2.56-3.37V262a4.51,4.51,0,0,1-2.56,3.37,13.86,13.86,0,0,1-12.57,0C276.11,264.37,275.23,263.05,275.23,261.73Z"/></clipPath><clipPath id="clip-path-10"><path class="cls-1" d="M234.75,294.73v3.55a5.85,5.85,0,0,0-5.31,0v-3.55A5.85,5.85,0,0,1,234.75,294.73Z"/></clipPath><clipPath id="clip-path-11"><path class="cls-1" d="M243.3,300.58v3.54a1.87,1.87,0,0,0-1.1-1.54V299A1.9,1.9,0,0,1,243.3,300.58Z"/></clipPath><clipPath id="clip-path-12"><path class="cls-1" d="M243.3,300.58v3.54a1.84,1.84,0,0,1-1.09,1.53v-3.54A1.87,1.87,0,0,0,243.3,300.58Z"/></clipPath><clipPath id="clip-path-13"><path class="cls-1" d="M212.64,308a1.84,1.84,0,0,0-1.09,1.52V306a1.84,1.84,0,0,1,1.09-1.52Z"/></clipPath><clipPath id="clip-path-14"><path class="cls-1" d="M211.55,309.56V306a1.9,1.9,0,0,0,1.12,1.56v3.54A1.88,1.88,0,0,1,211.55,309.56Z"/></clipPath><clipPath id="clip-path-15"><path class="cls-1" d="M225.42,311.86v3.55a5.83,5.83,0,0,1-5.3,0v-3.55A5.83,5.83,0,0,0,225.42,311.86Z"/></clipPath><linearGradient id="Degradado_sin_nombre_28-2" x1="184.37" y1="281.91" x2="341.16" y2="281.91" xlink:href="#Degradado_sin_nombre_28"/><linearGradient id="Degradado_sin_nombre_17-8" x1="275.24" y1="258.21" x2="293" y2="258.21" xlink:href="#Degradado_sin_nombre_17"/><linearGradient id="Degradado_sin_nombre_84" x1="184.36" y1="316.67" x2="225.04" y2="316.67" gradientUnits="userSpaceOnUse"><stop offset="0" stop-color="#ffa233"/><stop offset="1" stop-color="#db7121"/></linearGradient><linearGradient id="Degradado_sin_nombre_82-42" x1="225.04" y1="296.38" x2="350.64" y2="296.38" xlink:href="#Degradado_sin_nombre_82"/><linearGradient id="Degradado_sin_nombre_82-43" x1="225.03" y1="331.9" x2="234.52" y2="331.9" xlink:href="#Degradado_sin_nombre_82"/><linearGradient id="Degradado_sin_nombre_84-2" x1="234.51" y1="307.89" x2="361.45" y2="307.89" xlink:href="#Degradado_sin_nombre_84"/><linearGradient id="Degradado_sin_nombre_72-4" x1="36.88" y1="255.8" x2="105.08" y2="255.8" xlink:href="#Degradado_sin_nombre_72"/><linearGradient id="Degradado_sin_nombre_81-4" x1="63.12" y1="250.77" x2="100.11" y2="250.77" xlink:href="#Degradado_sin_nombre_81"/><linearGradient id="Degradado_sin_nombre_81-5" x1="41.8" y1="255.35" x2="63.18" y2="255.35" xlink:href="#Degradado_sin_nombre_81"/><linearGradient id="Degradado_sin_nombre_81-6" x1="41.86" y1="233.8" x2="100.11" y2="233.8" xlink:href="#Degradado_sin_nombre_81"/><linearGradient id="Degradado_sin_nombre_41-2" x1="285.05" y1="81.97" x2="350.15" y2="81.97" xlink:href="#Degradado_sin_nombre_41"/><linearGradient id="Degradado_sin_nombre_38-3" x1="282.34" y1="84.64" x2="341.97" y2="84.64" xlink:href="#Degradado_sin_nombre_38"/><linearGradient id="Degradado_sin_nombre_39-2" x1="284.92" y1="82.64" x2="335.4" y2="82.64" xlink:href="#Degradado_sin_nombre_39"/><linearGradient id="Degradado_sin_nombre_32" x1="366.83" y1="132.71" x2="421.5" y2="132.71" gradientUnits="userSpaceOnUse"><stop offset="0" stop-color="#fff3c2"/><stop offset="1" stop-color="#ffe266"/></linearGradient><linearGradient id="Degradado_sin_nombre_33" x1="364.55" y1="134.95" x2="414.63" y2="134.95" gradientUnits="userSpaceOnUse"><stop offset="0" stop-color="#ff8e31"/><stop offset="1" stop-color="#ffc033"/></linearGradient><linearGradient id="Degradado_sin_nombre_28-3" x1="366.61" y1="132.95" x2="408.57" y2="132.95" xlink:href="#Degradado_sin_nombre_28"/><linearGradient id="Degradado_sin_nombre_19-50" x1="100.27" y1="124.97" x2="157.58" y2="124.97" xlink:href="#Degradado_sin_nombre_19"/><linearGradient id="Degradado_sin_nombre_45-49" x1="97.88" y1="127.32" x2="150.38" y2="127.32" xlink:href="#Degradado_sin_nombre_45"/><linearGradient id="Degradado_sin_nombre_82-44" x1="100.26" y1="123.9" x2="144.96" y2="123.9" xlink:href="#Degradado_sin_nombre_82"/></defs><g class="cls-2"><g id="Layer_2" data-name="Layer 2"><g id="OBJECTS"><path class="cls-3" d="M394.91,326.26c6.77,3.91,6.81,10.25.08,14.15L262.8,417.24c-6.73,3.91-17.68,3.91-24.45,0l-214-123.56c-6.77-3.91-6.8-10.25-.07-14.16l132.19-76.83c6.73-3.9,17.68-3.9,24.45,0Z"/><g class="cls-2"><g class="cls-4"><path class="cls-5" d="M108.64,214.72,41.4,253.79a3.93,3.93,0,0,1-3.94,0L2,233.3a3.92,3.92,0,0,1,0-6.79l67.24-39.08a3.93,3.93,0,0,1,3.94,0l35.5,20.49A3.94,3.94,0,0,1,108.64,214.72Z"/></g><polygon class="cls-6" points="103.64 177.02 103.54 212.92 42.24 248.54 42.34 212.64 103.64 177.02"/><polygon class="cls-7" points="42.34 212.64 42.24 248.54 6.85 228.11 6.95 192.21 42.34 212.64"/><polygon class="cls-8" points="103.64 177.02 42.34 212.64 6.95 192.21 68.25 156.59 103.64 177.02"/><polygon class="cls-9" points="77.56 192.17 68.41 197.49 33.02 177.06 42.24 171.77 77.56 192.17"/><polygon class="cls-9" points="19.95 199.72 29.17 204.99 90.72 169.46 81.45 164.21 19.95 199.72"/></g><polygon class="cls-10" points="68.41 233.33 68.41 197.49 77.56 192.17 77.56 228.01 68.41 233.33"/><polygon class="cls-10" points="29.17 240.99 29.17 205.04 20.02 199.73 20.02 235.68 29.17 240.99"/><g class="cls-2"><path class="cls-11" d="M398,311.05s0,0,0,.06a1.94,1.94,0,0,1-.25.47l-.05.09a3.35,3.35,0,0,1-.41.44,2.6,2.6,0,0,1-.36.27,2.49,2.49,0,0,1-.31.23l-136,79c-.45.25-.92.49-1.41.71l-.43.18c-.38.16-.77.31-1.16.44l-.43.15-.77.22-.58.15c-.27.07-.55.12-.83.18l-.56.11c-.56.1-1.12.18-1.69.24l-.53,0c-.33,0-.67.06-1,.07l-.65,0h-.81l-.68,0-.76,0-.68-.05-.75-.09-.66-.09-.79-.14-.62-.12-.92-.23-.51-.13c-.54-.16-1.08-.34-1.59-.54l-.21-.09a15.7,15.7,0,0,1-2-1L22.34,266.24c-2.93-1.69-4.4-3.91-4.39-6.13l0,7.09c0,2.22,1.46,4.44,4.39,6.14l217.21,125.4a14.48,14.48,0,0,0,2,1l.13.06.08,0c.51.2,1.05.38,1.59.54l.13,0,.38.1.92.22.25.06.37.07.79.13.31.06.35,0,.75.08.35,0,.33,0,.76,0,.37,0h1.77l1-.07.4,0,.13,0c.57-.06,1.14-.13,1.69-.23h.08l.48-.1.83-.18.58-.16.77-.22.16,0,.26-.1c.4-.14.79-.29,1.18-.45l.42-.18a15.47,15.47,0,0,0,1.41-.71l136-79,.06,0,.25-.18c.12-.09.26-.18.36-.27l0,0a2.54,2.54,0,0,0,.32-.34l.06-.08,0-.08.1-.14a1.85,1.85,0,0,0,.13-.29l0-.05s0,0,0-.05a1.33,1.33,0,0,0,0-.19,1.45,1.45,0,0,0,0-.29v-.05l0-7.09A1.54,1.54,0,0,1,398,311.05Z"/><path class="cls-12" d="M396.57,308.42c2,1.16,2,3,0,4.19l-136,79c-5.8,3.36-15.21,3.36-21,0L22.34,266.24c-5.82-3.36-5.86-8.82-.07-12.19l136-79a8,8,0,0,1,7.22,0Z"/></g><g class="cls-2"><path class="cls-13" d="M410.66,140a1,1,0,0,0,0-.17,1.09,1.09,0,0,0,0-.18c0-.06,0-.11,0-.17l0-.19h0l0-.18a1.29,1.29,0,0,0,0-.19,1.62,1.62,0,0,0,0-.19c0-.06,0-.13-.05-.19s0-.1,0-.15h0v0l-.06-.19-.06-.18a3911452374815.33,3911452374815.33,0,0,0-.14-.36l-.06-.13h0v0l-.08-.17-.09-.19-.12-.22a1.71,1.71,0,0,0-.13-.23l0,0,0-.05-.27-.43c-.08-.11-.15-.22-.23-.32l-.16-.21-.14-.18-.14-.16-.14-.16,0,0h0l-.11-.11-.15-.15-.16-.15-.16-.14-.09-.07h0l-.07,0a1.58,1.58,0,0,0-.15-.12l-.16-.12-.16-.1-.15-.09,0,0L176,.5l-.11-.07-.15-.07-.15-.07-.14-.07-.15,0h0l-.11,0-.14,0-.15,0-.16,0h-.52L174,0h0l-.24.07-.3.13-6.13,3.57a1.59,1.59,0,0,1,.54-.2h0a3,3,0,0,1,.61,0h0a2.43,2.43,0,0,1,.67.14h0a5.86,5.86,0,0,1,.73.34L400.92,137.47a4.89,4.89,0,0,1,.72.5l0,0a5.46,5.46,0,0,1,.66.62h0a8.63,8.63,0,0,1,.6.73h0c.19.26.37.53.53.8l0,0c.16.28.3.56.43.84h0a8,8,0,0,1,.33.89v0a6.77,6.77,0,0,1,.21.89h0a5.39,5.39,0,0,1,.07.88L404.08,301c0,.4,0,.79-.05,1.16,0,0,0,.07,0,.1,0,.34-.08.67-.14,1l0,.12a7.54,7.54,0,0,1-.23.88.88.88,0,0,1-.05.15,7.51,7.51,0,0,1-.29.76l0,.08a5.08,5.08,0,0,1-.42.76,5,5,0,0,1-.73.9l-.19.2a5.19,5.19,0,0,1-.89.67l6.13-3.56a5.25,5.25,0,0,0,.89-.68l.2-.19a6,6,0,0,0,.73-.9h0a7.19,7.19,0,0,0,.39-.73l0,0,0-.09c.07-.16.15-.32.21-.49l.09-.26a1.42,1.42,0,0,1,.05-.16l0-.13c.05-.18.1-.36.14-.54a1.77,1.77,0,0,0,0-.2l0-.13c0-.06,0-.12,0-.19s.05-.33.07-.5l0-.3a.28.28,0,0,0,0-.09.49.49,0,0,0,0-.12c0-.17,0-.33,0-.5s0-.34,0-.51v0l.44-157.31Z"/><path class="cls-14" d="M400.92,137.47a8,8,0,0,1,3.61,6.25L404.08,301c0,6.7-4.75,9.4-10.59,6L176.29,181.66c-5.82-3.36-10.54-11.52-10.52-18.22l.45-157.31c0-2.3,1.63-3.22,3.63-2.07Z"/><path class="cls-15" d="M396.82,141a7.67,7.67,0,0,1,3.48,6L399.87,293c0,6.47-4.59,9.07-10.22,5.82l-209.5-121c-5.62-3.24-10.17-11.11-10.15-17.57l.43-145.93c0-2.22,1.58-3.11,3.51-2Z"/><path class="cls-16" d="M388.37,142.17a7.06,7.06,0,0,1,3.22,5.57l-.4,134.89c0,6-4.24,8.39-9.44,5.38L188.09,176.21c-5.19-3-9.4-10.28-9.38-16.25l.4-134.9c0-2,1.45-2.87,3.24-1.84Z"/></g><g class="cls-2"><polygon class="cls-17" points="171.35 203.21 171.35 205.57 165.21 209.14 165.22 206.77 171.35 203.21"/><polygon class="cls-18" points="165.22 206.77 165.21 209.14 143.81 196.78 143.82 194.42 165.22 206.77"/><polygon class="cls-19" points="171.35 203.21 165.22 206.77 143.82 194.42 149.95 190.85 171.35 203.21"/></g><g class="cls-2"><polygon class="cls-20" points="195.55 217.18 195.54 219.54 189.41 223.11 189.41 220.74 195.55 217.18"/><polygon class="cls-21" points="189.41 220.74 189.41 223.11 168.01 210.75 168.01 208.39 189.41 220.74"/><polygon class="cls-22" points="195.55 217.18 189.41 220.74 168.01 208.39 174.15 204.82 195.55 217.18"/></g><g class="cls-2"><polygon class="cls-23" points="219.75 231.15 219.74 233.51 213.6 237.08 213.61 234.71 219.75 231.15"/><polygon class="cls-24" points="213.61 234.71 213.6 237.08 192.2 224.72 192.21 222.36 213.61 234.71"/><polygon class="cls-25" points="219.75 231.15 213.61 234.71 192.21 222.36 198.35 218.79 219.75 231.15"/></g><g class="cls-2"><polygon class="cls-26" points="243.94 245.12 243.94 247.48 237.8 251.05 237.81 248.68 243.94 245.12"/><polygon class="cls-27" points="237.81 248.68 237.8 251.05 216.4 238.69 216.41 236.33 237.81 248.68"/><polygon class="cls-28" points="243.94 245.12 237.81 248.68 216.41 236.33 222.54 232.76 243.94 245.12"/></g><g class="cls-2"><polygon class="cls-29" points="268.14 259.08 268.13 261.45 262 265.02 262 262.65 268.14 259.08"/><polygon class="cls-30" points="262 262.65 262 265.02 240.59 252.66 240.6 250.3 262 262.65"/><polygon class="cls-31" points="268.14 259.08 262 262.65 240.6 250.3 246.74 246.73 268.14 259.08"/></g><g class="cls-2"><polygon class="cls-32" points="292.33 273.06 292.33 275.42 286.19 278.99 286.2 276.62 292.33 273.06"/><polygon class="cls-33" points="286.2 276.62 286.19 278.99 264.79 266.63 264.8 264.27 286.2 276.62"/><polygon class="cls-34" points="292.33 273.06 286.2 276.62 264.8 264.27 270.93 260.7 292.33 273.06"/></g><g class="cls-2"><polygon class="cls-35" points="316.53 287.02 316.52 289.39 310.39 292.95 310.39 290.59 316.53 287.02"/><polygon class="cls-36" points="310.39 290.59 310.39 292.95 288.99 280.6 289 278.24 310.39 290.59"/><polygon class="cls-37" points="316.53 287.02 310.39 290.59 289 278.24 295.13 274.67 316.53 287.02"/></g><g class="cls-2"><polygon class="cls-38" points="340.73 301 340.72 303.36 334.58 306.93 334.59 304.56 340.73 301"/><polygon class="cls-39" points="334.59 304.56 334.58 306.93 313.19 294.57 313.2 292.21 334.59 304.56"/><polygon class="cls-40" points="340.73 301 334.59 304.56 313.2 292.21 319.34 288.64 340.73 301"/></g><g class="cls-2"><polygon class="cls-41" points="364.92 314.96 364.92 317.33 358.78 320.89 358.79 318.53 364.92 314.96"/><polygon class="cls-42" points="358.79 318.53 358.78 320.89 337.39 308.55 337.4 306.18 358.79 318.53"/><polygon class="cls-43" points="364.92 314.96 358.79 318.53 337.4 306.18 343.53 302.62 364.92 314.96"/></g><g class="cls-2"><polygon class="cls-44" points="160.24 209.66 160.23 212.03 154.1 215.59 154.1 213.23 160.24 209.66"/><polygon class="cls-45" points="154.1 213.23 154.1 215.59 132.7 203.24 132.7 200.88 154.1 213.23"/><polygon class="cls-46" points="160.24 209.66 154.1 213.23 132.7 200.88 138.84 197.31 160.24 209.66"/></g><g class="cls-2"><polygon class="cls-47" points="184.44 223.63 184.43 226 178.29 229.56 178.3 227.2 184.44 223.63"/><polygon class="cls-48" points="178.3 227.2 178.29 229.56 156.89 217.21 156.9 214.84 178.3 227.2"/><polygon class="cls-49" points="184.44 223.63 178.3 227.2 156.9 214.84 163.04 211.28 184.44 223.63"/></g><g class="cls-2"><polygon class="cls-50" points="208.63 237.6 208.63 239.97 202.49 243.53 202.5 241.17 208.63 237.6"/><polygon class="cls-51" points="202.5 241.17 202.49 243.53 181.09 231.18 181.1 228.81 202.5 241.17"/><polygon class="cls-52" points="208.63 237.6 202.5 241.17 181.1 228.81 187.23 225.25 208.63 237.6"/></g><g class="cls-2"><polygon class="cls-53" points="232.83 251.57 232.82 253.94 226.69 257.5 226.69 255.14 232.83 251.57"/><polygon class="cls-54" points="226.69 255.14 226.69 257.5 205.29 245.15 205.29 242.78 226.69 255.14"/><polygon class="cls-55" points="232.83 251.57 226.69 255.14 205.29 242.78 211.43 239.22 232.83 251.57"/></g><g class="cls-2"><polygon class="cls-56" points="257.02 265.54 257.02 267.91 250.88 271.47 250.89 269.11 257.02 265.54"/><polygon class="cls-57" points="250.89 269.11 250.88 271.47 229.48 259.12 229.49 256.75 250.89 269.11"/><polygon class="cls-58" points="257.02 265.54 250.89 269.11 229.49 256.75 235.63 253.19 257.02 265.54"/></g><g class="cls-2"><polygon class="cls-59" points="281.22 279.51 281.21 281.88 275.08 285.44 275.08 283.08 281.22 279.51"/><polygon class="cls-60" points="275.08 283.08 275.08 285.44 253.68 273.09 253.69 270.72 275.08 283.08"/><polygon class="cls-61" points="281.22 279.51 275.08 283.08 253.69 270.72 259.82 267.16 281.22 279.51"/></g><g class="cls-2"><polygon class="cls-62" points="305.42 293.48 305.41 295.85 299.27 299.41 299.28 297.05 305.42 293.48"/><polygon class="cls-63" points="299.28 297.05 299.27 299.41 277.88 287.06 277.88 284.69 299.28 297.05"/><polygon class="cls-64" points="305.42 293.48 299.28 297.05 277.88 284.69 284.02 281.13 305.42 293.48"/></g><g class="cls-2"><polygon class="cls-65" points="329.61 307.45 329.61 309.82 323.47 313.38 323.48 311.02 329.61 307.45"/><polygon class="cls-66" points="323.48 311.02 323.47 313.38 302.08 301.03 302.09 298.67 323.48 311.02"/><polygon class="cls-67" points="329.61 307.45 323.48 311.02 302.09 298.67 308.22 295.1 329.61 307.45"/></g><g class="cls-2"><polygon class="cls-68" points="353.81 321.42 353.8 323.79 347.67 327.35 347.67 324.99 353.81 321.42"/><polygon class="cls-69" points="347.67 324.99 347.67 327.35 326.28 315 326.28 312.64 347.67 324.99"/><polygon class="cls-70" points="353.81 321.42 347.67 324.99 326.28 312.64 332.42 309.07 353.81 321.42"/></g><g class="cls-2"><polygon class="cls-71" points="149.13 216.12 149.13 218.48 142.98 222.05 142.99 219.69 149.13 216.12"/><polygon class="cls-72" points="142.99 219.69 142.98 222.05 121.58 209.7 121.59 207.33 142.99 219.69"/><polygon class="cls-73" points="149.13 216.12 142.99 219.69 121.59 207.33 127.73 203.76 149.13 216.12"/></g><g class="cls-2"><polygon class="cls-74" points="173.33 230.09 173.32 232.45 167.18 236.02 167.19 233.66 173.33 230.09"/><polygon class="cls-75" points="167.19 233.66 167.18 236.02 145.78 223.67 145.79 221.3 167.19 233.66"/><polygon class="cls-76" points="173.33 230.09 167.19 233.66 145.79 221.3 151.93 217.73 173.33 230.09"/></g><g class="cls-2"><polygon class="cls-77" points="197.53 244.06 197.52 246.42 191.38 249.99 191.38 247.63 197.53 244.06"/><polygon class="cls-78" points="191.38 247.63 191.38 249.99 169.98 237.64 169.98 235.27 191.38 247.63"/><polygon class="cls-79" points="197.53 244.06 191.38 247.63 169.98 235.27 176.13 231.7 197.53 244.06"/></g><g class="cls-2"><polygon class="cls-80" points="221.72 258.03 221.72 260.39 215.57 263.96 215.58 261.6 221.72 258.03"/><polygon class="cls-81" points="215.58 261.6 215.57 263.96 194.17 251.61 194.18 249.24 215.58 261.6"/><polygon class="cls-82" points="221.72 258.03 215.58 261.6 194.18 249.24 200.32 245.67 221.72 258.03"/></g><g class="cls-2"><polygon class="cls-83" points="245.92 272 245.91 274.36 239.77 277.93 239.78 275.57 245.92 272"/><polygon class="cls-84" points="239.78 275.57 239.77 277.93 218.37 265.58 218.38 263.21 239.78 275.57"/><polygon class="cls-85" points="245.92 272 239.78 275.57 218.38 263.21 224.52 259.64 245.92 272"/></g><g class="cls-2"><polygon class="cls-86" points="270.12 285.97 270.11 288.33 263.96 291.9 263.97 289.54 270.12 285.97"/><polygon class="cls-87" points="263.97 289.54 263.96 291.9 242.56 279.55 242.57 277.18 263.97 289.54"/><polygon class="cls-88" points="270.12 285.97 263.97 289.54 242.57 277.18 248.72 273.61 270.12 285.97"/></g><g class="cls-2"><polygon class="cls-89" points="294.31 299.94 294.31 302.3 288.16 305.87 288.17 303.51 294.31 299.94"/><polygon class="cls-90" points="288.17 303.51 288.16 305.87 266.76 293.52 266.77 291.15 288.17 303.51"/><polygon class="cls-91" points="294.31 299.94 288.17 303.51 266.77 291.15 272.91 287.58 294.31 299.94"/></g><g class="cls-2"><polygon class="cls-92" points="318.51 313.91 318.5 316.27 312.36 319.84 312.36 317.48 318.51 313.91"/><polygon class="cls-93" points="312.36 317.48 312.36 319.84 290.97 307.49 290.97 305.13 312.36 317.48"/><polygon class="cls-94" points="318.51 313.91 312.36 317.48 290.97 305.13 297.12 301.56 318.51 313.91"/></g><g class="cls-2"><polygon class="cls-95" points="342.71 327.88 342.7 330.24 336.55 333.81 336.56 331.45 342.71 327.88"/><polygon class="cls-96" points="336.56 331.45 336.55 333.81 315.16 321.46 315.17 319.1 336.56 331.45"/><polygon class="cls-97" points="342.71 327.88 336.56 331.45 315.17 319.1 321.31 315.53 342.71 327.88"/></g><g class="cls-2"><polygon class="cls-98" points="138.02 222.58 138.01 224.94 131.88 228.51 131.89 226.14 138.02 222.58"/><polygon class="cls-99" points="131.89 226.14 131.88 228.51 110.48 216.15 110.49 213.79 131.89 226.14"/><polygon class="cls-100" points="138.02 222.58 131.89 226.14 110.49 213.79 116.62 210.22 138.02 222.58"/></g><g class="cls-2"><polygon class="cls-101" points="162.22 236.55 162.21 238.91 156.07 242.48 156.08 240.11 162.22 236.55"/><polygon class="cls-102" points="156.08 240.11 156.07 242.48 134.68 230.12 134.68 227.76 156.08 240.11"/><polygon class="cls-103" points="162.22 236.55 156.08 240.11 134.68 227.76 140.82 224.19 162.22 236.55"/></g><g class="cls-2"><polygon class="cls-104" points="186.41 250.52 186.41 252.88 180.27 256.45 180.28 254.08 186.41 250.52"/><polygon class="cls-105" points="180.28 254.08 180.27 256.45 158.87 244.09 158.88 241.73 180.28 254.08"/><polygon class="cls-106" points="186.41 250.52 180.28 254.08 158.88 241.73 165.01 238.16 186.41 250.52"/></g><g class="cls-2"><polygon class="cls-107" points="210.61 264.49 210.6 266.85 204.47 270.42 204.47 268.05 210.61 264.49"/><polygon class="cls-108" points="204.47 268.05 204.47 270.42 183.07 258.06 183.07 255.7 204.47 268.05"/><polygon class="cls-109" points="210.61 264.49 204.47 268.05 183.07 255.7 189.21 252.13 210.61 264.49"/></g><g class="cls-2"><polygon class="cls-110" points="234.81 278.45 234.8 280.82 228.66 284.39 228.67 282.02 234.81 278.45"/><polygon class="cls-111" points="228.67 282.02 228.66 284.39 207.26 272.03 207.27 269.67 228.67 282.02"/><polygon class="cls-112" points="234.81 278.45 228.67 282.02 207.27 269.67 213.41 266.1 234.81 278.45"/></g><g class="cls-2"><polygon class="cls-113" points="259 292.43 259 294.79 252.86 298.36 252.87 295.99 259 292.43"/><polygon class="cls-114" points="252.87 295.99 252.86 298.36 231.46 286 231.47 283.64 252.87 295.99"/><polygon class="cls-115" points="259 292.43 252.87 295.99 231.47 283.64 237.6 280.07 259 292.43"/></g><g class="cls-2"><polygon class="cls-116" points="283.2 306.39 283.19 308.76 277.06 312.32 277.06 309.96 283.2 306.39"/><polygon class="cls-117" points="277.06 309.96 277.06 312.32 255.66 299.97 255.66 297.61 277.06 309.96"/><polygon class="cls-118" points="283.2 306.39 277.06 309.96 255.66 297.61 261.8 294.04 283.2 306.39"/></g><g class="cls-2"><polygon class="cls-119" points="307.4 320.36 307.39 322.73 301.25 326.3 301.26 323.93 307.4 320.36"/><polygon class="cls-120" points="301.26 323.93 301.25 326.3 279.86 313.94 279.87 311.58 301.26 323.93"/><polygon class="cls-121" points="307.4 320.36 301.26 323.93 279.87 311.58 286.01 308.01 307.4 320.36"/></g><g class="cls-2"><polygon class="cls-122" points="331.59 334.33 331.59 336.7 325.45 340.26 325.46 337.9 331.59 334.33"/><polygon class="cls-123" points="325.46 337.9 325.45 340.26 304.06 327.92 304.07 325.55 325.46 337.9"/><polygon class="cls-124" points="331.59 334.33 325.46 337.9 304.07 325.55 310.2 321.98 331.59 334.33"/></g><g class="cls-2"><polygon class="cls-125" points="126.91 229.03 126.9 231.4 120.77 234.97 120.77 232.6 126.91 229.03"/><polygon class="cls-126" points="120.77 232.6 120.77 234.97 99.37 222.61 99.37 220.25 120.77 232.6"/><polygon class="cls-127" points="126.91 229.03 120.77 232.6 99.37 220.25 105.51 216.68 126.91 229.03"/></g><g class="cls-2"><polygon class="cls-128" points="151.1 243 151.1 245.37 144.96 248.94 144.97 246.57 151.1 243"/><polygon class="cls-129" points="144.97 246.57 144.96 248.94 123.56 236.58 123.57 234.22 144.97 246.57"/><polygon class="cls-130" points="151.1 243 144.97 246.57 123.57 234.22 129.71 230.65 151.1 243"/></g><g class="cls-2"><polygon class="cls-131" points="272.09 312.85 272.08 315.22 265.94 318.78 265.95 316.42 272.09 312.85"/><polygon class="cls-132" points="265.95 316.42 265.94 318.78 147.76 250.55 147.76 248.19 265.95 316.42"/><polygon class="cls-133" points="272.09 312.85 265.95 316.42 147.76 248.19 153.9 244.62 272.09 312.85"/></g><g class="cls-2"><polygon class="cls-134" points="296.28 326.82 296.28 329.19 290.14 332.75 290.15 330.39 296.28 326.82"/><polygon class="cls-135" points="290.15 330.39 290.14 332.75 268.75 320.4 268.76 318.04 290.15 330.39"/><polygon class="cls-136" points="296.28 326.82 290.15 330.39 268.76 318.04 274.89 314.47 296.28 326.82"/></g><g class="cls-2"><polygon class="cls-137" points="320.48 340.79 320.47 343.16 314.34 346.72 314.34 344.36 320.48 340.79"/><polygon class="cls-138" points="314.34 344.36 314.34 346.72 292.95 334.37 292.95 332.01 314.34 344.36"/><polygon class="cls-139" points="320.48 340.79 314.34 344.36 292.95 332.01 299.09 328.44 320.48 340.79"/></g><g class="cls-2"><polygon class="cls-140" points="236.97 315.85 236.96 318.22 195.61 342.24 195.62 339.88 236.97 315.85"/><polygon class="cls-141" points="236.97 315.85 195.62 339.88 115.04 293.36 156.38 269.33 236.97 315.85"/></g><g class="cls-2"><path class="cls-142" d="M372.71,243.16l0-.67c0-.1,0-.2,0-.3a.57.57,0,0,1,0-.13,1.94,1.94,0,0,1,0-.24c0-.22-.05-.45-.08-.67s-.06-.46-.1-.7h0v0c0-.22-.07-.43-.11-.65s-.09-.48-.14-.72l-.06-.26c0-.05,0-.1,0-.15s0-.21-.07-.32-.13-.48-.2-.73-.1-.35-.15-.53l0-.1,0-.1c-.07-.23-.15-.47-.23-.71l-.24-.7c0-.05,0-.09-.05-.13s0-.07,0-.11-.11-.29-.17-.44-.17-.45-.26-.67l-.21-.48,0-.08a.69.69,0,0,0,0-.1l-.3-.66c-.11-.25-.23-.49-.35-.73l-.06-.11c0-.05-.05-.09-.07-.14l-.3-.58-.4-.71-.2-.36s0-.09-.08-.14-.25-.4-.38-.6-.36-.6-.56-.89l-.08-.14c-.28-.42-.57-.83-.87-1.24h0c-.2-.28-.4-.55-.61-.81l-.51-.63,0,0h0c-.18-.21-.35-.42-.53-.62l-.54-.6-.09-.09a.94.94,0,0,0-.1-.1l-.38-.4-.58-.57-.18-.17L363,223l-.28-.27-.62-.53-.27-.22-.14-.12-.2-.16-.61-.46-.44-.32-.08-.06-.08-.05-.58-.39-.59-.36L359,220l-50.44-29.12-.44-.24-.57-.29-.36-.18-.09,0L307,190l-.55-.23c-.18-.08-.37-.15-.55-.21l-.1,0-.08,0c-.13,0-.25-.09-.38-.12l-.57-.16-.27-.06-.12,0-.17,0-.61-.1-.36,0-.13,0H303l-.65,0h-.71c-.28,0-.54.07-.8.12h0l-.17.05a6.94,6.94,0,0,0-.78.22l-.06,0a7.32,7.32,0,0,0-1.06.49l-8.18,4.75a7.85,7.85,0,0,1,1.06-.49q.41-.13.84-.24l.17,0a6.9,6.9,0,0,1,1-.13h.22a7.25,7.25,0,0,1,1,0H295a9.45,9.45,0,0,1,1.15.18l.11,0a11.76,11.76,0,0,1,1.22.34l.08,0c.43.15.87.32,1.31.52l.09,0c.45.21.91.44,1.37.71l50.44,29.12q.7.41,1.38.87l.08.06c.43.3.84.61,1.25.95l.14.11c.4.32.79.67,1.17,1l.14.13c.39.37.77.75,1.15,1.14l.09.1q.6.65,1.17,1.32v0c.39.47.76.95,1.13,1.44h0q.5.68,1,1.38c.19.29.37.59.55.89s.32.49.46.75c.07.11.14.24.21.36.24.42.47.85.69,1.28,0,.05.05.1.07.14.27.53.52,1.06.76,1.6l0,.08c.23.53.44,1.06.64,1.59a.76.76,0,0,1,0,.11c.2.55.39,1.09.55,1.64l0,.1c.16.53.3,1.06.42,1.58a.94.94,0,0,1,0,.16c.12.54.23,1.08.32,1.62v0c.09.54.15,1.08.2,1.62a.57.57,0,0,0,0,.13c0,.54.06,1.07.06,1.6s0,1-.07,1.51c0,0,0,.09,0,.13,0,.45-.11.88-.19,1.29l0,.16c-.09.4-.19.78-.3,1.15,0,.07-.05.14-.07.2a9.68,9.68,0,0,1-.38,1,1.17,1.17,0,0,0-.05.11,9.54,9.54,0,0,1-.55,1l-.09.12a7.27,7.27,0,0,1-.53.71l-.21.23c-.17.18-.34.34-.52.5l-.22.19a7.19,7.19,0,0,1-.8.56l8.17-4.75a7.62,7.62,0,0,0,.8-.56l.23-.19c.18-.16.35-.33.51-.5l.22-.24a7.71,7.71,0,0,0,.53-.71l.09-.11s0,0,0,0a7.09,7.09,0,0,0,.52-.94l0,0a1.17,1.17,0,0,0,.05-.11c.09-.2.18-.42.27-.64s.07-.23.11-.34.05-.13.07-.2l.06-.18c.06-.23.13-.47.18-.71a2,2,0,0,0,.05-.26s0-.11,0-.16a1.84,1.84,0,0,1,.05-.25c0-.22.07-.44.09-.66s0-.26,0-.38,0-.09,0-.13,0-.1,0-.16,0-.43,0-.65,0-.44,0-.67v0C372.72,243.58,372.72,243.37,372.71,243.16Z"/><path class="cls-143" d="M350.79,224.72c7.62,4.4,13.78,15.06,13.75,23.82s-6.22,12.29-13.84,7.89L300.26,227.3c-7.62-4.4-13.78-15.06-13.75-23.82s6.22-12.28,13.84-7.88Z"/><path class="cls-144" d="M347.51,224.88c6.64,3.83,12,13.11,12,20.74s-5.41,10.69-12.05,6.86l-43.89-25.34c-6.64-3.83-12-13.11-12-20.73s5.41-10.7,12.05-6.87Z"/></g><path class="cls-145" d="M298.21,210.67a4.58,4.58,0,0,1,1.54,3.27c0,1.67-1.17,2-3.37.7L292,212.13l0-9.67,4.11,2.37c2.1,1.22,3.18,2.85,3.18,4.35C299.33,210.15,298.9,210.65,298.21,210.67Zm-2,2.2c1,.58,1.55.53,1.55-.3a2.52,2.52,0,0,0-1.55-2.08L294,209.17v2.39l2.28,1.31M294,205.26v2.28l1.92,1.11c1,.55,1.48.47,1.48-.29a2.4,2.4,0,0,0-1.47-2L294,205.26"/><path class="cls-146" d="M308.79,212.13v5.41c0,2.84-1.43,3.6-3.82,2.22a7.43,7.43,0,0,1-3.8-6.62v-5.41l1.95,1.12v5.33a3.86,3.86,0,0,0,1.86,3.68c1.19.69,1.88.32,1.89-1.52V211Z"/><polygon class="cls-147" points="317.91 217.39 314.62 221.74 314.61 225.17 312.66 224.04 312.67 220.58 309.43 212.5 311.5 213.69 313.74 219.28 316 216.29 317.91 217.39"/><polygon class="cls-148" points="329.85 224.28 329.82 233.95 328.21 233.02 324.04 224.73 324.02 230.6 322.1 229.49 322.13 219.83 323.74 220.76 327.91 229.04 327.93 223.17 329.85 224.28"/><path class="cls-149" d="M335.92,227.62a9.47,9.47,0,0,1,4.59,7.65c0,2.9-2,3.88-4.62,2.35A9.5,9.5,0,0,1,331.3,230C331.31,227.09,333.26,226.09,335.92,227.62Zm0,8.09c1.51.87,2.64.26,2.64-1.58a5.54,5.54,0,0,0-2.62-4.6c-1.5-.87-2.63-.26-2.63,1.57a5.58,5.58,0,0,0,2.61,4.61"/><polygon class="cls-150" points="354.43 238.47 351.65 246.55 349.56 245.34 347.73 237.73 345.8 243.17 343.72 241.98 340.98 230.71 343 231.88 344.88 239.76 346.88 234.12 348.68 235.16 350.58 243.12 352.57 237.4 354.43 238.47"/><polygon class="cls-151" points="375.01 204.91 374.99 211.68 310.99 174.72 311.01 167.96 375.01 204.91"/><polygon class="cls-151" points="375.01 192.8 374.99 199.56 310.99 162.61 311.01 155.85 375.01 192.8"/><polygon class="cls-151" points="375.01 180.68 374.99 187.45 310.99 150.5 311.01 143.73 375.01 180.68"/><g class="cls-2"><polygon class="cls-152" points="371.01 207.91 372.72 206.91 372.7 213.68 370.99 214.68 371.01 207.91"/><polygon class="cls-153" points="307.01 170.96 308.72 169.96 372.72 206.91 371.01 207.91 307.01 170.96"/><polygon class="cls-154" points="371.01 207.91 370.99 214.68 306.99 177.72 307.01 170.96 371.01 207.91"/></g><g class="cls-2"><polygon class="cls-155" points="371.01 195.8 372.72 194.8 372.7 201.57 370.99 202.56 371.01 195.8"/><polygon class="cls-156" points="307.01 158.85 308.72 157.85 372.72 194.8 371.01 195.8 307.01 158.85"/><polygon class="cls-157" points="371.01 195.8 370.99 202.56 306.99 165.61 307.01 158.85 371.01 195.8"/></g><g class="cls-2"><polygon class="cls-158" points="371.01 183.68 372.72 182.69 372.7 189.46 370.99 190.45 371.01 183.68"/><polygon class="cls-159" points="307.01 146.73 308.72 145.74 372.72 182.69 371.01 183.68 307.01 146.73"/><polygon class="cls-160" points="371.01 183.68 370.99 190.45 306.99 153.5 307.01 146.73 371.01 183.68"/></g><g class="cls-2"><path class="cls-161" d="M320.65,138.07a1.7,1.7,0,0,0,0-.22c0-.07,0-.14,0-.21l0-.22,0-.22h0a1.77,1.77,0,0,0,0-.2c0-.08,0-.16,0-.23l-.06-.23-.06-.24a1.05,1.05,0,0,1-.05-.19h0v0c0-.08-.05-.16-.07-.23l-.08-.23c0-.07,0-.15-.08-.22l-.09-.21c0-.06-.05-.11-.07-.17h0v0a2,2,0,0,0-.1-.21,2.56,2.56,0,0,0-.11-.24l-.14-.26a2.54,2.54,0,0,0-.16-.28l0,0,0-.06a5.84,5.84,0,0,0-.33-.53l-.27-.39h0c-.07-.09-.13-.18-.2-.26l-.17-.21c-.06-.07-.11-.14-.17-.2l-.17-.19,0,0h0a.93.93,0,0,0-.14-.14l-.18-.19-.2-.18-.19-.17-.1-.08,0,0-.08-.06-.19-.15-.2-.14-.18-.12-.19-.12,0,0-.14-.08-.19-.09-.18-.09-.17-.07-.18-.07h-.05l-.13,0-.18-.05-.19,0-.19,0-.13,0H314l-.26,0h0l-.29.08a2,2,0,0,0-.36.17l-1,.59a2.41,2.41,0,0,1,.65-.24h0a2.65,2.65,0,0,1,.75,0h0a3.28,3.28,0,0,1,.82.18h0a5.4,5.4,0,0,1,.89.41,7.39,7.39,0,0,1,.89.61l0,0a9.6,9.6,0,0,1,.81.76v0a8.13,8.13,0,0,1,.75.9h0a9.16,9.16,0,0,1,.64,1l0,0a9.93,9.93,0,0,1,.52,1h0c.15.36.29.73.4,1.09v0a8.61,8.61,0,0,1,.26,1.09h0a6.53,6.53,0,0,1,.09,1.07,5.66,5.66,0,0,1-.1,1v0a3.66,3.66,0,0,1-.25.79h0a2.63,2.63,0,0,1-.33.51l-.12.16a2.68,2.68,0,0,1-.49.4l1-.6a2,2,0,0,0,.49-.4l.12-.15a1,1,0,0,0,.16-.2,2.91,2.91,0,0,0,.17-.3v0h0l.1-.22c0-.08,0-.16.07-.24l.06-.22a.44.44,0,0,0,0-.1v0a.29.29,0,0,1,0-.09l0-.21c0-.07,0-.14,0-.22a1.34,1.34,0,0,0,0-.21,1.48,1.48,0,0,0,0-.21h0A1.27,1.27,0,0,0,320.65,138.07Z"/><path class="cls-162" d="M315.21,131.2a9.78,9.78,0,0,1,4.43,7.66c0,2.82-2,3.95-4.45,2.54a9.75,9.75,0,0,1-4.43-7.66C310.77,130.93,312.76,129.79,315.21,131.2Z"/></g><g class="cls-2"><path class="cls-163" d="M335.42,146.43a1.48,1.48,0,0,1,0-.21c0-.07,0-.14,0-.22l0-.21a1.46,1.46,0,0,0,0-.22h0a1.55,1.55,0,0,0,0-.21c0-.07,0-.15,0-.23l-.06-.23-.06-.24c0-.06,0-.12-.05-.18v-.05c0-.08-.05-.15-.07-.23s-.05-.15-.08-.23l-.08-.21-.09-.22-.07-.16v-.05a2.14,2.14,0,0,0-.1-.22,2.4,2.4,0,0,0-.11-.23l-.14-.27c-.05-.09-.1-.19-.16-.28l0-.05,0-.06c-.1-.18-.21-.35-.33-.53l-.27-.39h0l-.2-.26-.17-.21c-.05-.07-.11-.13-.17-.2l-.17-.19,0,0,0,0-.13-.14-.19-.18-.2-.19-.19-.17-.1-.08h0l-.08-.07-.19-.15-.2-.13-.18-.13L331,139l0,0-.14-.07-.19-.1-.18-.08-.17-.08-.18-.07h-.05l-.13,0-.18-.05-.18-.05-.2,0h-.63a2.06,2.06,0,0,0-.26,0h0l-.29.08a2,2,0,0,0-.36.17l-1,.59a2.14,2.14,0,0,1,.65-.25h0a2.66,2.66,0,0,1,.75,0h0a4.51,4.51,0,0,1,.82.18h0a4.68,4.68,0,0,1,.89.41,6.39,6.39,0,0,1,.89.61l0,0a8.21,8.21,0,0,1,.81.76h0a8.13,8.13,0,0,1,.75.9h0c.23.32.45.65.64,1l0,.05a10.09,10.09,0,0,1,.52,1h0a11,11,0,0,1,.4,1.09h0a9,9,0,0,1,.26,1.09h0a6.74,6.74,0,0,1,.09,1.08,6.81,6.81,0,0,1-.09,1v0a3.4,3.4,0,0,1-.25.78h0a2.71,2.71,0,0,1-.33.52l-.12.15a2,2,0,0,1-.49.4l1-.59a2.68,2.68,0,0,0,.49-.4l.12-.16a1,1,0,0,0,.16-.19,3.07,3.07,0,0,0,.17-.31h0c0-.08.07-.15.1-.23s.05-.15.07-.23a1,1,0,0,0,.06-.23.3.3,0,0,0,0-.1v0a.44.44,0,0,1,0-.1l0-.21c0-.07,0-.14,0-.21a1.48,1.48,0,0,0,0-.21,1.55,1.55,0,0,0,0-.22h0Z"/><path class="cls-164" d="M330,139.57a9.78,9.78,0,0,1,4.43,7.66c0,2.82-2,3.94-4.45,2.53a9.75,9.75,0,0,1-4.43-7.66C325.53,139.3,327.52,138.15,330,139.57Z"/></g><g class="cls-2"><path class="cls-165" d="M350.18,154.8a1.55,1.55,0,0,1,0-.22c0-.07,0-.14,0-.21l0-.22a.89.89,0,0,0,0-.22h0a1.77,1.77,0,0,0,0-.2c0-.08,0-.16,0-.23l-.06-.24-.06-.23c0-.06,0-.13-.05-.19h0v0a1.87,1.87,0,0,0-.07-.22c0-.08-.05-.16-.08-.23s-.05-.15-.08-.22l-.09-.21a.87.87,0,0,0-.07-.17v-.05a2,2,0,0,0-.1-.21,2.56,2.56,0,0,0-.11-.24,2.15,2.15,0,0,0-.14-.26l-.16-.29,0,0a.1.1,0,0,1,0-.05,5.84,5.84,0,0,0-.33-.53q-.13-.21-.27-.39h0a2.56,2.56,0,0,0-.2-.26l-.17-.21a1.63,1.63,0,0,0-.17-.2l-.17-.19,0,0h0l-.13-.15-.19-.18-.2-.18-.19-.17-.1-.08,0,0-.08-.06-.19-.15-.2-.14-.18-.12-.19-.12,0,0-.14-.08-.19-.09-.17-.09-.18-.07-.18-.07h0l-.13,0-.18,0-.18,0-.2,0-.13,0h-.5l-.26,0h0l-.29.08a2.92,2.92,0,0,0-.36.17l-1,.59a2.41,2.41,0,0,1,.65-.24h0a2.67,2.67,0,0,1,.75,0h0a3.28,3.28,0,0,1,.82.18h0a5.89,5.89,0,0,1,.9.41,8.17,8.17,0,0,1,.88.61l0,0a9.6,9.6,0,0,1,.81.76v0a9.05,9.05,0,0,1,.75.89h0a9.16,9.16,0,0,1,.64,1l0,.05a9.93,9.93,0,0,1,.52,1h0a9.58,9.58,0,0,1,.4,1.09v0a8.61,8.61,0,0,1,.26,1.09h0a6.74,6.74,0,0,1,.09,1.08,5.69,5.69,0,0,1-.09,1v0a3.66,3.66,0,0,1-.25.79h0a2.63,2.63,0,0,1-.33.51l-.12.16a2.27,2.27,0,0,1-.49.39l1-.59a2.22,2.22,0,0,0,.48-.4l.12-.15a1.4,1.4,0,0,0,.16-.2,2.91,2.91,0,0,0,.17-.3v0h0a2.14,2.14,0,0,0,.1-.22,2.17,2.17,0,0,0,.07-.24.9.9,0,0,0,.06-.22.44.44,0,0,0,0-.1v0a.29.29,0,0,1,0-.09l0-.21c0-.07,0-.14,0-.22a1.48,1.48,0,0,0,0-.21,1.48,1.48,0,0,0,0-.21h0Z"/><path class="cls-166" d="M344.74,147.93a9.8,9.8,0,0,1,4.42,7.66c0,2.82-2,3.95-4.45,2.54a9.72,9.72,0,0,1-4.42-7.66C340.29,147.66,342.28,146.52,344.74,147.93Z"/></g><g class="cls-2"><path class="cls-167" d="M364.94,163.16a1.48,1.48,0,0,1,0-.21c0-.07,0-.14,0-.22a1.49,1.49,0,0,1,0-.21,1.43,1.43,0,0,0,0-.22h0l0-.21c0-.07,0-.15-.05-.23l-.06-.23-.06-.24a1.21,1.21,0,0,0,0-.18v-.05a2,2,0,0,0-.07-.23,2.09,2.09,0,0,0-.08-.23,1.8,1.8,0,0,0-.08-.21l-.09-.22a1.22,1.22,0,0,0-.07-.17h0l0,0a2.14,2.14,0,0,0-.1-.22,2.4,2.4,0,0,0-.11-.23c0-.09-.09-.18-.14-.27s-.1-.19-.16-.28l0,0,0-.06a5.84,5.84,0,0,0-.33-.53L363,158h0c-.06-.09-.13-.17-.2-.26l-.17-.21c-.05-.07-.11-.13-.17-.2l-.17-.19,0,0,0,0-.13-.14a1.7,1.7,0,0,1-.19-.19l-.19-.18-.2-.17-.1-.08,0,0-.08-.06-.19-.15-.19-.13-.19-.13-.19-.11,0,0-.14-.08-.18-.09-.18-.08-.18-.08-.18-.07h-.05l-.13,0-.18-.05-.18,0-.2,0h-.63a2.3,2.3,0,0,0-.26,0h0a1.47,1.47,0,0,0-.3.08,2.83,2.83,0,0,0-.36.16l-1,.6a2.14,2.14,0,0,1,.65-.25h0a2.66,2.66,0,0,1,.75,0h0a4.51,4.51,0,0,1,.82.18h0a4.44,4.44,0,0,1,.9.41,7,7,0,0,1,.88.61l0,0a8.21,8.21,0,0,1,.81.76h0a9.32,9.32,0,0,1,.74.9h0a10.29,10.29,0,0,1,.64,1l0,0a11,11,0,0,1,.52,1v0a8.93,8.93,0,0,1,.4,1.09h0a9,9,0,0,1,.25,1.09h0a6.56,6.56,0,0,1,.09,1.08,5.57,5.57,0,0,1-.09.95v0a3.4,3.4,0,0,1-.25.78h0a2.75,2.75,0,0,1-.34.52l-.12.15a2,2,0,0,1-.49.4l1-.59a2.62,2.62,0,0,0,.48-.4l.12-.16a.78.78,0,0,0,.16-.2,2.14,2.14,0,0,0,.17-.3h0a2.29,2.29,0,0,0,.1-.23l.08-.23a1.89,1.89,0,0,0,.05-.23.3.3,0,0,0,0-.1v0s0-.06,0-.1l0-.21a1.49,1.49,0,0,0,0-.21,1.48,1.48,0,0,0,0-.21,1.55,1.55,0,0,0,0-.22h0Z"/><path class="cls-168" d="M359.5,156.3a9.77,9.77,0,0,1,4.42,7.66c0,2.81-2,3.94-4.45,2.53a9.72,9.72,0,0,1-4.42-7.66C355.05,156,357,154.88,359.5,156.3Z"/></g><path class="cls-169" d="M259.88,224.39a41.09,41.09,0,0,1-4.22,3.36l-73.9,43.76,20.09-40.16,9.82-35.1Z"/><path class="cls-170" d="M274.43,99.18s0,76.7,0,96.42c0,13.68-9,23.83-14.53,28.79l-48.21-28.14,17-60.75Z"/><g class="cls-2"><polygon class="cls-171" points="181.77 271.51 114.31 232.31 114.56 229.8 182.02 269.01 181.77 271.51"/><g class="cls-2"><g class="cls-172"><path class="cls-173" d="M207,57.6a52.07,52.07,0,0,0-9.57,7.75c-1.58,1.56-3.23,3.31-4.91,5.24-1.25,1.43-2.51,3-3.78,4.6q-1.59,2-3.16,4.28-1.38,2-2.72,4.06-1.22,1.91-2.4,3.92t-2.17,3.9c-.68,1.27-1.35,2.58-2,3.92s-1.25,2.65-1.84,4-1.17,2.77-1.72,4.19-1.11,3-1.63,4.55-1.08,3.37-1.56,5.11c-.54,2-1,4-1.48,6-.54,2.58-1,5.22-1.35,7.92a97,97,0,0,0-.82,13,96,96,0,0,1-.8,12.54c-.35,2.76-.82,5.43-1.37,8-.44,2.06-.94,4.08-1.49,6-.48,1.75-1,3.46-1.56,5.13s-1.09,3.14-1.67,4.64-1.17,2.94-1.78,4.34-1.26,2.83-1.91,4.18-1.37,2.77-2.07,4.08-1.51,2.77-2.26,4.05c-.64,1.1-1.28,2.16-1.91,3.16l-.57.91q-1.38,2.15-2.83,4.22-1.6,2.28-3.29,4.46-2,2.53-4,4.89c-1.73,2-3.5,3.88-5.29,5.65a72.21,72.21,0,0,1-14.21,11.17,41.8,41.8,0,0,1-4.27,2.16L182,269a40.93,40.93,0,0,0,4.27-2.17,71.56,71.56,0,0,0,14.21-11.16q2.69-2.66,5.3-5.66c1.36-1.56,2.7-3.2,4-4.88q1.69-2.17,3.3-4.46c1-1.38,1.91-2.79,2.82-4.22l.58-.91c.63-1,1.27-2.06,1.91-3.16q1.13-1.94,2.26-4c.69-1.31,1.39-2.67,2.07-4.09s1.28-2.73,1.91-4.17,1.2-2.85,1.77-4.34,1.14-3.06,1.67-4.64,1.08-3.38,1.57-5.14c.54-2,1-4,1.48-6,.56-2.59,1-5.27,1.38-8a96.3,96.3,0,0,0,.79-12.55,100.38,100.38,0,0,1,.82-13q.54-4.06,1.36-7.93.66-3.07,1.48-6,.72-2.59,1.56-5.1c.51-1.54,1.06-3.06,1.63-4.55s1.12-2.82,1.71-4.19,1.21-2.71,1.84-4,1.31-2.65,2-3.93,1.44-2.63,2.17-3.89,1.59-2.65,2.4-3.92,1.81-2.76,2.72-4.06q1.57-2.24,3.17-4.28c1.26-1.64,2.53-3.17,3.78-4.61,1.68-1.93,3.32-3.67,4.9-5.23a51.73,51.73,0,0,1,9.58-7.75Z"/></g></g><path class="cls-174" d="M274.42,96.81v2.37c-10.47,6-39.18,36-39.05,79,.07,25-9.48,45.56-17.51,58.37-9,14.34-20.73,26.42-31.58,32.69a44.44,44.44,0,0,1-4.51,2.28L182,269a40.93,40.93,0,0,0,4.27-2.17c10.36-6,21.59-17.53,30.21-31.29,7.71-12.31,16.88-32,16.81-56.2C233.18,134.56,263.4,103.17,274.42,96.81Z"/></g><path class="cls-175" d="M255.19,105.1,199.48,72.73l-2,2.33,55.7,32.37,2-2.33"/><path class="cls-175" d="M237.59,104.73,194,79.38l-2.06,2.79,43.62,25.35,2.06-2.79"/><path class="cls-175" d="M241.46,118.07l-53-30.79-2,3.23,53,30.79,2-3.23"/><path class="cls-175" d="M239,128.71,183.3,96.34,181.51,100l55.71,32.37,1.78-3.64"/><path class="cls-175" d="M233.24,138.15l-54.5-31.67-1.49,4,54.5,31.67,1.49-4"/><path class="cls-175" d="M226.61,147.6l-51.53-29.95-1.06,4.4L225.55,152l1.06-4.39"/><path class="cls-175" d="M228.35,162.15l-55.7-32.37-.54,4.73,55.71,32.38.53-4.74"/><path class="cls-175" d="M216.28,168.69,171.73,142.8c0,1.31,0,3.07-.06,4.39l44.55,25.89c0-1.32.06-3.07.06-4.39"/><path class="cls-175" d="M226.86,186.58l-55.7-32.37c-.16,1.21-.35,2.83-.53,4l55.71,32.37c.16-1.2.39-2.82.52-4"/><path class="cls-175" d="M223.36,196.14l-53.94-31.36c-.27,1.12-.61,2.61-.9,3.72l53.95,31.35c.27-1.11.64-2.6.89-3.71"/><path class="cls-175" d="M222.46,206.9l-55.7-32.37c-.35,1-.8,2.38-1.16,3.39l55.7,32.37c.35-1,.83-2.37,1.16-3.39"/><path class="cls-175" d="M209.17,209.92l-45.71-26.56c-.4.91-.93,2.13-1.34,3L207.83,213c.41-.91.95-2.13,1.34-3.05"/><path class="cls-175" d="M212.27,221.72l-52.49-30.5c-.43.8-1,1.87-1.42,2.66l52.49,30.51c.43-.8,1-1.86,1.42-2.67"/><path class="cls-175" d="M177.41,213.6l-22.85-13.28a114.82,114.82,0,0,1-13.85,17.75l22.85,13.28a113.67,113.67,0,0,0,13.85-17.75"/><path class="cls-176" d="M369.13,272.76a7.48,7.48,0,0,1,3.41,5.91c0,2.17-1.54,3.05-3.43,1.95L290.78,235.4a7.51,7.51,0,0,1-3.4-5.9c0-2.17,1.54-3.05,3.43-2Z"/><path class="cls-177" d="M359.62,294.54l-9-5.19-9.48-5.47h0l-38.82-22.42a9.72,9.72,0,0,0-8.82,0L186.18,323.84c-2.42,1.41-2.41,3.69,0,5.11L225,351.36h0l9.48,5.47,9,5.19a9.74,9.74,0,0,0,8.8,0l107.35-62.38C362.07,298.23,362.05,295.94,359.62,294.54Zm-148,35a0,0,0,0,1,0,0h0a0,0,0,0,0,0,0Zm.18-.36h0s0,0,0,0S211.82,329.21,211.81,329.22Z"/><g class="cls-2"><g class="cls-2"><g class="cls-178"><g class="cls-2"><path class="cls-179" d="M301.41,253.35v3.55c0-1.32-.87-2.65-2.63-3.67a9.59,9.59,0,0,0-1.29-.61v-3.55a8.54,8.54,0,0,1,1.29.62c1.76,1,2.63,2.34,2.63,3.66"/><path class="cls-180" d="M297.49,249.07v3.55a11.2,11.2,0,0,0-1.07-.37v-3.54a9,9,0,0,1,1.07.36"/><path class="cls-181" d="M296.42,248.71v3.54c-.31-.08-.62-.16-.93-.22v-3.55c.31.06.62.14.93.23"/><path class="cls-182" d="M295.49,248.48V252l-.88-.16v-3.54c.3,0,.59.09.88.15"/><path class="cls-183" d="M294.61,248.33v3.54c-.28,0-.57-.07-.86-.09v-3.55c.29,0,.58.06.86.1"/><path class="cls-184" d="M293.75,248.23v3.55c-.29,0-.58,0-.87-.05v-3.55l.87,0"/><path class="cls-185" d="M292.88,248.18v3.55H292v-3.54h.91"/><path class="cls-186" d="M292,248.19v3.54l-1,.07v-3.55c.32,0,.65-.05,1-.06"/><path class="cls-187" d="M291,248.25v3.55c-.39,0-.76.09-1.13.16v-3.55c.37-.07.74-.12,1.13-.16"/><path class="cls-188" d="M289.86,248.41V252a11.15,11.15,0,0,0-1.68.42v-3.55a12.5,12.5,0,0,1,1.68-.42"/><path class="cls-189" d="M288.18,248.83v3.55a9.82,9.82,0,0,0-1.95.85l-.13.08v-3.55l.13-.07a9.85,9.85,0,0,1,1.95-.86"/><path class="cls-188" d="M286.1,249.76v3.55a6.14,6.14,0,0,0-1.11.82v-3.55a6.66,6.66,0,0,1,1.11-.82"/><path class="cls-187" d="M285,250.58v3.55a5.89,5.89,0,0,0-.54.59v-3.55a5.89,5.89,0,0,1,.54-.59"/><path class="cls-186" d="M284.45,251.17v3.55a3.38,3.38,0,0,0-.35.52v-3.55a4,4,0,0,1,.35-.52"/><path class="cls-185" d="M284.1,251.69v3.55a2.93,2.93,0,0,0-.24.51V252.2a2.93,2.93,0,0,1,.24-.51"/><path class="cls-184" d="M283.86,252.2v3.55a3.28,3.28,0,0,0-.15.51v-3.55a3.28,3.28,0,0,1,.15-.51"/><path class="cls-183" d="M283.71,252.71v3.55c0,.12,0,.24-.05.36v-3.54c0-.12,0-.25,0-.37"/></g></g></g><g class="cls-2"><g class="cls-190"><g class="cls-2"><path class="cls-185" d="M283.66,253.08v3.54h-.1v-3.55h.1"/><path class="cls-186" d="M283.56,253.08v3.55c-.33,0-.67,0-1,.06v-3.54c.33,0,.67-.06,1-.07"/><path class="cls-187" d="M282.56,253.15v3.54c-.38,0-.76.09-1.14.16V253.3c.38-.06.76-.12,1.14-.15"/><path class="cls-188" d="M281.42,253.3v3.55a12.68,12.68,0,0,0-1.64.41v-3.55a14.56,14.56,0,0,1,1.64-.41"/><path class="cls-189" d="M279.78,253.71v3.55a9.19,9.19,0,0,0-1.94.85v-3.55a9.73,9.73,0,0,1,1.94-.85"/></g></g></g><g class="cls-2"><g class="cls-191"><g class="cls-2"><path class="cls-192" d="M283.66,253.08v3.54a1.21,1.21,0,0,0,0,.19v-3.55a1.09,1.09,0,0,1,0-.18"/><path class="cls-193" d="M283.65,253.26v0"/></g></g></g><g class="cls-2"><g class="cls-194"><g class="cls-2"><path class="cls-189" d="M277.84,254.56v3.55l-.11.06v-3.54l.11-.07"/><path class="cls-188" d="M277.73,254.63v3.54a7.66,7.66,0,0,0-1.14.84v-3.54a6.47,6.47,0,0,1,1.14-.84"/><path class="cls-187" d="M276.59,255.47V259a5.14,5.14,0,0,0-.55.6v-3.55a6,6,0,0,1,.55-.59"/><path class="cls-186" d="M276,256.06v3.55a4.5,4.5,0,0,0-.36.53v-3.55a4.5,4.5,0,0,1,.36-.53"/><path class="cls-185" d="M275.68,256.59v3.55a3.22,3.22,0,0,0-.23.5v-3.55a3.71,3.71,0,0,1,.23-.5"/><path class="cls-184" d="M275.45,257.09v3.55a4.74,4.74,0,0,0-.15.5v-3.55c0-.16.09-.33.15-.5"/><path class="cls-183" d="M275.3,257.59v3.55a2.94,2.94,0,0,0-.05.51V258.1a2.94,2.94,0,0,1,.05-.51"/><path class="cls-182" d="M275.25,258.1v3.55s0,.05,0,.08v-3.55s0-.05,0-.08"/></g></g></g><g class="cls-2"><g class="cls-195"><g class="cls-2"><path class="cls-196" d="M293,258.24v3.54c0-1.33-.86-2.66-2.62-3.67a9.62,9.62,0,0,0-1.29-.62V254a9.59,9.59,0,0,1,1.29.61c1.76,1,2.63,2.35,2.62,3.68"/><path class="cls-197" d="M289.1,254v3.54c-.34-.13-.7-.25-1.06-.36v-3.54a9.44,9.44,0,0,1,1.06.36"/><path class="cls-198" d="M288,253.59v3.54c-.3-.08-.61-.16-.93-.22v-3.55c.32.07.63.14.93.23"/><path class="cls-199" d="M287.11,253.36v3.55c-.28-.06-.57-.11-.86-.15v-3.55c.29,0,.58.09.86.15"/><path class="cls-200" d="M286.25,253.21v3.55l-.85-.1v-3.54c.29,0,.57,0,.85.09"/><path class="cls-201" d="M285.4,253.12v3.54l-.84,0v-3.55c.28,0,.56,0,.84.05"/><path class="cls-202" d="M284.56,253.07v3.55h-.88v-3.54c.29,0,.59,0,.88,0"/><path class="cls-203" d="M283.68,253.08v3.54h0v-3.54h0"/></g></g></g><g class="cls-2"><g class="cls-204"><g class="cls-2"><path class="cls-199" d="M301.41,253.35v0"/><path class="cls-200" d="M301.41,253.43V257a4.43,4.43,0,0,1-.06.51v-3.55a4.43,4.43,0,0,0,.06-.51"/><path class="cls-201" d="M301.35,253.94v3.55a3.43,3.43,0,0,1-.14.5v-3.55a3.12,3.12,0,0,0,.14-.5"/><path class="cls-202" d="M301.21,254.44V258c-.07.17-.15.33-.24.5v-3.55a3.27,3.27,0,0,0,.24-.5"/><path class="cls-203" d="M301,254.94v3.55a3.54,3.54,0,0,1-.36.53v-3.55a3.54,3.54,0,0,0,.36-.53"/><path class="cls-205" d="M300.61,255.47V259a5,5,0,0,1-.55.59v-3.55a5,5,0,0,0,.55-.59"/><path class="cls-206" d="M300.06,256.06v3.55a6.68,6.68,0,0,1-1.12.84V256.9a6.29,6.29,0,0,0,1.12-.84"/><path class="cls-207" d="M298.94,256.9v3.55l-.11.06a10,10,0,0,1-2,.88v-3.55a10,10,0,0,0,2-.88l.11-.06"/><path class="cls-206" d="M296.83,257.84v3.55a12.27,12.27,0,0,1-1.64.4v-3.54a14,14,0,0,0,1.64-.41"/><path class="cls-205" d="M295.19,258.25v3.54c-.37.07-.74.12-1.13.16V258.4c.39,0,.76-.09,1.13-.15"/><path class="cls-203" d="M294.06,258.4V262l-1,.07v-3.55c.33,0,.66,0,1-.07"/><path class="cls-202" d="M293.07,258.47V262H293v-3.55h.07"/></g></g></g><g class="cls-2"><g class="cls-208"><g class="cls-2"><path class="cls-209" d="M293,258.47V262h-.8v-3.55h.8"/><path class="cls-210" d="M292.2,258.47V262l-.89,0v-3.55c.3,0,.59,0,.89.05"/><path class="cls-211" d="M291.31,258.42V262c-.29,0-.58-.06-.87-.1v-3.54l.87.09"/><path class="cls-212" d="M290.44,258.33v3.54c-.3,0-.59-.09-.88-.15v-3.55l.88.16"/><path class="cls-213" d="M289.56,258.17v3.55c-.32-.07-.63-.14-.94-.23v-3.55c.31.09.62.17.94.23"/><path class="cls-214" d="M288.62,257.94v3.55c-.37-.1-.72-.23-1.07-.36v-3.55a9.6,9.6,0,0,0,1.07.36"/><path class="cls-215" d="M287.55,257.58v3.55a9.62,9.62,0,0,1-1.29-.62c-1.74-1-2.62-2.32-2.61-3.62v-3.55c0,1.3.87,2.62,2.61,3.62a8.54,8.54,0,0,0,1.29.62"/></g></g></g><g class="cls-2"><g class="cls-216"><g class="cls-2"><path class="cls-192" d="M293,258.47V262a2.23,2.23,0,0,1-.05.36v-3.55a2.23,2.23,0,0,0,.05-.36"/><path class="cls-217" d="M293,258.83v3.55a2.75,2.75,0,0,1-.14.49v-3.54a2.85,2.85,0,0,0,.14-.5"/><path class="cls-218" d="M292.81,259.33v3.54a3.22,3.22,0,0,1-.23.5v-3.55a3.12,3.12,0,0,0,.23-.49"/><path class="cls-219" d="M292.58,259.82v3.55a4.3,4.3,0,0,1-.35.52v-3.54a4.41,4.41,0,0,0,.35-.53"/><path class="cls-220" d="M292.23,260.35v3.54a5.89,5.89,0,0,1-.54.59v-3.55a5.81,5.81,0,0,0,.54-.58"/><path class="cls-221" d="M291.69,260.93v3.55a7.34,7.34,0,0,1-1.13.83v-3.55a7.34,7.34,0,0,0,1.13-.83"/><path class="cls-222" d="M290.56,261.76v3.55l-.12.08a10.86,10.86,0,0,1-2,.86V262.7a10.2,10.2,0,0,0,2-.86l.12-.08"/><path class="cls-221" d="M288.48,262.7v3.55a14.73,14.73,0,0,1-1.68.42v-3.55a14.73,14.73,0,0,0,1.68-.42"/><path class="cls-220" d="M286.8,263.12v3.55c-.37.06-.75.11-1.13.15v-3.54c.38,0,.76-.09,1.13-.16"/><path class="cls-219" d="M285.67,263.28v3.54c-.33,0-.66.06-1,.07v-3.55l1-.06"/><path class="cls-218" d="M284.69,263.34v3.55h-.91v-3.54h.91"/><path class="cls-217" d="M283.78,263.35v3.54c-.29,0-.58,0-.87,0V263.3l.87.05"/><path class="cls-192" d="M282.91,263.3v3.55l-.86-.1V263.2c.28,0,.57.08.86.1"/><path class="cls-193" d="M282.05,263.2v3.55c-.3,0-.6-.09-.88-.15v-3.55c.28.06.58.11.88.15"/><path class="cls-223" d="M281.17,263.05v3.55c-.32-.07-.63-.14-.93-.23v-3.55c.3.09.61.16.93.23"/><path class="cls-224" d="M280.24,262.82v3.55c-.37-.11-.73-.23-1.08-.37v-3.54c.35.13.71.26,1.08.36"/><path class="cls-225" d="M279.16,262.46V266a9.59,9.59,0,0,1-1.29-.61c-1.75-1-2.63-2.34-2.63-3.66v-3.55c0,1.32.88,2.65,2.63,3.66a9.62,9.62,0,0,0,1.29.62"/></g></g></g><g class="cls-2"><g class="cls-226"><g class="cls-2"><path class="cls-179" d="M234.75,294.73v3.55a3.86,3.86,0,0,0-.54-.26v-3.55a5.44,5.44,0,0,1,.54.26"/><path class="cls-180" d="M234.21,294.47V298a3.39,3.39,0,0,0-.45-.15v-3.55l.45.15"/><path class="cls-181" d="M233.76,294.32v3.55l-.4-.1v-3.55l.4.1"/><path class="cls-182" d="M233.36,294.22v3.55c-.12,0-.24,0-.37-.06v-3.55l.37.06"/><path class="cls-183" d="M233,294.16v3.55l-.36,0v-3.55l.36,0"/><path class="cls-184" d="M232.63,294.12v3.55l-.37,0V294.1l.37,0"/><path class="cls-185" d="M232.26,294.1v3.55h-.39V294.1h.39"/><path class="cls-186" d="M231.87,294.1v3.55l-.42,0v-3.55l.42,0"/><path class="cls-187" d="M231.45,294.13v3.55a3.93,3.93,0,0,0-.48.06V294.2a4,4,0,0,1,.48-.07"/><path class="cls-188" d="M231,294.2v3.54c-.24.05-.48.11-.71.18v-3.55a5.65,5.65,0,0,1,.71-.17"/><path class="cls-189" d="M230.26,294.37v3.55a5.08,5.08,0,0,0-.82.36v-3.55a5.08,5.08,0,0,1,.82-.36"/></g></g></g><polygon class="cls-227" points="242.2 299.03 242.19 302.58 234.75 298.28 234.75 294.74 242.2 299.03"/><g class="cls-2"><g class="cls-228"><g class="cls-2"><path class="cls-179" d="M243.3,300.58v3.54a1.87,1.87,0,0,0-1.1-1.54V299a1.9,1.9,0,0,1,1.1,1.55"/></g></g></g><g class="cls-2"><g class="cls-229"><g class="cls-2"><path class="cls-230" d="M243.3,300.58v0"/><path class="cls-231" d="M243.3,300.61v3.55a1.49,1.49,0,0,1,0,.21v-3.54a1.8,1.8,0,0,0,0-.22"/><path class="cls-232" d="M243.28,300.83v3.54a1.72,1.72,0,0,1-.07.21l0-3.54.06-.21"/><path class="cls-233" d="M243.22,301l0,3.54a.88.88,0,0,1-.1.22v-3.55a2.12,2.12,0,0,0,.11-.21"/><path class="cls-234" d="M243.11,301.25v3.55a1.43,1.43,0,0,1-.15.22v-3.54a1.5,1.5,0,0,0,.15-.23"/><path class="cls-235" d="M243,301.48V305a1.34,1.34,0,0,1-.23.25v-3.54a1.74,1.74,0,0,0,.23-.25"/><path class="cls-236" d="M242.73,301.73v3.54a2.61,2.61,0,0,1-.48.36v-3.55a3.13,3.13,0,0,0,.48-.35"/><path class="cls-237" d="M242.25,302.08v3.55l0,0v-3.54l0,0"/></g></g></g><polygon class="cls-238" points="229.44 294.74 229.43 298.28 212.64 308.04 212.65 304.49 229.44 294.74"/><g class="cls-2"><g class="cls-239"><g class="cls-2"><path class="cls-189" d="M212.65,304.49V308l0,0v-3.55l.05,0"/><path class="cls-188" d="M212.6,304.52v3.55a2.5,2.5,0,0,0-.47.35v-3.55a3,3,0,0,1,.47-.35"/><path class="cls-187" d="M212.13,304.87v3.55a1.34,1.34,0,0,0-.23.25v-3.55a1.34,1.34,0,0,1,.23-.25"/><path class="cls-186" d="M211.9,305.12v3.55a1.07,1.07,0,0,0-.15.22v-3.55a1.43,1.43,0,0,1,.15-.22"/><path class="cls-185" d="M211.75,305.34v3.55a1,1,0,0,0-.1.21v-3.54a.88.88,0,0,1,.1-.22"/><path class="cls-184" d="M211.65,305.56v3.54a.83.83,0,0,0-.06.21v-3.54a.65.65,0,0,1,.06-.21"/><path class="cls-183" d="M211.59,305.77v3.54a.83.83,0,0,0,0,.22V306a.76.76,0,0,1,0-.21"/><path class="cls-182" d="M211.56,306v0"/></g></g></g><g class="cls-2"><g class="cls-240"><g class="cls-2"><path class="cls-241" d="M212.68,307.57v3.54a1.88,1.88,0,0,1-1.12-1.55V306a1.9,1.9,0,0,0,1.12,1.56"/></g></g></g><polygon class="cls-242" points="242.21 302.11 242.2 305.65 225.41 315.41 225.42 311.86 242.21 302.11"/><polygon class="cls-243" points="220.12 311.86 220.11 315.41 212.66 311.11 212.68 307.57 220.12 311.86"/><g class="cls-2"><g class="cls-244"><g class="cls-2"><path class="cls-237" d="M225.42,311.86v3.55a3.78,3.78,0,0,1-.82.36v-3.54a4.36,4.36,0,0,0,.82-.37"/><path class="cls-236" d="M224.6,312.23v3.54a5.68,5.68,0,0,1-.71.18V312.4a5.65,5.65,0,0,0,.71-.17"/><path class="cls-235" d="M223.89,312.4V316l-.48.07v-3.55l.48-.07"/><path class="cls-234" d="M223.41,312.47V316l-.41,0V312.5l.41,0"/><path class="cls-233" d="M223,312.5V316h-.39V312.5H223"/><path class="cls-232" d="M222.61,312.5V316l-.37,0v-3.54l.37,0"/><path class="cls-231" d="M222.24,312.48V316l-.36,0v-3.54l.36,0"/><path class="cls-230" d="M221.88,312.44V316c-.13,0-.25,0-.37-.06v-3.55l.37.07"/><path class="cls-245" d="M221.51,312.37v3.55l-.39-.1v-3.54a3.75,3.75,0,0,0,.39.09"/><path class="cls-246" d="M221.12,312.28v3.54a3.53,3.53,0,0,1-.46-.15v-3.55l.46.16"/><path class="cls-241" d="M220.66,312.12v3.55a4.49,4.49,0,0,1-.54-.26v-3.55a3.36,3.36,0,0,0,.54.26"/></g></g></g><path class="cls-247" d="M302.34,237.49l38.82,22.42L225,327.39,186.22,305c-2.45-1.41-2.46-3.7,0-5.1l107.34-62.38A9.72,9.72,0,0,1,302.34,237.49Zm-76.92,74.37,16.79-9.75c1.46-.85,1.45-2.23,0-3.08l-7.45-4.3a5.85,5.85,0,0,0-5.31,0l-16.79,9.76c-1.46.85-1.45,2.23,0,3.08l7.44,4.29a5.83,5.83,0,0,0,5.3,0m52.42-57.3c-3.47,2-3.45,5.27,0,7.28a13.86,13.86,0,0,0,12.57,0,4.5,4.5,0,0,0,2.56-3.37,12.39,12.39,0,0,0,5.83-1.51c3.46-2,3.44-5.26-.05-7.27a13.81,13.81,0,0,0-12.55,0,4.51,4.51,0,0,0-2.57,3.39,12.42,12.42,0,0,0-5.82,1.48"/><path class="cls-248" d="M298.78,249.69c3.49,2,3.51,5.26.05,7.27a12.39,12.39,0,0,1-5.83,1.51c.12-1.41-.75-2.83-2.61-3.91a12.87,12.87,0,0,0-6.73-1.48,4.51,4.51,0,0,1,2.57-3.39A13.81,13.81,0,0,1,298.78,249.69Z"/><path class="cls-249" d="M290.39,254.56c1.86,1.08,2.73,2.5,2.61,3.91a13.12,13.12,0,0,1-6.74-1.51c-1.85-1.07-2.73-2.5-2.6-3.88A12.87,12.87,0,0,1,290.39,254.56Z"/><path class="cls-250" d="M293,258.47a4.5,4.5,0,0,1-2.56,3.37,13.86,13.86,0,0,1-12.57,0c-3.48-2-3.5-5.26,0-7.28a12.42,12.42,0,0,1,5.82-1.48c-.13,1.38.75,2.81,2.6,3.88A13.12,13.12,0,0,0,293,258.47Z"/><path class="cls-248" d="M242.2,299c1.46.85,1.47,2.23,0,3.08l-16.79,9.75a5.83,5.83,0,0,1-5.3,0l-7.44-4.29c-1.48-.85-1.49-2.23,0-3.08l16.79-9.76a5.85,5.85,0,0,1,5.31,0Z"/><polygon class="cls-238" points="341.16 259.91 341.15 263.45 225.03 330.94 225.04 327.39 341.16 259.91"/><path class="cls-251" d="M186.22,305a3.14,3.14,0,0,1-1.85-2.57v3.54a3.14,3.14,0,0,0,1.85,2.58L225,330.94v-3.55Z"/></g><g class="cls-2"><polygon class="cls-252" points="350.64 265.38 234.52 332.86 225.04 327.39 341.16 259.91 350.64 265.38"/><polygon class="cls-253" points="350.64 265.38 350.63 268.92 234.51 336.41 234.52 332.86 350.64 265.38"/><polygon class="cls-254" points="234.52 332.86 234.51 336.41 225.03 330.94 225.04 327.39 234.52 332.86"/><path class="cls-255" d="M361.35,273.77s0,.05,0,.07a2.47,2.47,0,0,1-.3.58.61.61,0,0,1-.07.1,3.52,3.52,0,0,1-.49.55c-.13.11-.29.21-.44.32a2.84,2.84,0,0,1-.38.27L252.3,338a6.44,6.44,0,0,1-1.22.54c-.15.06-.31.1-.47.15s-.41.11-.62.15-.5.1-.76.13l-.18,0c-.35,0-.7,0-1.05,0h-.17c-.34,0-.69,0-1-.06l-.16,0c-.34,0-.67-.1-1-.17l-.18,0c-.29-.08-.58-.17-.86-.27l-.15-.05a5.54,5.54,0,0,1-.95-.45l-9-5.18v3.55l9,5.18a6.65,6.65,0,0,0,.89.43l.06,0,.15,0,.55.19.31.07.18,0,.16,0a6.17,6.17,0,0,0,.62.11l.22,0h.16l.22,0c.21,0,.41,0,.62,0h.64c.23,0,.46,0,.69-.05H249l.18,0,.54-.08.22-.05.62-.16.33-.08.14-.06a6.44,6.44,0,0,0,1.22-.54l107.35-62.38.07,0,.32-.23c.14-.11.3-.21.43-.33l0,0a3.62,3.62,0,0,0,.38-.41.61.61,0,0,0,.07-.1l.07-.1.12-.17a2.83,2.83,0,0,0,.16-.36l0-.05a.64.64,0,0,1,0-.07,2,2,0,0,0,.06-.23,1.47,1.47,0,0,0,0-.36v-3.6A2.31,2.31,0,0,1,361.35,273.77Z"/><path class="cls-256" d="M359.62,270.56c2.43,1.41,2.45,3.7,0,5.1L252.3,338a9.68,9.68,0,0,1-8.8,0l-9-5.18,116.12-67.48Z"/></g><g class="cls-4"><path class="cls-257" d="M103.84,252.22,62.43,276.29a2.5,2.5,0,0,1-2.51,0L38.13,263.71a2.5,2.5,0,0,1,0-4.33l41.4-24.06a2.5,2.5,0,0,1,2.51,0l21.79,12.58A2.5,2.5,0,0,1,103.84,252.22Z"/></g><g class="cls-2"><polygon class="cls-258" points="100.11 229.23 100.04 250.86 63.12 272.32 63.18 250.69 100.11 229.23"/><polygon class="cls-259" points="63.18 250.69 63.12 272.32 41.8 260.01 41.86 238.38 63.18 250.69"/><polygon class="cls-260" points="100.11 229.23 63.18 250.69 41.86 238.38 78.79 216.92 100.11 229.23"/><polygon class="cls-9" points="84.4 238.36 78.89 241.56 57.56 229.25 63.12 226.07 84.4 238.36"/><polygon class="cls-9" points="49.69 242.9 55.25 246.08 92.33 224.67 86.74 221.51 49.69 242.9"/></g><polygon class="cls-10" points="78.89 263.15 78.89 241.56 84.4 238.36 84.4 259.95 78.89 263.15"/><polygon class="cls-10" points="55.24 267.77 55.24 246.11 49.73 242.91 49.73 264.57 55.24 267.77"/><g class="cls-2"><path class="cls-261" d="M350.15,72.62c0-.15,0-.29,0-.43a1.36,1.36,0,0,1,0-.2.25.25,0,0,0,0-.08.76.76,0,0,0,0-.15c0-.14,0-.29,0-.43l-.06-.45h0c0-.14-.05-.28-.08-.42l-.09-.46c0-.06,0-.11,0-.16s0-.07,0-.1,0-.13-.05-.2l-.12-.47-.1-.34,0-.06,0-.07c0-.15-.09-.3-.14-.45l-.16-.45,0-.08,0-.07c0-.09-.07-.19-.11-.28s-.11-.29-.17-.43a2.88,2.88,0,0,1-.13-.31l0-.05,0-.06c-.07-.15-.13-.29-.2-.43l-.22-.46a.43.43,0,0,0,0-.07l0-.09-.2-.37c-.08-.15-.17-.3-.25-.46a2.53,2.53,0,0,0-.13-.22l-.05-.09c-.08-.14-.16-.26-.25-.4l-.35-.55,0-.1c-.18-.26-.37-.53-.56-.78h0q-.19-.27-.39-.51l-.33-.41h0c-.11-.14-.23-.27-.34-.4s-.23-.26-.35-.38l-.05-.06-.06-.07c-.08-.08-.16-.17-.25-.25l-.37-.37L344,59.8l-.08-.08-.19-.17-.39-.34-.17-.14L343.1,59l-.13-.11-.39-.3-.28-.2-.05,0-.05,0-.38-.25-.37-.22-.09-.06L299.5,33.62l-.28-.15-.36-.19-.23-.11-.06,0-.07,0-.35-.15-.36-.13-.06,0-.05,0-.24-.08-.37-.1-.17,0h-.08l-.11,0-.38-.06-.23,0h-.17l-.41,0h-.46a4.46,4.46,0,0,0-.51.07h0l-.11,0a4.1,4.1,0,0,0-.5.14l0,0a3.39,3.39,0,0,0-.67.31l-8.18,4.75a4.07,4.07,0,0,1,.67-.31,5.52,5.52,0,0,1,.54-.16l.11,0a6.62,6.62,0,0,1,.66-.08h.14c.21,0,.44,0,.66,0h.09a6.45,6.45,0,0,1,.73.11l.07,0a5.64,5.64,0,0,1,.78.21l.05,0c.28.1.56.21.84.34l.06,0c.29.14.58.29.87.46l41.87,24.17c.29.17.59.36.88.56l.05,0c.27.19.54.4.8.61l.09.07.75.65.09.09c.25.23.49.47.73.73l.06.06c.25.27.5.55.74.84h0A20.16,20.16,0,0,1,338.73,68l.35.55.29.49.13.23c.16.27.31.55.45.83a.59.59,0,0,1,0,.08q.25.51.48,1l0,.06c.14.33.28.67.41,1a.64.64,0,0,0,0,.07c.13.35.25.7.35,1.05l0,.06c.1.34.19.68.27,1l0,.1c.08.35.15.7.21,1h0c.06.35.1.7.13,1v.09c0,.34,0,.68,0,1l-.13,48.11c0,.34,0,.66,0,1,0,0,0,.05,0,.08,0,.29-.07.56-.12.82a.43.43,0,0,1,0,.11,6,6,0,0,1-.19.73s0,.08,0,.13a5.9,5.9,0,0,1-.25.63s0,0,0,.06c-.11.23-.23.44-.35.64a5.11,5.11,0,0,1-.61.75L340,131a4.06,4.06,0,0,1-.74.57l8.18-4.75a5,5,0,0,0,.74-.57c.05,0,.11-.1.16-.16a5,5,0,0,0,.61-.75v0a4.25,4.25,0,0,0,.33-.6v0l0-.06c.06-.14.12-.27.17-.42s.05-.14.08-.22,0-.08,0-.12,0-.08,0-.12l.12-.45,0-.17s0-.07,0-.1l0-.16a3,3,0,0,0,.06-.42l0-.24v-.08s0-.07,0-.1,0-.28,0-.42,0-.28,0-.42v0L350.15,73Z"/><path class="cls-262" d="M333.19,62.55c4.87,2.81,8.8,9.62,8.78,15.22l-.13,48.11c0,5.59-4,7.84-8.85,5l-41.86-24.17c-4.87-2.81-8.8-9.62-8.79-15.21l.14-48.11c0-5.6,4-7.86,8.84-5Z"/><path class="cls-263" d="M328,63.94a16.4,16.4,0,0,1,7.44,12.88l-.12,40.73c0,4.73-3.36,6.64-7.49,4.26l-35.43-20.46a16.36,16.36,0,0,1-7.44-12.87L285,47.75c0-4.74,3.37-6.65,7.49-4.27Z"/></g><path class="cls-248" d="M326.46,88.37a10.4,10.4,0,0,1,4.8,8.2l-.05,17.35c0,3-2.13,4.2-4.73,2.69L297.75,100a10.37,10.37,0,0,1-4.69-8.14l0-17.35c0-3,2.13-4.2,4.73-2.7l.12-6.48c0-8.5,6.06-11.94,13.46-7.67l1.71,1c7.39,4.27,13.38,14.66,13.36,23.16Zm-4.37-2.52,0-6.55c0-5.72-4-12.73-9-15.6l-1.71-1c-5-2.88-9.05-.56-9.07,5.17v6.54l19.78,11.43m-9.95,14.52c1.86,1.08,3.38.21,3.38-1.93a7.28,7.28,0,0,0-1.67-4.31,1.58,1.58,0,0,0,.4-1.16,4.61,4.61,0,0,0-2.08-3.6c-1.15-.66-2.08-.13-2.08,1.2a3.83,3.83,0,0,0,.38,1.61c-1,.1-1.69.94-1.69,2.37a7.39,7.39,0,0,0,3.36,5.82"/><g class="cls-2"><path class="cls-264" d="M421.5,124.85c0-.12,0-.24,0-.36s0-.11,0-.16v-.07a.62.62,0,0,0,0-.13c0-.12,0-.24,0-.36s0-.25-.05-.37h0a2.25,2.25,0,0,0-.06-.36c0-.12-.05-.25-.07-.38s0-.09,0-.14l0-.08a1,1,0,0,0,0-.17c0-.13-.06-.26-.1-.39s0-.19-.08-.29l0,0v0c0-.13-.08-.26-.13-.39s-.08-.25-.13-.37a.64.64,0,0,0,0-.07l0-.06-.09-.24-.15-.36a2.72,2.72,0,0,0-.11-.25l0,0,0-.05-.16-.36-.19-.39,0-.06a.43.43,0,0,1,0-.07c-.05-.1-.1-.21-.16-.31l-.21-.38-.11-.19,0-.08-.21-.33c-.1-.16-.19-.31-.3-.47l0-.07c-.15-.23-.31-.45-.47-.67h0l-.33-.43-.28-.35h0l-.28-.33c-.1-.11-.19-.22-.29-.32l-.05,0,0-.05-.2-.22-.31-.31-.1-.09-.08-.07-.15-.14-.33-.29-.15-.12-.07-.06-.11-.09-.32-.24-.24-.17-.05,0,0,0-.31-.21-.32-.19-.07,0L379,92.11l-.23-.14-.31-.15-.19-.1-.05,0-.06,0-.29-.13-.3-.11,0,0h-.05l-.2-.07-.31-.08-.14,0h-.06l-.1,0-.32-.06-.2,0h-.86a3,3,0,0,0-.43.06h0l-.09,0a3.25,3.25,0,0,0-.42.11l0,0a2.94,2.94,0,0,0-.57.26l-6.86,4a4,4,0,0,1,.56-.26,2.42,2.42,0,0,1,.46-.13l.08,0,.56-.07h.11a3.64,3.64,0,0,1,.57,0h.07l.61.09h.06a6,6,0,0,1,.66.19h0a6.81,6.81,0,0,1,.7.28l.05,0a6.37,6.37,0,0,1,.73.38l35.16,20.3c.25.14.5.3.75.47l0,0c.23.16.45.33.67.5l.07.06.64.55.07.07c.21.2.41.41.61.62l0,0c.22.23.43.46.63.71h0c.39.48.77,1,1.12,1.51l.29.47.25.41.11.19c.13.23.25.46.37.69l0,.07c.14.29.28.57.4.86l0,0c.13.28.24.57.35.85l0,.06c.11.29.21.59.29.88l0,0c.08.29.16.57.23.85l0,.08c.06.3.12.59.17.88h0a8.58,8.58,0,0,1,.1.87v.07c0,.29,0,.58,0,.86l-.11,40.41c0,.28,0,.55,0,.81a.2.2,0,0,1,0,.07,5,5,0,0,1-.1.69v.08c-.05.22-.1.42-.16.62a.49.49,0,0,0,0,.11,4.87,4.87,0,0,1-.21.53.08.08,0,0,1,0,.05c-.09.19-.19.37-.29.54a4.59,4.59,0,0,1-.52.63l-.13.13a3.62,3.62,0,0,1-.63.48l6.87-4a3.55,3.55,0,0,0,.62-.48l.14-.13a3.9,3.9,0,0,0,.51-.63h0a4.16,4.16,0,0,0,.28-.51v0s0,0,0-.05l.15-.35L421,168l0-.11,0-.1c0-.12.07-.25.09-.38a.58.58,0,0,0,0-.14l0-.08,0-.14c0-.11,0-.23.05-.35s0-.14,0-.2v-.07a.28.28,0,0,1,0-.09c0-.11,0-.23,0-.35s0-.23,0-.35v0l.11-40.41Z"/><path class="cls-265" d="M407.25,116.4a16.24,16.24,0,0,1,7.38,12.78l-.11,40.41c0,4.69-3.34,6.58-7.43,4.22l-35.16-20.3a16.26,16.26,0,0,1-7.38-12.77l.12-40.41c0-4.7,3.33-6.59,7.42-4.23Z"/><path class="cls-266" d="M402.39,117.4a13.6,13.6,0,0,1,6.18,10.71L408.48,162c0,3.93-2.8,5.52-6.23,3.54l-29.45-17a13.62,13.62,0,0,1-6.19-10.7l.1-33.86c0-3.94,2.79-5.52,6.22-3.54Z"/></g><path class="cls-248" d="M406.56,139.65a1.34,1.34,0,0,1,.61,1v2.51c0,.38-.28.54-.61.34l-.34-.19-1.36,19c-.06.89-.73,1.22-1.54.75l-28.72-16.58a3.39,3.39,0,0,1-1.53-2.52l-1.25-20.56-.5-.29a1.33,1.33,0,0,1-.6-1v-2.52c0-.38.27-.53.6-.34l3.2,1.84,0-7.34c0-3.12,2.23-4.38,4.94-2.82l19.15,11.06a10.84,10.84,0,0,1,4.91,8.51l0,7.34Zm-6.2-3.58,0-7.34a3.92,3.92,0,0,0-1.76-3l-19.15-11.05c-1-.56-1.76-.11-1.77,1l0,7.34,22.68,13.09m3.26,9.24a1.73,1.73,0,0,0-.73-1.41l-.06,0c-.42-.23-.77-.08-.8.38l-1.19,15.36a1.76,1.76,0,0,0,.72,1.41l.07,0c.41.24.76.08.8-.38l1.19-15.36m-27.28,1.13c.44.22.76,0,.73-.56L376,129.2a1.76,1.76,0,0,0-.79-1.3l-.06,0c-.44-.22-.77,0-.74.56l1.1,16.68a1.75,1.75,0,0,0,.8,1.3l.06,0M394.48,140a1.74,1.74,0,0,0-.76-1.39l0,0c-.42-.24-.78-.06-.79.42l-.68,15.69A1.74,1.74,0,0,0,393,156l0,0c.42.24.77.06.8-.42l.67-15.69m-9.54,11.45c.43.23.78,0,.76-.52l-.59-16.42a1.72,1.72,0,0,0-.78-1.32l0,0c-.44-.23-.78,0-.77.52l.58,16.41a1.76,1.76,0,0,0,.79,1.33l.05,0"/><g class="cls-2"><path class="cls-267" d="M157.58,116.73c0-.12,0-.25,0-.37s0-.12,0-.18v-.07a.57.57,0,0,0,0-.13c0-.13,0-.26,0-.38l-.06-.39h0v0l-.06-.37-.09-.4,0-.14s0-.06,0-.09,0-.12,0-.18-.07-.27-.11-.41l-.09-.3v-.05l0-.06c0-.13-.08-.27-.13-.4s-.09-.26-.14-.4a.25.25,0,0,0,0-.07l0,0c0-.09-.07-.17-.1-.26l-.15-.37c0-.09-.08-.18-.11-.27l0,0,0,0c-.05-.13-.11-.25-.17-.38s-.13-.27-.2-.41l0-.06a.25.25,0,0,0,0-.07c-.05-.11-.11-.22-.17-.33s-.15-.27-.22-.4l-.11-.2a.56.56,0,0,0-.05-.08L155,109l-.3-.49a.35.35,0,0,1,0-.08c-.16-.24-.32-.47-.49-.69h0l-.34-.45-.29-.36h0l-.3-.35-.3-.34-.05,0,0-.06c-.08-.07-.15-.15-.22-.22l-.33-.32-.1-.1-.08-.07-.16-.15-.34-.3-.16-.13-.07-.06-.12-.09c-.11-.09-.22-.18-.34-.26s-.17-.12-.25-.18l0,0,0,0-.33-.22-.33-.2-.07,0L113,82.4l-.25-.14-.32-.16-.2-.1,0,0-.06,0-.31-.13-.32-.12,0,0h0l-.22-.07-.32-.09-.15,0-.07,0-.1,0-.34-.06-.2,0h-.91l-.44.07h0l-.09,0a3.74,3.74,0,0,0-.45.12h0a3.56,3.56,0,0,0-.59.28L100.27,86a2.88,2.88,0,0,1,.59-.27,3.36,3.36,0,0,1,.48-.14l.09,0a5.4,5.4,0,0,1,.58-.08h.12a3.9,3.9,0,0,1,.59,0h.07a4.72,4.72,0,0,1,.64.1h.07a6.5,6.5,0,0,1,.69.19l0,0c.24.08.49.18.74.29l0,0a8.13,8.13,0,0,1,.77.4l36.86,21.28c.26.15.52.31.78.49l0,0,.71.53.07.07q.34.27.66.57l.08.07c.22.21.44.43.65.65l.05,0c.22.24.44.49.65.75h0c.42.51.81,1,1.18,1.59l.3.49.27.43a2,2,0,0,0,.11.2c.13.24.27.48.39.73l0,.07c.15.3.29.6.43.9l0,.05.36.9a.14.14,0,0,0,0,.06c.11.3.21.61.31.92v.06c.09.29.17.59.24.89l0,.08c.07.31.13.61.18.92h0c.05.31.09.61.11.91v.08c0,.3,0,.6,0,.9l-.12,42.36a7.81,7.81,0,0,1,0,.85v.07c0,.25-.06.49-.11.73l0,.09a6,6,0,0,1-.16.64.76.76,0,0,0,0,.11c-.07.2-.14.38-.22.56,0,0,0,0,0,.06-.1.2-.2.38-.31.56a4.32,4.32,0,0,1-.54.66.93.93,0,0,1-.14.14,4,4,0,0,1-.66.5l7.2-4.18a4,4,0,0,0,.66-.5l.14-.14a4,4,0,0,0,.54-.67h0a5.25,5.25,0,0,0,.29-.53v0s0,0,0-.05a2.39,2.39,0,0,0,.15-.37,1.46,1.46,0,0,0,.07-.19.49.49,0,0,1,0-.11l0-.11c0-.12.07-.26.1-.39l0-.15s0-.06,0-.09l0-.14c0-.12,0-.24,0-.37l0-.21v-.08a.19.19,0,0,0,0-.08l0-.37v-.4l.12-42.36Z"/><path class="cls-268" d="M142.65,107.87a17,17,0,0,1,7.73,13.4l-.12,42.36c0,4.92-3.49,6.9-7.78,4.43l-36.86-21.28c-4.29-2.48-7.75-8.48-7.74-13.39L98,91c0-4.92,3.5-6.91,7.79-4.43Z"/><path class="cls-269" d="M138.38,107.34a14.49,14.49,0,0,1,6.58,11.4l-.1,36.07c0,4.19-3,5.88-6.63,3.77l-31.38-18.12a14.5,14.5,0,0,1-6.59-11.4L100.37,93c0-4.2,3-5.89,6.63-3.78Z"/></g><path class="cls-248" d="M114.52,135.81a10.13,10.13,0,0,1,4.6,8c0,2.93-2.08,4.11-4.63,2.64a10.18,10.18,0,0,1-4.6-8C109.9,135.52,112,134.34,114.52,135.81Zm0,8.48c1.52.88,2.77.17,2.77-1.59a6.07,6.07,0,0,0-2.75-4.77c-1.53-.88-2.77-.17-2.78,1.58a6.08,6.08,0,0,0,2.76,4.78"/><path class="cls-248" d="M135,147.63a10.15,10.15,0,0,1,4.6,8c0,2.93-2.08,4.11-4.63,2.64a10.16,10.16,0,0,1-4.6-8C130.39,147.35,132.47,146.17,135,147.63Zm0,8.48c1.52.89,2.77.18,2.77-1.58a6.06,6.06,0,0,0-2.76-4.77c-1.52-.88-2.77-.17-2.77,1.58a6.06,6.06,0,0,0,2.76,4.77"/><path class="cls-248" d="M139.32,126.16a2.07,2.07,0,0,1,.77,1.49l-.06,20.4c0,.58-.42.82-.93.53l-29.28-16.91a2,2,0,0,1-.92-1.59l.07-25.63-3.22-8.28c-.25-.65-.1-1.22.34-1.26a.86.86,0,0,1,.47.13,2,2,0,0,1,.8,1l3.12,8Zm-23.08.75,0-7.35-5.47-3.63,0,7.82,5.47,3.16m0-9.48,0-6.76-5.47-4.18,0,7.31,5.47,3.63m7.29,13.7,0-6.71-5.47-3.64,0,7.19,5.47,3.16m0-8.84v-6l-5.47-4.19v6.56l5.47,3.64m7.29,13.07,0-6.09-5.47-3.62,0,6.55,5.47,3.16m0-8.22,0-5.26-5.47-4.19v5.83l5.46,3.62m7.3,12.45,0-5.46-5.47-3.63,0,5.93,5.47,3.16m0-7.59,0-4.51-5.47-4.19,0,5.07,5.47,3.63m0,13.92v-4.21l-5.48-3.16v4.21l5.48,3.16m-22-12.68,0-4.21-5.48-3.16v4.21l5.47,3.16m7.32,4.23v-4.21l-5.47-3.16v4.21l5.47,3.16m7.32,4.22v-4.2l-5.46-3.16,0,4.2,5.47,3.16"/></g></g></g></svg>