<svg xmlns="http://www.w3.org/2000/svg" xmlns:xlink="http://www.w3.org/1999/xlink" viewBox="0 0 984.66 585.53"><defs><style>.cls-1{mask:url(#mask);filter:url(#luminosity-noclip-6);}.cls-10,.cls-2,.cls-4,.cls-6,.cls-8{mix-blend-mode:multiply;}.cls-2{fill:url(#linear-gradient);}.cls-3{mask:url(#mask-2);filter:url(#luminosity-noclip-7);}.cls-4{fill:url(#linear-gradient-2);}.cls-5{mask:url(#mask-3);filter:url(#luminosity-noclip-8);}.cls-6{fill:url(#linear-gradient-3);}.cls-7{mask:url(#mask-4);filter:url(#luminosity-noclip-9);}.cls-8{fill:url(#linear-gradient-4);}.cls-9{mask:url(#mask-5);filter:url(#luminosity-noclip-10);}.cls-10{fill:url(#linear-gradient-5);}.cls-11{fill:none;}.cls-12{fill:#f2e9ff;}.cls-13{fill:#dfcaff;}.cls-14,.cls-15,.cls-16,.cls-94{fill:#fff;}.cls-14{opacity:0.31;}.cls-15{opacity:0.6;}.cls-17{fill:#6650d6;}.cls-18{fill:#7c71ea;}.cls-19{clip-path:url(#clip-path);}.cls-20{fill:#f5b379;}.cls-21{fill:#f75468;}.cls-22{fill:#f29866;}.cls-23{fill:#84253c;}.cls-24{fill:#cce5e4;}.cls-25{fill:#912f42;}.cls-26{fill:#aacfd1;}.cls-27{fill:#51333a;}.cls-28{fill:#613d44;}.cls-29{fill:#4c3099;}.cls-30{fill:#161228;}.cls-31{clip-path:url(#clip-path-2);}.cls-32{fill:#544f5b;}.cls-33{fill:#3b343f;}.cls-34{fill:#4f7f7e;}.cls-35{fill:#3d6b6b;}.cls-36{fill:url(#linear-gradient-6);}.cls-37{fill:#1eb4d6;}.cls-38{fill:#855e4f;}.cls-39{fill:url(#linear-gradient-7);}.cls-40{fill:url(#linear-gradient-8);}.cls-41{fill:url(#linear-gradient-9);}.cls-42{fill:url(#linear-gradient-10);}.cls-43{fill:url(#linear-gradient-11);}.cls-44{fill:url(#linear-gradient-12);}.cls-45{fill:#221560;}.cls-46{fill:#34207a;}.cls-47{fill:url(#linear-gradient-13);}.cls-48{fill:url(#linear-gradient-14);}.cls-49{fill:#483670;}.cls-50{fill:url(#linear-gradient-15);}.cls-51{fill:#b3bdde;}.cls-52{mask:url(#mask-6);}.cls-53,.cls-59{opacity:0.22;}.cls-53{fill:url(#linear-gradient-16);}.cls-54{mask:url(#mask-7);}.cls-55{fill:url(#linear-gradient-17);}.cls-56{fill:#c5aff2;}.cls-57{fill:#f9d77f;}.cls-58{mask:url(#mask-8);}.cls-59{fill:url(#linear-gradient-18);}.cls-60{mask:url(#mask-9);}.cls-61{fill:url(#linear-gradient-19);}.cls-62{fill:#ea3e72;}.cls-63{fill:#ffc255;}.cls-64{fill:#4093f6;}.cls-65{fill:#92ceff;}.cls-66{fill:#3d2e41;}.cls-67{fill:#634f6b;}.cls-68{fill:url(#linear-gradient-20);}.cls-69{fill:url(#linear-gradient-21);}.cls-70{fill:#f4bf62;}.cls-71{fill:url(#linear-gradient-22);}.cls-72{fill:url(#linear-gradient-23);}.cls-73{fill:#8d7900;}.cls-74{fill:url(#linear-gradient-24);}.cls-75{fill:url(#linear-gradient-25);}.cls-76{fill:url(#linear-gradient-26);}.cls-77{fill:url(#linear-gradient-27);}.cls-78{fill:url(#linear-gradient-28);}.cls-79{fill:url(#linear-gradient-29);}.cls-80{fill:url(#linear-gradient-30);}.cls-81{fill:url(#linear-gradient-31);}.cls-82{fill:url(#linear-gradient-32);}.cls-83{fill:url(#linear-gradient-33);}.cls-84{fill:url(#linear-gradient-34);}.cls-85{fill:url(#linear-gradient-35);}.cls-86{fill:url(#linear-gradient-36);}.cls-87{fill:url(#linear-gradient-37);}.cls-88{fill:url(#linear-gradient-38);}.cls-89{fill:#a06b91;}.cls-90{mask:url(#mask-10);}.cls-91{fill:url(#linear-gradient-39);}.cls-92{fill:url(#linear-gradient-40);}.cls-93{fill:url(#linear-gradient-41);}.cls-94{opacity:0.4;}.cls-95{fill:url(#linear-gradient-42);}.cls-96{filter:url(#luminosity-noclip-5);}.cls-97{filter:url(#luminosity-noclip-4);}.cls-98{filter:url(#luminosity-noclip-3);}.cls-99{filter:url(#luminosity-noclip-2);}.cls-100{filter:url(#luminosity-noclip);}</style><filter id="luminosity-noclip" x="137.04" y="-8484.26" width="209.27" height="32766" filterUnits="userSpaceOnUse" color-interpolation-filters="sRGB"><feFlood flood-color="#fff" result="bg"/><feBlend in="SourceGraphic" in2="bg"/></filter><mask id="mask" x="137.04" y="-8484.26" width="209.27" height="32766" maskUnits="userSpaceOnUse"><g class="cls-100"/></mask><linearGradient id="linear-gradient" x1="241.68" y1="361.04" x2="241.68" y2="129.09" gradientUnits="userSpaceOnUse"><stop offset="0"/><stop offset="1" stop-color="#fff"/></linearGradient><filter id="luminosity-noclip-2" x="239.75" y="-8484.26" width="6.62" height="32766" filterUnits="userSpaceOnUse" color-interpolation-filters="sRGB"><feFlood flood-color="#fff" result="bg"/><feBlend in="SourceGraphic" in2="bg"/></filter><mask id="mask-2" x="239.75" y="-8484.26" width="6.62" height="32766" maskUnits="userSpaceOnUse"><g class="cls-99"/></mask><linearGradient id="linear-gradient-2" x1="243.06" y1="91.26" x2="243.06" gradientUnits="userSpaceOnUse"><stop offset="0" stop-color="#fff"/><stop offset="1"/></linearGradient><filter id="luminosity-noclip-3" x="580.6" y="-8484.26" width="209.27" height="32766" filterUnits="userSpaceOnUse" color-interpolation-filters="sRGB"><feFlood flood-color="#fff" result="bg"/><feBlend in="SourceGraphic" in2="bg"/></filter><mask id="mask-3" x="580.6" y="-8484.26" width="209.27" height="32766" maskUnits="userSpaceOnUse"><g class="cls-98"/></mask><linearGradient id="linear-gradient-3" x1="685.23" y1="361.04" x2="685.23" y2="129.09" xlink:href="#linear-gradient"/><filter id="luminosity-noclip-4" x="683.3" y="-8484.26" width="6.62" height="32766" filterUnits="userSpaceOnUse" color-interpolation-filters="sRGB"><feFlood flood-color="#fff" result="bg"/><feBlend in="SourceGraphic" in2="bg"/></filter><mask id="mask-4" x="683.3" y="-8484.26" width="6.62" height="32766" maskUnits="userSpaceOnUse"><g class="cls-97"/></mask><linearGradient id="linear-gradient-4" x1="686.61" y1="91.26" x2="686.61" xlink:href="#linear-gradient-2"/><filter id="luminosity-noclip-5" x="837.91" y="-8484.26" width="146.75" height="32766" filterUnits="userSpaceOnUse" color-interpolation-filters="sRGB"><feFlood flood-color="#fff" result="bg"/><feBlend in="SourceGraphic" in2="bg"/></filter><mask id="mask-5" x="837.91" y="-8484.26" width="146.75" height="32766" maskUnits="userSpaceOnUse"><g class="cls-96"/></mask><linearGradient id="linear-gradient-5" x1="-861.84" y1="1460.04" x2="-861.84" y2="1662.54" gradientTransform="matrix(-1, 0, 0, 1.26, 57.19, -1567.29)" xlink:href="#linear-gradient-2"/><clipPath id="clip-path"><path class="cls-11" d="M368.44,383.59H270.82a4.47,4.47,0,0,1-4.52-5.26l3.61-61.58a6.26,6.26,0,0,1,6-5.25h97.62a4.46,4.46,0,0,1,4.52,5.25l-3.61,61.58A6.27,6.27,0,0,1,368.44,383.59Z"/></clipPath><clipPath id="clip-path-2"><path class="cls-11" d="M597.1,383.59h97.62a4.47,4.47,0,0,0,4.52-5.26l-3.61-61.58a6.25,6.25,0,0,0-6-5.25H592a4.47,4.47,0,0,0-4.52,5.25l3.62,61.58A6.25,6.25,0,0,0,597.1,383.59Z"/></clipPath><linearGradient id="linear-gradient-6" x1="644.77" y1="367.39" x2="659.01" y2="367.39" gradientUnits="userSpaceOnUse"><stop offset="0" stop-color="#00b2db"/><stop offset="1" stop-color="#89e8f7"/></linearGradient><linearGradient id="linear-gradient-7" x1="621.45" y1="382.5" x2="656.4" y2="382.5" xlink:href="#linear-gradient-6"/><linearGradient id="linear-gradient-8" x1="609.88" y1="374.97" x2="627.61" y2="374.97" xlink:href="#linear-gradient-6"/><linearGradient id="linear-gradient-9" x1="735.4" y1="537.83" x2="751.72" y2="537.83" gradientUnits="userSpaceOnUse"><stop offset="0" stop-color="#ffab66"/><stop offset="1" stop-color="#e46077"/></linearGradient><linearGradient id="linear-gradient-10" x1="735.4" y1="541.31" x2="752.55" y2="541.31" gradientTransform="translate(398.04 -311.24) rotate(31.88)" gradientUnits="userSpaceOnUse"><stop offset="0" stop-color="#e46077"/><stop offset="1" stop-color="#ffab66"/></linearGradient><linearGradient id="linear-gradient-11" x1="679.38" y1="528.77" x2="697.54" y2="528.77" xlink:href="#linear-gradient-9"/><linearGradient id="linear-gradient-12" x1="678.33" y1="529.36" x2="693.76" y2="529.36" gradientTransform="translate(627.45 -335.19) rotate(48.47)" xlink:href="#linear-gradient-10"/><linearGradient id="linear-gradient-13" x1="710.81" y1="398.98" x2="784.41" y2="398.98" xlink:href="#linear-gradient-6"/><linearGradient id="linear-gradient-14" x1="739.77" y1="389.81" x2="815.22" y2="389.81" xlink:href="#linear-gradient-6"/><linearGradient id="linear-gradient-15" x1="797.2" y1="286.22" x2="804.45" y2="286.22" xlink:href="#linear-gradient-9"/><filter id="luminosity-noclip-6" x="137.04" y="129.09" width="209.27" height="231.95" filterUnits="userSpaceOnUse" color-interpolation-filters="sRGB"><feFlood flood-color="#fff" result="bg"/><feBlend in="SourceGraphic" in2="bg"/></filter><mask id="mask-6" x="137.04" y="129.09" width="209.27" height="231.95" maskUnits="userSpaceOnUse"><g class="cls-1"><polygon class="cls-2" points="209.01 129.09 137.04 361.04 346.31 361.04 278.3 129.09 209.01 129.09"/></g></mask><linearGradient id="linear-gradient-16" x1="241.68" y1="361.04" x2="241.68" y2="129.09" gradientUnits="userSpaceOnUse"><stop offset="0" stop-color="#fff"/><stop offset="1" stop-color="#f9d77f"/></linearGradient><filter id="luminosity-noclip-7" x="239.75" y="0" width="6.62" height="91.26" filterUnits="userSpaceOnUse" color-interpolation-filters="sRGB"><feFlood flood-color="#fff" result="bg"/><feBlend in="SourceGraphic" in2="bg"/></filter><mask id="mask-7" x="239.75" y="0" width="6.62" height="91.26" maskUnits="userSpaceOnUse"><g class="cls-3"><rect class="cls-4" x="239.75" width="6.62" height="91.26"/></g></mask><linearGradient id="linear-gradient-17" x1="243.06" y1="91.26" x2="243.06" gradientUnits="userSpaceOnUse"><stop offset="0" stop-color="#dfcaff"/><stop offset="1" stop-color="#fff"/></linearGradient><filter id="luminosity-noclip-8" x="580.6" y="129.09" width="209.27" height="231.95" filterUnits="userSpaceOnUse" color-interpolation-filters="sRGB"><feFlood flood-color="#fff" result="bg"/><feBlend in="SourceGraphic" in2="bg"/></filter><mask id="mask-8" x="580.6" y="129.09" width="209.27" height="231.95" maskUnits="userSpaceOnUse"><g class="cls-5"><polygon class="cls-6" points="652.56 129.09 580.6 361.04 789.87 361.04 721.86 129.09 652.56 129.09"/></g></mask><linearGradient id="linear-gradient-18" x1="685.23" y1="361.04" x2="685.23" y2="129.09" xlink:href="#linear-gradient-16"/><filter id="luminosity-noclip-9" x="683.3" y="0" width="6.62" height="91.26" filterUnits="userSpaceOnUse" color-interpolation-filters="sRGB"><feFlood flood-color="#fff" result="bg"/><feBlend in="SourceGraphic" in2="bg"/></filter><mask id="mask-9" x="683.3" y="0" width="6.62" height="91.26" maskUnits="userSpaceOnUse"><g class="cls-7"><rect class="cls-8" x="683.3" width="6.62" height="91.26"/></g></mask><linearGradient id="linear-gradient-19" x1="686.61" y1="91.26" x2="686.61" xlink:href="#linear-gradient-17"/><linearGradient id="linear-gradient-20" x1="234.03" y1="541.31" x2="251.18" y2="541.31" gradientTransform="translate(574.19 49.44) rotate(58.13)" xlink:href="#linear-gradient-9"/><linearGradient id="linear-gradient-21" x1="265.89" y1="541.31" x2="283.04" y2="541.31" gradientTransform="translate(589.22 22.39) rotate(58.13)" xlink:href="#linear-gradient-9"/><linearGradient id="linear-gradient-22" x1="202.18" y1="398.98" x2="275.77" y2="398.98" xlink:href="#linear-gradient-9"/><linearGradient id="linear-gradient-23" x1="171.37" y1="389.8" x2="248" y2="389.8" xlink:href="#linear-gradient-9"/><linearGradient id="linear-gradient-24" x1="326.72" y1="522.85" x2="406.55" y2="522.85" xlink:href="#linear-gradient-6"/><linearGradient id="linear-gradient-25" x1="389.83" y1="524.45" x2="406.56" y2="524.45" xlink:href="#linear-gradient-6"/><linearGradient id="linear-gradient-26" x1="328.77" y1="507.12" x2="400.9" y2="507.12" xlink:href="#linear-gradient-6"/><linearGradient id="linear-gradient-27" x1="573.26" y1="522.85" x2="653.1" y2="522.85" xlink:href="#linear-gradient-9"/><linearGradient id="linear-gradient-28" x1="573.25" y1="524.45" x2="589.98" y2="524.45" xlink:href="#linear-gradient-9"/><linearGradient id="linear-gradient-29" x1="578.91" y1="507.12" x2="651.05" y2="507.12" xlink:href="#linear-gradient-9"/><linearGradient id="linear-gradient-30" x1="400.01" y1="158.96" x2="437.5" y2="158.96" xlink:href="#linear-gradient-6"/><linearGradient id="linear-gradient-31" x1="404.42" y1="186.08" x2="431.74" y2="186.08" xlink:href="#linear-gradient-9"/><linearGradient id="linear-gradient-32" x1="526.74" y1="258.2" x2="547" y2="258.2" xlink:href="#linear-gradient-9"/><linearGradient id="linear-gradient-33" x1="529.7" y1="215.95" x2="536.1" y2="215.95" xlink:href="#linear-gradient-9"/><linearGradient id="linear-gradient-34" x1="534.68" y1="216.11" x2="538.83" y2="216.11" xlink:href="#linear-gradient-9"/><linearGradient id="linear-gradient-35" x1="533.77" y1="231.28" x2="542.29" y2="231.28" xlink:href="#linear-gradient-6"/><linearGradient id="linear-gradient-36" x1="531.69" y1="217.35" x2="537.92" y2="217.35" xlink:href="#linear-gradient-9"/><linearGradient id="linear-gradient-37" x1="528.74" y1="218.64" x2="534.57" y2="218.64" xlink:href="#linear-gradient-9"/><linearGradient id="linear-gradient-38" x1="533.89" y1="218.82" x2="539.66" y2="218.82" xlink:href="#linear-gradient-9"/><filter id="luminosity-noclip-10" x="837.91" y="271.37" width="146.75" height="287.27" filterUnits="userSpaceOnUse" color-interpolation-filters="sRGB"><feFlood flood-color="#fff" result="bg"/><feBlend in="SourceGraphic" in2="bg"/></filter><mask id="mask-10" x="837.91" y="271.37" width="146.75" height="287.27" maskUnits="userSpaceOnUse"><g class="cls-9"><path class="cls-10" d="M878.35,277.52c0-3.45,16.28-6.2,36.33-6.15s36.27,2.9,36.25,6.34l33.73,280.93-146.75-1.88Z"/></g></mask><linearGradient id="linear-gradient-39" x1="-861.84" y1="1460.04" x2="-861.84" y2="1662.54" gradientTransform="matrix(-1, 0, 0, 1.26, 57.19, -1567.29)" gradientUnits="userSpaceOnUse"><stop offset="0" stop-color="#f9d77f"/><stop offset="1" stop-color="#fff"/></linearGradient><linearGradient id="linear-gradient-40" x1="911.71" y1="396.85" x2="917.56" y2="396.85" gradientTransform="translate(1829.26 793.69) rotate(-180)" xlink:href="#linear-gradient-9"/><linearGradient id="linear-gradient-41" x1="878.33" y1="252.7" x2="950.94" y2="252.7" xlink:href="#linear-gradient-9"/><linearGradient id="linear-gradient-42" x1="878.37" y1="276.33" x2="950.95" y2="276.33" xlink:href="#linear-gradient-9"/></defs><g id="Layer_2" data-name="Layer 2"><g id="layer_1-2" data-name="layer 1"><path class="cls-12" d="M15.24,369.32C-22.12,253.58-.28,7.43,188.84,2.14c177.65-5,221.21,83.17,348.83,73.46,94.18-7.18,244-92.41,351.23-20.84,119.89,80,125,540.13-173.61,504.94s-436.71,15.55-534.55-9.19S41,449,15.24,369.32Z"/><path class="cls-13" d="M943.73,561.91c0,13.05-195.35,23.62-436.33,23.62S71.06,575,71.06,561.91,266.42,538.3,507.4,538.3,943.73,548.87,943.73,561.91Z"/><rect class="cls-14" x="122.38" y="100.26" width="207.26" height="267.27" transform="translate(452.01 467.8) rotate(180)"/><polygon class="cls-15" points="257.49 362.71 279.19 362.71 186.98 103.32 165.28 103.32 257.49 362.71"/><polygon class="cls-15" points="295.81 362.71 306.65 362.71 214.44 103.32 203.59 103.32 295.81 362.71"/><polygon class="cls-15" points="190.37 362.71 201.22 362.71 124.75 131.38 122.44 146.44 190.37 362.71"/><rect class="cls-16" x="326.58" y="97.21" width="6.12" height="273.78" transform="translate(659.27 468.19) rotate(180)"/><rect class="cls-16" x="257.49" y="98.59" width="6.12" height="271.02" transform="translate(521.1 468.19) rotate(180)"/><rect class="cls-16" x="222.95" y="-6.42" width="6.12" height="213.37" transform="translate(125.74 326.27) rotate(-90)"/><rect class="cls-16" x="222.95" y="260.85" width="6.12" height="213.37" transform="translate(-141.53 593.54) rotate(-90)"/><rect class="cls-16" x="188.41" y="98.59" width="6.12" height="271.02" transform="translate(382.93 468.19) rotate(180)"/><rect class="cls-16" x="119.32" y="97.21" width="6.12" height="273.78" transform="translate(244.75 468.19) rotate(180)"/><rect class="cls-16" x="222.95" y="127.41" width="6.12" height="213.37" transform="translate(-8.09 460.1) rotate(-90)"/><rect class="cls-13" x="224.93" y="137.69" width="2.16" height="201.08" transform="translate(464.24 12.23) rotate(90)"/><rect class="cls-13" x="224.93" y="263.25" width="2.16" height="201.08" transform="translate(589.8 137.78) rotate(90)"/><rect class="cls-13" x="224.93" y="3.8" width="2.16" height="201.19" transform="translate(330.41 -121.61) rotate(90)"/><rect class="cls-14" x="658.56" y="100.26" width="207.26" height="267.27" transform="translate(1524.37 467.8) rotate(180)"/><polygon class="cls-15" points="793.67 362.71 815.37 362.71 723.16 103.32 701.46 103.32 793.67 362.71"/><polygon class="cls-15" points="831.98 362.71 842.83 362.71 750.62 103.32 739.77 103.32 831.98 362.71"/><polygon class="cls-15" points="726.55 362.71 737.4 362.71 660.92 131.38 658.62 146.44 726.55 362.71"/><rect class="cls-16" x="862.76" y="97.21" width="6.12" height="273.78" transform="translate(1731.63 468.19) rotate(180)"/><rect class="cls-16" x="793.67" y="98.59" width="6.12" height="271.02" transform="translate(1593.46 468.19) rotate(180)"/><rect class="cls-16" x="759.13" y="-6.42" width="6.12" height="213.37" transform="translate(661.92 862.45) rotate(-90)"/><rect class="cls-16" x="759.13" y="260.85" width="6.12" height="213.37" transform="translate(394.65 1129.72) rotate(-90)"/><rect class="cls-16" x="724.58" y="98.59" width="6.12" height="271.02" transform="translate(1455.29 468.19) rotate(180)"/><rect class="cls-16" x="655.5" y="97.21" width="6.12" height="273.78" transform="translate(1317.11 468.19) rotate(180)"/><rect class="cls-16" x="759.13" y="127.41" width="6.12" height="213.37" transform="translate(528.09 996.28) rotate(-90)"/><rect class="cls-13" x="761.11" y="137.69" width="2.16" height="201.08" transform="translate(1000.42 -523.95) rotate(90)"/><rect class="cls-13" x="761.11" y="263.25" width="2.16" height="201.08" transform="translate(1125.98 -398.4) rotate(90)"/><rect class="cls-13" x="761.11" y="3.8" width="2.16" height="201.19" transform="translate(866.59 -657.79) rotate(90)"/><rect class="cls-17" x="307.77" y="389.03" width="23.69" height="26.24" transform="translate(639.22 804.31) rotate(180)"/><rect class="cls-18" x="304.49" y="389.03" width="23.69" height="26.24" transform="translate(632.66 804.31) rotate(180)"/><path class="cls-17" d="M300.87,406.35h39.7a0,0,0,0,1,0,0v7.3a2.9,2.9,0,0,1-2.9,2.9h-33.9a2.9,2.9,0,0,1-2.9-2.9v-7.3A0,0,0,0,1,300.87,406.35Z" transform="translate(641.44 822.9) rotate(180)"/><path class="cls-18" d="M295.37,406.35h41.89a0,0,0,0,1,0,0v7.3a2.9,2.9,0,0,1-2.9,2.9H298.27a2.9,2.9,0,0,1-2.9-2.9v-7.3A0,0,0,0,1,295.37,406.35Z" transform="translate(632.63 822.9) rotate(180)"/><path class="cls-17" d="M381.18,308.44H275.28a6.79,6.79,0,0,0-6.51,5.7l-3.68,67.11,0-.09-3.27,2.74,3.13,5.49h0a4.81,4.81,0,0,0,4.43,2.64h105.9a6.79,6.79,0,0,0,6.51-5.7l4.34-72.18A4.84,4.84,0,0,0,381.18,308.44Z"/><path class="cls-18" d="M372.15,386.64H266.25a4.84,4.84,0,0,1-4.9-5.7l4.34-66.8a6.79,6.79,0,0,1,6.51-5.7H378.1a4.83,4.83,0,0,1,4.9,5.7l-4.34,66.8A6.79,6.79,0,0,1,372.15,386.64Z"/><path class="cls-16" d="M368.44,383.59H270.82a4.47,4.47,0,0,1-4.52-5.26l3.61-61.58a6.26,6.26,0,0,1,6-5.25h97.62a4.46,4.46,0,0,1,4.52,5.25l-3.61,61.58A6.27,6.27,0,0,1,368.44,383.59Z"/><g class="cls-19"><path class="cls-20" d="M302.72,391.93c-1.47.31-2.74-.85-3.74-4.72-.78-3-1.51-21.57-1.51-21.57l3.65-1.57s6.78,16.05,7.85,21C309.7,388.56,306,391.25,302.72,391.93Z"/><path class="cls-20" d="M333.51,363c2.33,2.44-7.86,17.3-28.26,31.8-5.22,3.72-7.48-7.42-4.64-9.95s18-16.66,18-16.66S329.17,358.42,333.51,363Z"/><path class="cls-21" d="M315,396.18c2.68,2.83,13.08,2.95,19.11,2.75,2.6-.08,4.39-.22,4.39-.22s-.76-2.85,1.7-8.16c.84-1.84,2.25-4.68,3.73-7.76,0,0,0,0,0,0,.38-.77.75-1.56,1.12-2.36l.32-.69c.82-1.74,1.58-3.46,2.22-5a3.12,3.12,0,0,0,.16-.41,17.15,17.15,0,0,0,1.59-5.67.93.93,0,0,0,0-.24c-.22-1.23-1.42-2.7-2.8-4l-.8-.74,0,0c-1.88-1.68-5.17-1.83-5.17-1.83-3.42,0-11.55.38-11.55.38s-12.22,8.8-14.22,12.58,1.78,7.78,1.78,7.78C316.84,385.5,315.8,392.79,315,396.18Z"/><path class="cls-20" d="M330.07,352.19a46.66,46.66,0,0,1,.27,9.88c-3.16,4.75,10.73.29,10.73.29a27.48,27.48,0,0,1-.26-3.33c-.07-2.41.05-4.8.1-5.5v-.19Z"/><path class="cls-22" d="M330.07,352.19c.07.38.14.73.19,1.06a14.4,14.4,0,0,1,.21,2.65c0,.86,0,2.19,0,3.1,2.37,1.68,8.6-1.87,10.37-4.09,0-2.45.31-5.12.31-5.12Z"/><path class="cls-23" d="M316.5,382.49c4.66.94,12.2,3.59,16.72,1.88,0,0-5.56,3.93-16.81,2.6C316.41,387,316.6,384.19,316.5,382.49Z"/><path class="cls-20" d="M315.75,398.72s-3.56,51.79-2.89,67.13S334.81,517,334.81,517l2.08-1.84s-9.36-47.28-9.36-51.72-1.11-62.69-1.11-62.69Z"/><path class="cls-22" d="M322.55,473.19l1.5,24.1-2.9-6.22s-.62-12.1-2.07-14.88-5.78-6.5-5.78-6.5l-.44-3.84,9.58,2Z"/><path class="cls-20" d="M339.09,403.16s3.56,26.9,2.22,45.8-14.67,71.8-14.67,71.8h-3.11s-2.45-84,0-93.59,2.89-26.45,2.89-26.45Z"/><polygon class="cls-22" points="332.89 494.43 329.77 508.02 330.4 509.21 333.42 497.31 332.89 494.43"/><path class="cls-24" d="M314.36,398.72s-11.17,46.13-8.84,67.13c0,0,17,7.34,43.81,3,0,0-.35-43.54-10.24-65.66C339.09,403.16,322.86,401.05,314.36,398.72Z"/><path class="cls-25" d="M326.74,520.29l.54,3.55H313.86s4.36-3.54,8.62-3.54h1a3,3,0,0,0,3.1.06Z"/><rect class="cls-23" x="313.86" y="523.84" width="13.42" height="1"/><path class="cls-25" d="M336.6,513.41l2.86,2.17-9.65,9.34s.68-5.58,3.74-8.54l.74-.73h0a3,3,0,0,0,2.27-2.11Z"/><rect class="cls-23" x="328.27" y="520.11" width="13.42" height="1" transform="translate(-267.79 379.47) rotate(-44.06)"/><path class="cls-20" d="M340.49,377.65c.05,4.56,2.61,6,3.41,5.14,0,0,0,0,0,0,.11-.19.2-.4.32-.6.38-.75.76-1.52,1.14-2.32.8-1.72,1.57-3.51,2.2-5.15a3.12,3.12,0,0,0,.16-.41,21.12,21.12,0,0,0,1.59-5.67.93.93,0,0,0,0-.24,3.24,3.24,0,0,0-.13-.49c-.63-2-3.14-4-3.47-4.27l0,0s-4,6.16-4.91,11A14.63,14.63,0,0,0,340.49,377.65Z"/><path class="cls-22" d="M340.49,377.65c.05,4.56,2.61,6,3.41,5.14l.33-.63c0-.17,0-.29,0-.29s.87-11.91-1.08-12.43A29.17,29.17,0,0,0,340.49,377.65Z"/><path class="cls-23" d="M338.47,398.71s-.76-2.85,1.7-8.16c.84-1.84,2.25-4.68,3.73-7.76-.8.84-3.36-.58-3.41-5.14.25,7.33-4.13,16.85-6.41,21.28C336.68,398.85,338.47,398.71,338.47,398.71Z"/><path class="cls-26" d="M315.46,393.94s-1.87,2.9-1.32,5.48c0,0,9.22,5.15,24.95,3.74,0,0,.2-4.17-.72-5.29C338.37,397.87,320.71,398.61,315.46,393.94Z"/><path class="cls-26" d="M326.42,400.72s-1.69,17.89-2.37,21.34-.87,6.11,4.78,8.44,13.42,39.24,13.42,39.24l7.08-.92s-1.47-42.56-10.24-65.66Z"/><path class="cls-20" d="M361.9,405c.42,1.45-.63,2.8-4.41,4.1-3,1-21.38,3.2-21.38,3.2l-1.86-3.52s17.12-8.37,20.64-8.07S361,401.8,361.9,405Z"/><path class="cls-20" d="M346,365.39c3.23-1,12,14.73,15.9,39.46,1,6.33-11.34-.67-12.34-4.34S344,381.06,344,381.06,340,367.25,346,365.39Z"/><path class="cls-22" d="M350,402a27.69,27.69,0,0,1,6.47-1s-5.6-1.44-10.77-14.13Z"/><path class="cls-20" d="M339,410.67a6.52,6.52,0,0,0-2.12,1.77c-.33,2.53-1.76,3.57-2.22,3.56-.8,0-3.92-2.56-4.18-3.9-.45-2.24,6.1-4.28,6.1-4.28Z"/><path class="cls-20" d="M331,411.62a1.43,1.43,0,0,1-.92.27,7.6,7.6,0,0,0-2,1.09c-.47.37-1.54.48-1.41-.11a3.9,3.9,0,0,1,1.85-2.2c.55-.22,4.06-1.33,4.69-1.11S331.43,411.23,331,411.62Z"/><path class="cls-20" d="M331.41,411.79a.66.66,0,0,0-.12-.27.67.67,0,0,0-.84-.27.86.86,0,0,0-.3.3.48.48,0,0,0-.27.21,8.32,8.32,0,0,0-1.38,2.74c-.16.87.48,1.5,1.23,1.18S332.3,412.78,331.41,411.79Z"/><path class="cls-20" d="M332.87,412.37a.84.84,0,0,0-.13-.27.65.65,0,0,0-.84-.26.92.92,0,0,0-.3.29.57.57,0,0,0-.26.21,8.16,8.16,0,0,0-1.39,2.74c-.16.88.49,1.5,1.23,1.18C332.09,415.87,333.75,413.36,332.87,412.37Z"/><path class="cls-20" d="M334.58,413a1.59,1.59,0,0,0-.12-.27.69.69,0,0,0-.85-.26,1,1,0,0,0-.3.29.53.53,0,0,0-.26.22,8.18,8.18,0,0,0-1.38,2.73c-.17.88.48,1.51,1.22,1.18C333.8,416.53,335.47,414,334.58,413Z"/><path class="cls-20" d="M335.72,413.57a1.28,1.28,0,0,0-.11-.24.6.6,0,0,0-.74-.23.83.83,0,0,0-.27.26.5.5,0,0,0-.23.19,7.41,7.41,0,0,0-1.22,2.41c-.15.77.43,1.33,1.08,1S336.5,414.44,335.72,413.57Z"/><path class="cls-27" d="M345.51,331.44a11.21,11.21,0,0,0,7.1,2.25c.57,0,1.22,0,1.9,0,.43,0,.85-.05,1.28-.12a5.67,5.67,0,0,0,3.45-1.42,3.64,3.64,0,0,0,.35-.45,4.38,4.38,0,0,0,.65-2,10.62,10.62,0,0,0-.84-4.7,16.66,16.66,0,0,0-5.7-6.91c-2.13-1.61-4.92-3.8-7.78-3.35a9.09,9.09,0,0,0-3.74,1.57,8.88,8.88,0,0,0-1.85,1.76c-.12.15-.22.31-.32.46C336.81,323.67,341.22,328.89,345.51,331.44Z"/><path class="cls-28" d="M340.33,318.08a24.38,24.38,0,0,1,3-.24c7,1.56,11.05,8.58,11.15,15.83.43,0,.85-.05,1.28-.12-.08-6-2.75-11.87-7.45-15a12.18,12.18,0,0,1,5.31,3.5,31,31,0,0,1,5.94,9.64,4.38,4.38,0,0,0,.65-2,30.85,30.85,0,0,0-6.37-9.33c-2.91-2.92-6.5-3.86-10.3-3.84-.45-.09-.91-.17-1.39-.22A8.88,8.88,0,0,0,340.33,318.08Z"/><path class="cls-28" d="M322.92,325.17s-14.52,24,9.47,31.14c0,0-4.52-8.21-3.47-12.79C328.92,343.52,325.68,330.68,322.92,325.17Z"/><path class="cls-20" d="M342.85,336.17s-.5,12.43-1.92,15.68-7.8,6.26-11,5.93c-5.26-.55-7.8-6.1-8.55-8.77s-.25-11.33,0-13.34,2.08-7.5,2.92-8.33S340.43,327.92,342.85,336.17Z"/><path class="cls-28" d="M340.85,335.1a23.12,23.12,0,0,0-.14,9.29c1.14-1-.08,10-.08,10s14.32-10,7.91-24.84c0,0,0,0,0,0a12.84,12.84,0,0,0-5.16-5.43c-5.74-3.12-12.41-.41-12.41-.41-12-3.5-13.34,13.21-13.34,13.21C327.62,328.1,340.85,335.1,340.85,335.1Z"/><path class="cls-20" d="M340.58,343.65c1-.74,4.18-.69,4.77,1.05.75,2.18-3.16,6.59-5.42,3.77C339,347.29,339.7,344.29,340.58,343.65Z"/><path class="cls-22" d="M341.68,344.87s2.34-.91,2.34.26a3,3,0,0,1-2.34,2.81,2.26,2.26,0,0,0,.65-1.7A2.43,2.43,0,0,0,341.68,344.87Z"/><path class="cls-28" d="M316.05,350.1c1.86-.25,2.57-1,2.13-2.24a5.92,5.92,0,0,0-.36-1.55c-.25-1-.59-2-.8-3a15.3,15.3,0,0,1-.36-4.67,8.52,8.52,0,0,1,3.95-6.58c.7-.46,1.35.67.65,1.12-3.65,2.33-3.73,6.6-2.85,10.4.4,1.76,1.37,3.62,1.14,5.47-.26,2.21-2.19,3.52-4.15,2.2C314.71,350.76,315.36,349.63,316.05,350.1Z"/><path class="cls-28" d="M337.21,353.47c-1.52-1.61-.29-5,.38-6.76,1.91-5,4.32-11-1-15-.67-.49,0-1.62.65-1.12a9.66,9.66,0,0,1,4,8A15.5,15.5,0,0,1,340,344.2c-.57,1.5-3.22,6.45-1.91,8.24l.21-.47c.32-.77,1.44-.11,1.12.65l-.51,1.19a.66.66,0,0,1-.89.23,2.4,2.4,0,0,1-.83-.57Z"/><path class="cls-20" d="M291.83,360.11a1.19,1.19,0,0,0,.25,1.43,1.27,1.27,0,0,0-.62.61,1.11,1.11,0,0,0,.41,1.47,1,1,0,0,0-.53.95,1.32,1.32,0,0,0,.53,1.11.82.82,0,0,0-.37,1.21c.9,1.18,3,1.08,4.34.93s3-.63,3.45-2.13c.73-2.21-1-4.68-3.07-5.41l0,0C295.13,359.83,292.48,358.49,291.83,360.11Z"/><path class="cls-29" d="M300.34,371.62h0a.94.94,0,0,1-1.27-.41L277.23,328l.34-.17,23.15,42.49A.93.93,0,0,1,300.34,371.62Z"/><path class="cls-20" d="M298.76,359.92a19.33,19.33,0,0,1,2.67,5c.14.59-1.14.44-1.87.19a4.4,4.4,0,0,1-2.33-2.18c-.17-.47.28-1.29,0-1.69s-1.25-.57-1.85-.61c-1-.07-1.51-1.64-.49-1.72S297.93,359,298.76,359.92Z"/><path class="cls-20" d="M292.53,365.37a1.08,1.08,0,0,1,.46-.3l-.52-.25a1.15,1.15,0,0,1-.38-1.44.45.45,0,0,1,.18-.1l-.14-.07a1.26,1.26,0,0,1-.43-1.59s.06,0,.08-.06a1.26,1.26,0,0,1-.36-1.52c.47-.55,1.07-.46,1.79-.38a25.74,25.74,0,0,1,2.56.42,1.46,1.46,0,0,1,1,1.65.65.65,0,0,1-.07.21c.29.06.57.08.85.15a1.46,1.46,0,0,1,1,1.65.64.64,0,0,1-.4.56,1.33,1.33,0,0,1,.66,1.37.57.57,0,0,1-.38.53,3.2,3.2,0,0,1-1.11.06,1.32,1.32,0,0,1,.06.64.57.57,0,0,1-.38.52,5.08,5.08,0,0,1-4-.61A1.14,1.14,0,0,1,292.53,365.37Z"/><path class="cls-22" d="M296.65,361.94s-2.93-.21-3.88-.44c0,0,3.68.33,4,.23Z"/><path class="cls-22" d="M298.06,364.3s-2.31-.26-3.45-.52c0,0,3.19.75,3.76.76Z"/><path class="cls-30" d="M329.47,353.61a5.23,5.23,0,0,1-2.52-.76.28.28,0,0,1-.11-.39.29.29,0,0,1,.4-.11,3.86,3.86,0,0,0,3.17.52,3.71,3.71,0,0,0,2-1.89.28.28,0,0,1,.37-.16.29.29,0,0,1,.16.38,4.24,4.24,0,0,1-2.3,2.22A3.57,3.57,0,0,1,329.47,353.61Z"/><path class="cls-30" d="M326.26,342.78a1.33,1.33,0,0,1-1.24,1.29,1.27,1.27,0,0,1-1-1.52,1.3,1.3,0,0,1,1.32-1.29A1.32,1.32,0,0,1,326.26,342.78Z"/><path class="cls-30" d="M334.27,343.19a1.46,1.46,0,0,1-1.38,1.43,1.4,1.4,0,0,1-1.13-1.68,1.42,1.42,0,0,1,1.47-1.43A1.44,1.44,0,0,1,334.27,343.19Z"/><path class="cls-30" d="M328.05,349.25a1.93,1.93,0,0,1-1.18-.27.5.5,0,0,1-.15-.54,7.89,7.89,0,0,1,.29-.75,21.64,21.64,0,0,0,1.1-3,.29.29,0,1,1,.55.16,24.09,24.09,0,0,1-1.11,3.08,6.58,6.58,0,0,0-.27.64,4.8,4.8,0,0,0,2.1-.05.29.29,0,0,1,.38.15.29.29,0,0,1-.16.38A5.87,5.87,0,0,1,328.05,349.25Z"/><path class="cls-30" d="M336.65,339.66a.32.32,0,0,1-.18-.06,5.33,5.33,0,0,0-4.77-.87.29.29,0,1,1-.2-.54,5.83,5.83,0,0,1,5.33.95.29.29,0,0,1,.05.41A.3.3,0,0,1,336.65,339.66Z"/><path class="cls-30" d="M322.62,339.36a.29.29,0,0,1-.21-.09.3.3,0,0,1,0-.41,5,5,0,0,1,4.78-1.14.29.29,0,0,1,.18.37.28.28,0,0,1-.37.18,4.33,4.33,0,0,0-4.18,1A.28.28,0,0,1,322.62,339.36Z"/></g><rect class="cls-17" x="271.9" y="405.14" width="9.19" height="2.06"/><rect class="cls-17" x="282.72" y="405.14" width="9.19" height="2.06"/><rect class="cls-17" x="293.53" y="405.14" width="9.19" height="2.06"/><rect class="cls-17" x="304.34" y="405.14" width="30.46" height="2.06"/><rect class="cls-17" x="336.78" y="405.14" width="9.19" height="2.06"/><rect class="cls-17" x="347.59" y="405.14" width="9.19" height="2.06"/><rect class="cls-17" x="358.4" y="405.14" width="9.19" height="2.06"/><rect class="cls-17" x="369.21" y="405.14" width="9.19" height="2.06"/><path class="cls-17" d="M265.88,407.21h121a0,0,0,0,1,0,0v3.92a5.43,5.43,0,0,1-5.43,5.43H271.31a5.43,5.43,0,0,1-5.43-5.43v-3.92A0,0,0,0,1,265.88,407.21Z"/><rect class="cls-18" x="265.75" y="407.2" width="121.13" height="3.45"/><polygon class="cls-17" points="835.11 427.79 544.05 427.79 537.41 416.55 841.75 416.55 835.11 427.79"/><polygon class="cls-17" points="543.42 557.44 537.49 557.44 547.74 427.79 560.31 427.79 543.42 557.44"/><polygon class="cls-29" points="574.04 557.44 568.11 557.44 578.35 427.79 590.93 427.79 574.04 557.44"/><polygon class="cls-17" points="833.34 557.44 839.28 557.44 829.03 427.79 816.45 427.79 833.34 557.44"/><polygon class="cls-29" points="804.91 557.44 810.85 557.44 800.6 427.79 788.02 427.79 804.91 557.44"/><rect class="cls-17" x="634.09" y="389.03" width="23.69" height="26.24"/><rect class="cls-18" x="637.37" y="389.03" width="23.69" height="26.24"/><path class="cls-17" d="M627.87,406.35h33.9a2.9,2.9,0,0,1,2.9,2.9v7.3a0,0,0,0,1,0,0H625a0,0,0,0,1,0,0v-7.3A2.9,2.9,0,0,1,627.87,406.35Z"/><path class="cls-18" d="M631.19,406.35h36.08a2.9,2.9,0,0,1,2.9,2.9v7.3a0,0,0,0,1,0,0H628.28a0,0,0,0,1,0,0v-7.3A2.9,2.9,0,0,1,631.19,406.35Z"/><path class="cls-17" d="M584.36,308.44H690.27a6.77,6.77,0,0,1,6.5,5.7l3.69,67.11,0-.09,3.28,2.74-3.13,5.49h0a4.81,4.81,0,0,1-4.43,2.64H590.31a6.77,6.77,0,0,1-6.5-5.7l-4.35-72.18A4.84,4.84,0,0,1,584.36,308.44Z"/><path class="cls-18" d="M593.39,386.64h105.9a4.85,4.85,0,0,0,4.91-5.7l-4.35-66.8a6.79,6.79,0,0,0-6.51-5.7H587.44a4.84,4.84,0,0,0-4.9,5.7l4.35,66.8A6.77,6.77,0,0,0,593.39,386.64Z"/><path class="cls-16" d="M597.1,383.59h97.62a4.47,4.47,0,0,0,4.52-5.26l-3.61-61.58a6.25,6.25,0,0,0-6-5.25H592a4.47,4.47,0,0,0-4.52,5.25l3.62,61.58A6.25,6.25,0,0,0,597.1,383.59Z"/><g class="cls-31"><path class="cls-32" d="M629.91,483s11.44-4.81,15.26-8.44l3.29-12L641.35,468l-13,13.11Z"/><path class="cls-32" d="M655.32,419.58c-.47,2.76-6.31,46-8.4,53.25-.6,2.05-3.95,3.4-5.57,4.63-.16,6.19-.36,14.2-.36,14.2h-3.45s-8.6-55.25-9.93-63.28,0-22,0-22c1.06,0,2.21,0,3.44,0,9.9-.37,24.27-3.25,24.27-3.25A66.81,66.81,0,0,1,655.32,419.58Z"/><path class="cls-33" d="M641.35,477.46l1.36-53.86a43.9,43.9,0,0,0,4.21-5.16,38.7,38.7,0,0,1-3,5.92s.67,4.62-1.58,52.41Z"/><path class="cls-33" d="M638.45,491.66h-.91s-8.6-55.25-9.93-63.28,0-22,0-22h9.55a42.7,42.7,0,0,0-4.78,21.7C632.75,437.83,636.59,474.32,638.45,491.66Z"/><path class="cls-34" d="M637.53,491.09l-.48,2.86H648.9s-3.85-2.86-7.61-2.86c0,.37-2.73,1-3.66.05Z"/><rect class="cls-35" x="637.05" y="493.95" width="11.85" height="0.81"/><path class="cls-34" d="M628.89,480.19l-2.74.95,5.7,10.39s.65-4.75-1.15-8c-.31.22-2.19-1.91-1.81-3.18Z"/><rect class="cls-35" x="628.23" y="480.61" width="0.81" height="11.85" transform="translate(-156.58 362.68) rotate(-28.77)"/><path class="cls-20" d="M649.85,359.48S667.4,385,666.24,390.9s-8.88,7.33-12.16,4.86S647.67,362.73,649.85,359.48Z"/><path class="cls-20" d="M676.78,366.31s-7.82,27.24-12.52,31-10.69-.68-11-4.3c-.21-2.66,12.61-18.37,20.26-31A9.92,9.92,0,0,1,676.78,366.31Z"/><path class="cls-22" d="M656.69,371.87s1,9.64.43,14.74,1.75,11.79,3.58,11.88c0,0-3.52,1.22-6.62-2.73s.69-24,.69-24Z"/><path class="cls-36" d="M647.21,356.52s9.47,6.29,11.8,11.93c0,0-5.38,8.44-11,9.88,0,0-3.91-18.73-3.08-20.54A1.9,1.9,0,0,1,647.21,356.52Z"/><path class="cls-37" d="M651.07,361.72s1.29,6.46,2.1,13.57l3.75-4S653.47,364.21,651.07,361.72Z"/><path class="cls-38" d="M634.78,348.8s-6.17-4.1-5.43-6.24,5.77,2.87,5.77,2.87Z"/><path class="cls-20" d="M647.77,347.28c-.14.35-.27.69-.37,1a17.2,17.2,0,0,0-.6,2.51,18.86,18.86,0,0,0-.28,2.33,21.41,21.41,0,0,0,.09,4c-6.57,3.24-13.68-1.22-13.68-1.22a20.34,20.34,0,0,0,.76-3.16,47.66,47.66,0,0,0,.59-5.28.45.45,0,0,0,0-.11.42.42,0,0,0,0-.07Z"/><path class="cls-22" d="M647.77,347.28c-.14.35-.27.69-.37,1a10.55,10.55,0,0,0-.6,2.51,18.86,18.86,0,0,0-.28,2.33,16.13,16.13,0,0,1-9.19,1.37,8.74,8.74,0,0,1-3.64-1.75,47.66,47.66,0,0,0,.59-5.28.45.45,0,0,0,0-.11.42.42,0,0,0,0-.07Z"/><path class="cls-20" d="M632.25,344.35a14.05,14.05,0,0,0,4,6.59c3,2.56,12,2.66,14-.95s-.18-19.74-1-21.16-13.39-6.2-17.28,0S632.25,344.35,632.25,344.35Z"/><path class="cls-38" d="M624.1,328.39a11.05,11.05,0,0,1,3-1.14,6.58,6.58,0,0,1-1.25-4.27c0-.69,1.13-.74,1.08-.05a5.57,5.57,0,0,0,1.09,3.72c4.09-9.9,21.29-10.1,24.56-5.37l-.12-.45a.52.52,0,0,1,1-.28,10.11,10.11,0,0,1,.46,3.58l.25-.86c0-.09,0-.17,0-.25.06-.67,1.11-.68,1,0h0a.44.44,0,0,1,0,.28c0,.11-.07.22-.1.34a7.49,7.49,0,0,1-.57,1.94c-.49,1.57-1.17,3.13-2.6,3.84a3.19,3.19,0,0,1-3.2-.3c-4.61-.26-11.08-1-14.08.82,2.43,5.42,2.47,12.65-1.35,13.94-.82.27-3.61,0-4.66-1.37-3.84-5.2-2.72-12.61-1.5-14.19a9.39,9.39,0,0,0-2.55,1C624.08,329.65,623.5,328.74,624.1,328.39Z"/><path class="cls-20" d="M633.8,340.68c-.75-1.06-3.49-2.26-4.39-1.08a3.71,3.71,0,0,0,4.11,5.57C634.91,344.83,634.44,341.6,633.8,340.68Z"/><path class="cls-39" d="M632.54,354.18s-7.85,3.76-11.09,6.28c0,0,5.26,39.22,4.45,50.37,0,0,25.47-.41,30.5-6.16,0,0-.22-23.08-1.9-32.16-1.63-8.74-3.33-13.48-7.29-16C647.21,356.52,641.17,360.47,632.54,354.18Z"/><path class="cls-37" d="M623.29,380.44s3.69,25.62,2.61,30.39a82.5,82.5,0,0,0,11.87-2.51s-9-17.85-8.53-26.62c.78-13.43-8.52-19.29-8.52-19.29S624.91,376.66,623.29,380.44Z"/><path class="cls-22" d="M632.54,341.48s-1.86-1.62-2.45-1.06c-1.28,1.23.46,3.34,1.08,3.71,0,0-.16-1.67.27-2.15A1.63,1.63,0,0,1,632.54,341.48Z"/><path class="cls-20" d="M622,361.41c-8.91,4.43-15.51,30.71-15.63,40.84,0,2.42,10.83,2.37,11.23,1.46,1-2.28,8-25.41,8-25.41S627.15,368,622,361.41Z"/><path class="cls-20" d="M636.51,419.76l0,0c-1.76-2-5.26-2.77-7.38-1-1.44,1.22-1.29,3.12-.82,4.78s1.28,3.93,3,4.39a1,1,0,0,0,1.17-.94,1.6,1.6,0,0,0,1.47.09,1.2,1.2,0,0,0,.82-1,1.31,1.31,0,0,0,1.8-.2,1.53,1.53,0,0,1,2.11-1.34C640.14,423.08,637.47,420.75,636.51,419.76Z"/><path class="cls-20" d="M636.5,416.26a11.64,11.64,0,0,0-4.25,1.25l-.07,0a1,1,0,0,0-.28,1.71c.94.56,2.07,1.16,3.07.77.56-.22.94-1.27,1.55-1.32.79,0,1.49.68,2,1.19.88.89,2.66.07,1.93-.92S638,416.24,636.5,416.26Z"/><path class="cls-20" d="M606.48,401.28c-.63,2.19.85,4.9,4.08,8.26,2.53,2.64,17.64,13.59,17.64,13.59l3.8-2.65s-12.26-19.11-16.07-20.69S607.58,397.52,606.48,401.28Z"/><path class="cls-22" d="M623.37,386.05l-5.09,15.66a67.06,67.06,0,0,1,6.23,7.79s-8.17-7.46-9.92-8.27c0,0,4.4-10.52,4.16-13.09s-7.38-9.44-7.38-9.44l1.08-3.41,7.53,3Z"/><path class="cls-40" d="M622.11,360.2s-8.59,3.43-12.23,16.1c0,0,13,10.94,13.82,13.43l3.91-9.11S627.05,366.3,622.11,360.2Z"/><path class="cls-20" d="M677.11,360.35c-2.18,0-3.52,1.61-4.59,3.37-.9,3,3.9,4.7,3.65,3.37.47,0,2.84,1,3.65.35,1-.78,2.18-3.22,1.09-5.06C680.31,361.38,677.68,360.34,677.11,360.35Z"/><path class="cls-20" d="M686.08,361.09c.33-.29.79-.56.66-1a.47.47,0,0,0-.41-.35,4.84,4.84,0,0,0-3.18,1.14,5.18,5.18,0,0,1-3.46.91,30.82,30.82,0,0,1-3.32-.46c-.58-.1-.65.71-.07.81l.68.12a.41.41,0,0,0,.14.7c1.8.81,4.18,1.33,6,.38A16.36,16.36,0,0,0,686.08,361.09Z"/><path class="cls-20" d="M687.13,364c.33-.29.79-.56.66-1a.45.45,0,0,0-.41-.34,4.84,4.84,0,0,0-3.18,1.14,5.24,5.24,0,0,1-3.46.91,30.82,30.82,0,0,1-3.32-.46c-.58-.11-.64.7-.07.81l.68.12a.4.4,0,0,0,.15.69c1.8.81,4.17,1.33,6,.39A16,16,0,0,0,687.13,364Z"/><path class="cls-20" d="M685.92,366.56c.39-.22.91-.39.89-.87a.42.42,0,0,0-.32-.41,5,5,0,0,0-3.39.5,5.48,5.48,0,0,1-3.62.22,31.67,31.67,0,0,1-3.15-1.09.41.41,0,1,0-.26.77l.64.25c-.28.13-1.29.87-1,1.07a9.31,9.31,0,0,0,6.77,1.16A17.75,17.75,0,0,0,685.92,366.56Z"/><path class="cls-20" d="M687.39,362.49c.33-.29.78-.56.66-1a.46.46,0,0,0-.41-.34,4.84,4.84,0,0,0-3.18,1.14,5.24,5.24,0,0,1-3.46.91,31.35,31.35,0,0,1-3.33-.46c-.57-.11-.64.7-.06.81l.68.12a.4.4,0,0,0,.14.69c1.8.81,4.18,1.33,6,.39A16.36,16.36,0,0,0,687.39,362.49Z"/><path class="cls-20" d="M682.21,359a.45.45,0,0,0-.4-.6c-1.36,0-3.09-.31-4.37.28a9.8,9.8,0,0,0-3.06,2.85.4.4,0,0,0,.18.64.42.42,0,0,0,.3.35c1.67.36,2.29-1.05,3.6-1.71S681.63,360.77,682.21,359Z"/><path class="cls-22" d="M680.89,362.57a4.17,4.17,0,0,1-.91,4.79A16.45,16.45,0,0,0,680.89,362.57Z"/><path class="cls-22" d="M678.6,361.83a2.69,2.69,0,0,1-1.84,2.58s1.72-.68,2-1.22A1.33,1.33,0,0,0,678.6,361.83Z"/><path class="cls-30" d="M644.91,349a3.14,3.14,0,0,1-1.1-.19,4.17,4.17,0,0,1-2.25-2.16.28.28,0,0,1,.16-.37.29.29,0,0,1,.37.15,3.57,3.57,0,0,0,1.91,1.85,3.77,3.77,0,0,0,3.1-.51.27.27,0,0,1,.38.11.28.28,0,0,1-.1.38A5.12,5.12,0,0,1,644.91,349Z"/><path class="cls-30" d="M648.05,338.44a1.27,1.27,0,0,0,1.21,1.25,1.23,1.23,0,0,0,1-1.48A1.25,1.25,0,0,0,649,337,1.27,1.27,0,0,0,648.05,338.44Z"/><path class="cls-30" d="M640.23,338.84a1.44,1.44,0,0,0,1.34,1.4,1.38,1.38,0,0,0,1.11-1.65,1.26,1.26,0,1,0-2.45.25Z"/><path class="cls-30" d="M646.3,344.75a5.68,5.68,0,0,1-1.51-.19.28.28,0,0,1-.16-.37A.29.29,0,0,1,645,344a4.58,4.58,0,0,0,2,0,6.14,6.14,0,0,0-.26-.63,23.56,23.56,0,0,1-1.09-3,.29.29,0,0,1,.55-.16,21.36,21.36,0,0,0,1.06,2.93,5.74,5.74,0,0,1,.29.73.5.5,0,0,1-.14.53A1.89,1.89,0,0,1,646.3,344.75Z"/><path class="cls-30" d="M637.9,335.39a.28.28,0,0,1-.17-.5,5.69,5.69,0,0,1,5.2-.94.28.28,0,0,1,.17.36.27.27,0,0,1-.36.17,5.24,5.24,0,0,0-4.66.85A.3.3,0,0,1,637.9,335.39Z"/><path class="cls-30" d="M651.61,335.09a.26.26,0,0,1-.2-.08,4.23,4.23,0,0,0-4.09-1,.29.29,0,0,1-.36-.18.3.3,0,0,1,.18-.36,4.78,4.78,0,0,1,4.66,1.11.27.27,0,0,1,0,.4A.32.32,0,0,1,651.61,335.09Z"/></g><rect class="cls-17" x="745.26" y="405.14" width="9.19" height="2.06" transform="translate(1499.72 812.33) rotate(180)"/><rect class="cls-17" x="734.45" y="405.14" width="9.19" height="2.06" transform="translate(1478.09 812.33) rotate(180)"/><rect class="cls-17" x="723.64" y="405.14" width="9.19" height="2.06" transform="translate(1456.47 812.33) rotate(180)"/><rect class="cls-17" x="691.56" y="405.14" width="30.46" height="2.06" transform="translate(1413.58 812.33) rotate(180)"/><rect class="cls-17" x="680.39" y="405.14" width="9.19" height="2.06" transform="translate(1369.97 812.33) rotate(180)"/><rect class="cls-17" x="669.58" y="405.14" width="9.19" height="2.06" transform="translate(1348.35 812.33) rotate(180)"/><rect class="cls-17" x="658.77" y="405.14" width="9.19" height="2.06" transform="translate(1326.73 812.33) rotate(180)"/><rect class="cls-17" x="647.96" y="405.14" width="9.19" height="2.06" transform="translate(1305.1 812.33) rotate(180)"/><path class="cls-17" d="M644.87,407.21H755a5.43,5.43,0,0,1,5.43,5.43v3.92a0,0,0,0,1,0,0h-121a0,0,0,0,1,0,0v-3.92A5.43,5.43,0,0,1,644.87,407.21Z" transform="translate(1399.91 823.76) rotate(180)"/><rect class="cls-18" x="639.48" y="407.2" width="121.13" height="3.45" transform="translate(1400.08 817.85) rotate(180)"/><path class="cls-41" d="M748.11,531.24l3.61,4.33L735.4,545.71s2.36-8,7.53-11.25c.33.66,1.27-7.83,5.09-3.05Z"/><rect class="cls-42" x="734.37" y="540.52" width="19.21" height="1.58" transform="translate(-173.66 474.5) rotate(-31.88)"/><path class="cls-43" d="M696.88,530.44l-3.12,4.7L679.38,522.4s8.37,0,12.93,4c-.53.49,7.87-1,4.38,4Z"/><rect class="cls-44" x="685.26" y="519.76" width="1.58" height="19.21" transform="translate(-165.1 691.94) rotate(-48.47)"/><path class="cls-45" d="M722.42,450.09c-5.42,8.22,20.34,83.58,20.34,83.58l8.39-.71-.94-63.06s19.63-1.33,24.74-9.4c4.8-7.57,4.8-20.91,4.8-20.91C777.4,439.69,726.53,443.84,722.42,450.09Z"/><path class="cls-46" d="M701.88,450.09c-4,7.51-9.57,76.32-9.57,76.32l5.11,3.54,27.16-63.9s71.41,7.34,78.43.86c12.91-11.92,7.6-29.67,7.6-29.67-2.35.1-24.6-10.16-24.6-10.16C750.42,427.08,708.51,437.51,701.88,450.09Z"/><path class="cls-47" d="M730.38,414.41c13.52-.45,31.34-1.51,41.59-4.06l.22,0a21.93,21.93,0,0,0,6.38-2.47,12.72,12.72,0,0,0,5-6.17c2.77-7.26-1.49-16.17-6.8-18.27-1.64-.63-5.84.49-11.78,2.47-4.47,1.49-9.92,3.47-16.05,5.58-11.25,3.84-24.7,8-38.1,10.1a24.72,24.72,0,0,1,1.41,13.17s7.82,0,18.16-.32Z"/><path class="cls-20" d="M759.05,332.42c6.67,4.56,29.69,1.78,35.66-3.53,6.56-5.84,3.41-11.76,3.41-11.76s10.11-20.72,1.94-35-37-4.65-38.94-1.52c-.84,1.38-3.12,8.48-4.76,16.91,0,.18-.07.38-.1.58-.31,1.61-.61,3.29-.85,5,0,.2-.06.38-.08.58C754.05,312.83,755.43,329.94,759.05,332.42Z"/><path class="cls-20" d="M785.87,330.76l2,9.64s-9.67,5.13-16.24,2.08l-2.18-13.07Z"/><path class="cls-20" d="M756.4,303.49s-4.94,8.5-5.14,10.08,5.14,2,5.14,2Z"/><path class="cls-48" d="M811,362.42c-2.54-16.35-11.21-22.76-27.89-23.58s-29,7.07-33.69,19.64,12,41.55-9.64,73.42c0,0,57.36,11.89,74.4,8.25C814.17,440.15,818,407.44,811,362.42Z"/><path class="cls-49" d="M765.82,307.07s-2.18-.47-4.16-6.53-10.5-12.76-4.78-23c2.71-4.85,12.64-8,19.7-4.56,10.53-7.5,24.91,1.21,30.75,10.78,9.3,15.22.18,37.28-12.45,46.46-11.59,8.42-17.56,2-21.43-1.78S769.77,310.18,765.82,307.07Z"/><path class="cls-20" d="M768.18,302.35c2.31-1.8,7.4-1.37,8.16,1.89,1.34,5.71-2.9,12.52-10.52,8C763,310.56,766.18,303.91,768.18,302.35Z"/><path class="cls-22" d="M769,304.91s4.35-1.41,4.86.34c1.3,4.4-3.29,4.88-4.86,5.28,0,0,2.64-2.52,2-3.84A3.7,3.7,0,0,0,769,304.91Z"/><path class="cls-20" d="M694,409.86c.86-2.4,4.43-7.61,7.68-8.06s9.33-1.29,12.39-.61c1.21.28-1.06,4.28-1.75,5a1.2,1.2,0,0,1-1.3,1.24c-2.65-.2-5.54-.79-8.21-.56-2.43.2-4,3-6,4.35C695.74,411.93,693.75,410.5,694,409.86Z"/><path class="cls-20" d="M699.64,416.69c1.05-3,3.89-7.93,7.11-8.65a30.58,30.58,0,0,1,10.13-.77c1.23.17,1.31,3.6.48,3.61-2.67,0-6.46,1.69-9.12,2.13-2.41.41-3.78,3.28-5.72,4.82C701.55,418.6,699.3,417.66,699.64,416.69Z"/><path class="cls-20" d="M705.11,417.79c.06-2.75,2.29-8.53,5.4-9.75s7.23-.5,10.39-.57a1.42,1.42,0,0,1,1.34,2.11,5.63,5.63,0,0,1-4.31,4.64c-2.65.48-3.89-1.69-6.47-.83-2.35.78-2,3.09-3.73,4.9C706.87,419.2,705.09,418.48,705.11,417.79Z"/><path class="cls-20" d="M695.88,415.33c.16-2.08,3.1-8.27,6.25-9.34s7.21-.15,10.37-.07c1.24,0,1.49,1.47.93,2.33a1.23,1.23,0,0,1-1.08,1.46c-2.67.31-5.63.29-8.24,1-2.37.67-3.45,3.67-5.24,5.4C698,417,695.83,416,695.88,415.33Z"/><path class="cls-20" d="M719.52,401.35c5.88,1.38,15.13,2.6,15.13,2.6l-1.49,9.51-11-1.19-2.43-.65S717.12,400.8,719.52,401.35Z"/><path class="cls-20" d="M710.77,400.94s6.5-.76,9.51.72,2,7.92,2,7.92l-4.6.32L709.4,408l.72-5.88Z"/><path class="cls-22" d="M705.89,414.17s1.23-5.26,4.62-6.13c0,0-5.28,1.65-6.28,6.91-.19,1-2.35,3.13-2.35,3.13s.77.06,2.21-1.63A22.79,22.79,0,0,0,705.89,414.17Z"/><path class="cls-22" d="M698,410.18s2.7-3.61,4.18-4.19a14.52,14.52,0,0,1,4-.61s-3.67-.88-4.94.36-4.45,5.5-4.45,5.5Z"/><path class="cls-20" d="M665.22,407.33c.74-2.05,3.79-6.52,6.58-6.91s8-1.1,10.61-.51c1,.23-.9,3.66-1.49,4.29a1,1,0,0,1-1.12,1.06c-2.27-.16-4.75-.67-7-.48-2.08.18-3.42,2.55-5.17,3.73C666.73,409.1,665,407.88,665.22,407.33Z"/><path class="cls-20" d="M670.07,413.18c.9-2.58,3.33-6.79,6.09-7.4a26.1,26.1,0,0,1,8.68-.67c1,.14,1.12,3.08.41,3.09-2.29,0-5.54,1.45-7.81,1.83-2.07.35-3.24,2.81-4.9,4.13C671.71,414.81,669.78,414,670.07,413.18Z"/><path class="cls-20" d="M674.75,414.13c.06-2.36,2-7.31,4.63-8.36s6.19-.43,8.91-.49a1.22,1.22,0,0,1,1.14,1.81,4.85,4.85,0,0,1-3.69,4c-2.27.4-3.34-1.45-5.55-.72-2,.67-1.73,2.65-3.19,4.21C676.27,415.33,674.74,414.71,674.75,414.13Z"/><path class="cls-20" d="M666.85,412c.14-1.78,2.66-7.09,5.36-8s6.17-.12,8.87-.05c1.07,0,1.28,1.25.8,2a1.05,1.05,0,0,1-.92,1.25,46.5,46.5,0,0,0-7.06.88c-2,.57-3,3.14-4.49,4.63C668.65,413.46,666.81,412.6,666.85,412Z"/><path class="cls-20" d="M687.1,400c5,1.18,13,2.23,13,2.23l-1.28,8.14-9.45-1-2.09-.55S685.05,399.57,687.1,400Z"/><path class="cls-20" d="M679.61,399.69s5.56-.65,8.14.62,1.68,6.78,1.68,6.78l-3.94.28-7.06-1.66.61-5Z"/><path class="cls-22" d="M675.43,411s1-4.5,4-5.25c0,0-4.52,1.41-5.38,5.92-.16.86-2,2.68-2,2.68s.65.05,1.89-1.4A18.67,18.67,0,0,0,675.43,411Z"/><path class="cls-22" d="M668.62,407.61s2.32-3.1,3.59-3.6a12.63,12.63,0,0,1,3.44-.52s-3.15-.75-4.24.31-3.81,4.71-3.81,4.71Z"/><path class="cls-37" d="M730,413.67c2.17,4.31,3.57,5.12,7.67,5.66a11.22,11.22,0,0,0,3.52,0c8.91-1.24,21.69-24.39,28.55-46.1,3.69-11.66,4.82-30-2.82-30.52C746.2,341.23,728.48,410.73,730,413.67Z"/><path class="cls-37" d="M688.17,411.37s29.16,9.15,47.8,8.58h.22A21.88,21.88,0,0,0,743,418.9a12.64,12.64,0,0,0,6.15-5c4.25-6.51,1.93-11.15-2.81-14.32-1.47-1-5.81-.76-12-.08-4.68.52-31.15-.51-44.68-1.32A24.82,24.82,0,0,1,688.17,411.37Z"/><path class="cls-30" d="M758.6,302.28c-.52,1-1.33,1.33-1.83.83a2.64,2.64,0,0,1,.08-2.83c.57-1,1.43-1.36,1.9-.76A2.78,2.78,0,0,1,758.6,302.28Z"/><path class="cls-30" d="M764.17,299.05a.48.48,0,0,1-.34-.14c-3.78-3.58-6.88-3.41-6.91-3.4a.51.51,0,0,1-.54-.47.5.5,0,0,1,.46-.53c.14,0,3.54-.24,7.67,3.67a.5.5,0,0,1,0,.71A.52.52,0,0,1,764.17,299.05Z"/><path class="cls-30" d="M757.36,324.38a3.25,3.25,0,0,1-2.19-.92.5.5,0,0,1,0-.71.5.5,0,0,1,.7,0,2,2,0,0,0,2.84,0,.5.5,0,0,1,.69.72A2.85,2.85,0,0,1,757.36,324.38Z"/><path class="cls-30" d="M756.4,316.1h-.08c-1.56-.25-5.22-1-5.55-2.41s2.91-6.85,3.9-8.5a.5.5,0,1,1,.85.51c-1.91,3.2-3.9,7.08-3.77,7.77.11.48,2.36,1.27,4.73,1.64a.5.5,0,0,1-.08,1Z"/><path class="cls-49" d="M860.07,342.38a.51.51,0,0,0-.92-.12c-1.82,3.17-5.69,4.47-9.18,4-4-.54-7.19-3.52-9.05-7-2.27-4.27-2.6-9.18-2.36-13.93.26-5.27.93-10.54,1.45-15.8s1.16-10.46,1.3-15.7a37.43,37.43,0,0,0-1.92-14.1,22.46,22.46,0,0,0-6.63-9.62,16.77,16.77,0,0,0-11.49-3.73c-9,.46-16,6.88-19.9,14.55-.47.94-.9,1.89-1.31,2.85-.14.36.15.59.45.6a5.74,5.74,0,0,0,.34,1.21c0,.09-.08.18-.11.27a6.86,6.86,0,0,0,.38,5.09,40.7,40.7,0,0,0,3.33,5.31,29.58,29.58,0,0,1,2.71,5.5c2.91,7.77,3,16.23,3.75,24.4a73,73,0,0,0,1.94,12.19,26.57,26.57,0,0,0,5.2,10.73c2.87,3.32,6.88,4.88,11,6,4.59,1.22,9.3,2.44,14.07,2.55A18.32,18.32,0,0,0,855,354.15a12.83,12.83,0,0,0,5.28-9.17A9.91,9.91,0,0,0,860.07,342.38Z"/><path class="cls-50" d="M803.48,277.38c-.69-1.77-2.17-1.91-4.11.17-2.74,2.92-2.34,6.11-1.71,10s4.6,9.94,6.79,8.67C799.55,285.76,802.54,278.62,803.48,277.38Z"/><rect class="cls-46" x="787.37" y="478.62" width="7.71" height="16.75" transform="translate(1582.45 973.99) rotate(180)"/><rect class="cls-46" x="789.15" y="538.88" width="6.04" height="15.15" transform="translate(1584.34 1092.9) rotate(180)"/><path class="cls-46" d="M756.54,556.09a5.85,5.85,0,0,1,3.73-7.39l27.35-9V527.43h9.11v12.4l27,8.87a5.85,5.85,0,0,1,3.74,7.39L792,544.44h0Z"/><circle class="cls-45" cx="759.01" cy="555.28" r="4.72"/><path class="cls-45" d="M820.24,555.28A4.72,4.72,0,1,1,825,560,4.71,4.71,0,0,1,820.24,555.28Z"/><path class="cls-45" d="M787.93,555.28a4.24,4.24,0,1,1,4.24,4.24A4.24,4.24,0,0,1,787.93,555.28Z"/><rect class="cls-29" x="787.32" y="494.32" width="9.32" height="35.37" transform="translate(1583.96 1024.02) rotate(180)"/><rect class="cls-46" x="784.84" y="522.07" width="14.29" height="18.63" transform="translate(1583.96 1062.78) rotate(180)"/><path class="cls-46" d="M788.08,455h29A26.62,26.62,0,0,0,843.69,427l-2.08-41.8A26.62,26.62,0,0,0,815,359.94H790.15a26.62,26.62,0,0,0-26.59,25.3L761.48,427A26.63,26.63,0,0,0,788.08,455Z"/><circle class="cls-51" cx="802.59" cy="431.86" r="11.19"/><path class="cls-29" d="M792.06,455H819A24.72,24.72,0,0,0,843.69,429l-1.93-38.81a24.71,24.71,0,0,0-24.69-23.49H794a24.73,24.73,0,0,0-24.7,23.49L767.36,429A24.73,24.73,0,0,0,792.06,455Z"/><path class="cls-46" d="M795.14,433.51a10.39,10.39,0,1,1,10.39,10.39A10.39,10.39,0,0,1,795.14,433.51Z"/><path class="cls-29" d="M753.64,480h77.43a8.51,8.51,0,0,0,8.5-8.5h0a8.5,8.5,0,0,0-8.5-8.5H753.64a8.5,8.5,0,0,0-8.5,8.5h0A8.51,8.51,0,0,0,753.64,480Z"/><rect class="cls-46" x="799.91" y="431.86" width="11.24" height="59.96" transform="translate(1611.06 923.68) rotate(180)"/><rect class="cls-46" x="787.32" y="485.71" width="23.82" height="8.61" transform="translate(1598.47 980.04) rotate(180)"/><rect class="cls-21" x="574.3" y="384.48" width="11.74" height="52.61" transform="translate(167.6 989.69) rotate(-89.82)"/><rect class="cls-16" x="577.8" y="384.48" width="11.74" height="52.61" transform="translate(171.08 993.18) rotate(-89.82)"/><rect class="cls-21" x="553.88" y="404.84" width="58.81" height="1.94" transform="translate(1166.58 811.63) rotate(180)"/><rect class="cls-21" x="553.88" y="414.6" width="58.81" height="1.94" transform="translate(1166.58 831.14) rotate(180)"/><polygon class="cls-37" points="594 393.5 593.98 405.23 550.21 405.07 550.23 393.34 594 393.5"/><polygon class="cls-16" points="596.91 393.5 596.88 404.61 553.11 405.07 553.14 393.34 596.91 393.5"/><rect class="cls-37" x="550.23" y="393.34" width="48.93" height="1.94" transform="translate(1149.4 788.62) rotate(180)"/><rect class="cls-37" x="550.23" y="403.09" width="48.93" height="1.94" transform="translate(1149.4 808.13) rotate(180)"/><g class="cls-52"><polygon class="cls-53" points="209.01 129.09 137.04 361.04 346.31 361.04 278.3 129.09 209.01 129.09"/></g><g class="cls-54"><rect class="cls-55" x="239.75" width="6.62" height="91.26"/></g><path class="cls-56" d="M239.8,88.08h6.52a7.83,7.83,0,0,1,7.83,7.83V112.1a0,0,0,0,1,0,0H232a0,0,0,0,1,0,0V95.91A7.83,7.83,0,0,1,239.8,88.08Z"/><path class="cls-57" d="M255.67,139a12.91,12.91,0,1,0-12.91,12.91A12.91,12.91,0,0,0,255.67,139Z"/><path class="cls-56" d="M294.18,139c-5-23.79-24.66-41.55-48.19-41.55S202.8,115.16,197.81,139Z"/><path class="cls-13" d="M288.3,139c-5-23.79-24.66-41.55-48.18-41.55s-43.2,17.76-48.19,41.55Z"/><path class="cls-16" d="M242.94,147.05c-3.06-.55-7.26-3-8.05-6.19-.28-1.15-2.06-.66-1.78.49.94,3.86,5.64,6.81,9.34,7.48C243.61,149,244.1,147.26,242.94,147.05Z"/><g class="cls-58"><polygon class="cls-59" points="652.56 129.09 580.6 361.04 789.87 361.04 721.86 129.09 652.56 129.09"/></g><g class="cls-60"><rect class="cls-61" x="683.3" width="6.62" height="91.26"/></g><path class="cls-56" d="M683.35,88.08h6.52a7.83,7.83,0,0,1,7.83,7.83V112.1a0,0,0,0,1,0,0H675.52a0,0,0,0,1,0,0V95.91A7.83,7.83,0,0,1,683.35,88.08Z"/><circle class="cls-57" cx="686.31" cy="138.97" r="12.91" transform="translate(-13.57 161.4) rotate(-13.28)"/><path class="cls-56" d="M737.73,139c-5-23.79-24.66-41.55-48.18-41.55s-43.2,17.76-48.19,41.55Z"/><path class="cls-13" d="M731.86,139c-5-23.79-24.67-41.55-48.19-41.55S640.48,115.16,635.49,139Z"/><path class="cls-16" d="M686.49,147.05c-3.06-.55-7.26-3-8-6.19-.28-1.15-2.06-.66-1.78.49,1,3.86,5.64,6.81,9.34,7.48C687.16,149,687.66,147.26,686.49,147.05Z"/><polygon class="cls-62" points="448.18 386.87 448.16 396.29 413.04 396.16 413.06 386.74 448.18 386.87"/><polygon class="cls-16" points="450.51 386.87 450.49 396.29 415.37 396.16 415.4 386.74 450.51 386.87"/><rect class="cls-63" x="413.06" y="386.74" width="39.26" height="1.56" transform="translate(865.39 775.05) rotate(180)"/><rect class="cls-63" x="413.06" y="394.57" width="39.26" height="1.56" transform="translate(865.39 790.7) rotate(180)"/><rect class="cls-64" x="428.82" y="379.4" width="9.42" height="42.21" transform="translate(31.72 832.83) rotate(-89.83)"/><rect class="cls-16" x="431.63" y="379.4" width="9.42" height="42.21" transform="translate(34.51 835.64) rotate(-89.83)"/><rect class="cls-21" x="412.44" y="395.74" width="47.19" height="1.56" transform="translate(872.07 793.03) rotate(180)"/><rect class="cls-21" x="412.44" y="403.56" width="47.19" height="1.56" transform="translate(872.07 808.69) rotate(180)"/><rect class="cls-16" x="425.59" y="391.69" width="11.68" height="38.05" transform="translate(19.78 841.26) rotate(-89.88)"/><rect class="cls-37" x="428.12" y="391.69" width="11.68" height="38.05" transform="translate(22.3 843.78) rotate(-89.88)"/><rect class="cls-65" x="412.42" y="404.82" width="5.22" height="1.41" transform="translate(830.07 811.04) rotate(180)"/><rect class="cls-37" x="412.42" y="415.06" width="5.22" height="1.41" transform="translate(830.07 831.54) rotate(180)"/><path class="cls-66" d="M432.4,387.66l-.93.4-.73.77-56.92-6.18a1.56,1.56,0,0,0-1.29.48L345.76,411.4l-.4,0-1,.06V413h0a.2.2,0,0,0,.19.18l30.65,3c3.58.9,5.51-.48,5.51-.48l26.29,2.41a1.53,1.53,0,0,0,1.33-.54l24-28.16a.19.19,0,0,0,.05-.14h0Z"/><path class="cls-67" d="M380.76,414.1s-1.93,1.38-5.51.49l-30.65-3a.22.22,0,0,1-.15-.37l28.08-29.65a1.56,1.56,0,0,1,1.29-.48l58.38,6.34a.23.23,0,0,1,.14.37l-24,28.16a1.53,1.53,0,0,1-1.33.54Z"/><path class="cls-16" d="M430.55,387s-7.94,11.55-10.93,14.13-12.07,14.37-12.07,14.37l-27.05-2.67s-4.47-2-5.76,1.12l-27.34-3.43a25,25,0,0,0-1.24-3.82c-.51-.93,24.66-27.34,24.66-27.34L430.55,384Z"/><path class="cls-13" d="M407.55,415.45l-1.89-5.08L430.55,384v3.71s-7.29,9.91-10.93,13.42S407.55,415.45,407.55,415.45Z"/><path class="cls-16" d="M405.66,410.37s-23.2-3.75-28.7.82a5.75,5.75,0,0,1,4.75,1.71l25.84,2.55Z"/><path class="cls-16" d="M377,411.19l-30.8-4.54a20.72,20.72,0,0,1,1.24,3.82l26.07,3.27S375.56,411.5,377,411.19Z"/><path class="cls-13" d="M380.5,412.78l1.21.12a5.1,5.1,0,0,0-4.75-1.71,4.76,4.76,0,0,0-3.49,2.55l1.27.16a5.19,5.19,0,0,1,2.29-1.76A7.68,7.68,0,0,1,380.5,412.78Z"/><path class="cls-16" d="M377,411.19l-29.8-6.08a5.24,5.24,0,0,1,0-3.69c13.14,1.83,29.71,8.57,30.43,9.65Z"/><path class="cls-13" d="M377,411.19s19.07-5.79,27.8-3.51l24.14-25s-18.57-3.91-29.85-2.12Z"/><path class="cls-13" d="M377,411.19a148.86,148.86,0,0,0-30.81-8.94s15.49-22.42,23.33-24.9c0,0,17.47-.41,29.57,3.17C399.05,380.52,377.7,400.32,377,411.19Z"/><path class="cls-16" d="M377,411.19s-21.46-12.91-30.81-12.35c0,0,15.41-21.22,22.33-22.36,0,0,18.16.08,30.57,4C399.05,380.52,376.7,401.6,377,411.19Z"/><path class="cls-13" d="M347.16,405.11s28.78,5.7,29.8,6.08l-30.12-5.67Z"/><path class="cls-16" d="M377,411.19s12.37-9.92,27.46-9.11c0,0,15.54-18.86,23.52-22.77,0,0-19.4-4.54-28.89,1.21C399.05,380.52,376.46,400.76,377,411.19Z"/><path class="cls-13" d="M377,411.19s2.87-14,22.09-30.67l-1.56-.47S378,395.81,377,411.19Z"/><polygon class="cls-17" points="136.73 427.79 467.78 427.79 474.42 416.55 130.09 416.55 136.73 427.79"/><polygon class="cls-17" points="468.41 557.44 474.35 557.44 464.1 427.79 451.52 427.79 468.41 557.44"/><polygon class="cls-29" points="437.8 557.44 443.73 557.44 433.48 427.79 420.9 427.79 437.8 557.44"/><polygon class="cls-17" points="138.49 557.44 132.56 557.44 142.81 427.79 155.38 427.79 138.49 557.44"/><polygon class="cls-29" points="166.93 557.44 160.99 557.44 171.24 427.79 183.81 427.79 166.93 557.44"/><path class="cls-21" d="M238.48,531.24l-3.61,4.33,16.31,10.14s-2.36-8-7.53-11.25c-.32.66-1.26-7.83-5.08-3.05Z"/><rect class="cls-68" x="241.82" y="531.71" width="1.58" height="19.21" transform="translate(-345.19 461.5) rotate(-58.13)"/><path class="cls-21" d="M270.33,531.24l-3.61,4.33L283,545.71s-2.36-8-7.54-11.25c-.32.66-1.26-7.83-5.08-3.05Z"/><rect class="cls-69" x="273.67" y="531.71" width="1.58" height="19.21" transform="matrix(0.53, -0.85, 0.85, 0.53, -330.16, 488.55)"/><path class="cls-70" d="M264.17,450.09c5.42,8.22-20.34,83.58-20.34,83.58l-8.39-.71.94-63.06s-19.63-1.33-24.75-9.4c-4.8-7.57-4.8-20.91-4.8-20.91C209.18,439.69,260.06,443.84,264.17,450.09Z"/><path class="cls-57" d="M284.71,450.09c4,7.51-9.49,84-9.49,84l-7.5-.59-6.79-64.71s-70.33,4.63-77.35-1.85C170.67,455,176,437.24,176,437.24c2.35.1,24.59-10.16,24.59-10.16C236.17,427.08,278.07,437.51,284.71,450.09Z"/><path class="cls-71" d="M256.2,414.41c-13.51-.45-31.33-1.51-41.58-4.06l-.22,0a22,22,0,0,1-6.39-2.47,12.7,12.7,0,0,1-5-6.17c-2.78-7.26,1.49-16.17,6.8-18.27,1.64-.63,5.83.49,11.78,2.47,4.46,1.49,9.92,3.47,16,5.58,11.26,3.84,24.71,8,38.1,10.1a24.78,24.78,0,0,0-1.4,13.17s-7.83,0-18.17-.32Z"/><path class="cls-20" d="M229.2,327.32c-6.69,9.73-25.93,9.33-31.91,4a32.8,32.8,0,0,1-8.83-14.2s-10.11-20.72-1.93-35,37-4.65,38.94-1.52c.84,1.38,3.11,8.48,4.75,16.91a5,5,0,0,1,.1.58c.32,1.61.62,3.29.86,5,0,.2.06.38.08.58C232.54,312.83,232.62,322.34,229.2,327.32Z"/><path class="cls-20" d="M197.77,330.53l-2,9.64S210.53,345,217.09,342l2.19-13.07Z"/><path class="cls-72" d="M175.59,362.42c2.55-16.35,11.22-22.76,27.9-23.58s29.52,4.92,34.17,17.49,13.53,45,9.16,75.57c0,0-57.36,11.89-74.4,8.25C172.42,440.15,168.58,407.44,175.59,362.42Z"/><path class="cls-49" d="M220.77,307.07s2.18-.47,4.15-6.53,3.56-21.83,1.58-26a17.19,17.19,0,0,0-4.63-6.15l-1.1,6.15a15.79,15.79,0,0,0-7.63-8.13V271s-24.6-2.38-33.89,12.85-.2,39.74,12.46,46.46,17.55,2,21.43-1.78S216.82,310.18,220.77,307.07Z"/><path class="cls-20" d="M218.4,302.35c-2.3-1.8-7.39-1.37-8.15,1.89-1.34,5.71,2.9,12.52,10.52,8C223.55,310.56,220.4,303.91,218.4,302.35Z"/><path class="cls-22" d="M217.55,304.91s-4.35-1.41-4.87.34c-1.29,4.4,3.29,4.88,4.87,5.28,0,0-2.64-2.52-2-3.84A3.7,3.7,0,0,1,217.55,304.91Z"/><path class="cls-20" d="M292.61,409.86c-.87-2.4-4.43-7.61-7.68-8.06s-9.33-1.29-12.39-.61c-1.21.28,1,4.28,1.74,5a1.22,1.22,0,0,0,1.31,1.24c2.65-.2,5.54-.79,8.21-.56,2.42.2,4,3,6,4.35C290.85,411.93,292.84,410.5,292.61,409.86Z"/><path class="cls-20" d="M286.94,416.69c-1-3-3.88-7.93-7.1-8.65a30.58,30.58,0,0,0-10.13-.77c-1.23.17-1.31,3.6-.48,3.61,2.67,0,6.46,1.69,9.11,2.13,2.41.41,3.78,3.28,5.72,4.82C285,418.6,287.28,417.66,286.94,416.69Z"/><path class="cls-20" d="M281.48,417.79c-.06-2.75-2.29-8.53-5.4-9.75s-7.23-.5-10.4-.57a1.42,1.42,0,0,0-1.33,2.11,5.63,5.63,0,0,0,4.31,4.64c2.65.48,3.89-1.69,6.47-.83,2.35.78,2,3.09,3.73,4.9C279.71,419.2,281.49,418.48,281.48,417.79Z"/><path class="cls-20" d="M290.7,415.33c-.16-2.08-3.1-8.27-6.25-9.34s-7.21-.15-10.36-.07c-1.24,0-1.49,1.47-.94,2.33a1.25,1.25,0,0,0,1.09,1.46c2.66.31,5.63.29,8.23,1,2.37.67,3.46,3.67,5.24,5.4C288.61,417,290.75,416,290.7,415.33Z"/><path class="cls-20" d="M267.07,401.35c-5.88,1.38-15.14,2.6-15.14,2.6l1.5,9.51,11-1.19,2.44-.65S269.46,400.8,267.07,401.35Z"/><path class="cls-20" d="M275.81,400.94s-6.49-.76-9.5.72-2,7.92-2,7.92l4.6.32,8.23-1.93-.71-5.88Z"/><path class="cls-22" d="M280.69,414.17s-1.22-5.26-4.61-6.13c0,0,5.28,1.65,6.28,6.91.19,1,2.35,3.13,2.35,3.13s-.77.06-2.21-1.63A24.71,24.71,0,0,1,280.69,414.17Z"/><path class="cls-22" d="M288.64,410.18s-2.7-3.61-4.19-4.19a14.42,14.42,0,0,0-4-.61s3.67-.88,4.94.36,4.45,5.5,4.45,5.5Z"/><path class="cls-20" d="M323.28,407.83c-.74-2.06-3.79-6.52-6.58-6.91s-8-1.11-10.61-.52c-1,.23.9,3.66,1.49,4.3a1,1,0,0,0,1.12,1.06c2.28-.17,4.75-.68,7-.48,2.07.18,3.42,2.54,5.16,3.73C321.78,409.6,323.48,408.38,323.28,407.83Z"/><path class="cls-20" d="M318.43,413.67c-.9-2.57-3.33-6.78-6.09-7.4a26.32,26.32,0,0,0-8.67-.67c-1.06.15-1.13,3.09-.41,3.1,2.28,0,5.53,1.44,7.8,1.83,2.07.34,3.24,2.81,4.9,4.12C316.8,415.31,318.72,414.51,318.43,413.67Z"/><path class="cls-20" d="M313.75,414.62c-.05-2.36-2-7.31-4.63-8.35s-6.19-.43-8.9-.49a1.21,1.21,0,0,0-1.14,1.81,4.81,4.81,0,0,0,3.69,4c2.27.41,3.33-1.45,5.54-.71,2,.67,1.73,2.65,3.19,4.2C312.24,415.83,313.76,415.21,313.75,414.62Z"/><path class="cls-20" d="M321.65,412.51c-.14-1.78-2.66-7.09-5.35-8s-6.18-.13-8.88-.06c-1.07,0-1.28,1.26-.8,2a1.06,1.06,0,0,0,.93,1.25,47.68,47.68,0,0,1,7.05.89c2,.57,3,3.14,4.49,4.63C319.86,414,321.7,413.1,321.65,412.51Z"/><path class="cls-20" d="M301.41,400.54c-5,1.17-13,2.22-13,2.22l1.28,8.14,9.45-1,2.09-.56S303.46,400.06,301.41,400.54Z"/><path class="cls-20" d="M308.9,400.18s-5.57-.65-8.14.62-1.68,6.79-1.68,6.79l3.93.27,7.06-1.65-.61-5Z"/><path class="cls-22" d="M313.08,411.52s-1.05-4.51-4-5.25c0,0,4.52,1.41,5.38,5.91.17.86,2,2.69,2,2.69s-.66,0-1.9-1.4A20.76,20.76,0,0,1,313.08,411.52Z"/><path class="cls-22" d="M319.88,408.1s-2.31-3.1-3.58-3.59a12.39,12.39,0,0,0-3.44-.53s3.14-.74,4.23.31S320.9,409,320.9,409Z"/><path class="cls-21" d="M258.36,412.57c-2.16,4.31-5.73,7-9.82,7.51a11.53,11.53,0,0,1-3.52,0c-8.91-1.23-21.69-24.39-28.55-46.1-3.69-11.66-4.44-28.07,2.82-30.51C240.91,336.19,259.86,409.64,258.36,412.57Z"/><path class="cls-21" d="M298,412.12s-29.16,9.14-47.8,8.57l-.22,0a22.14,22.14,0,0,1-6.76-1.07,12.64,12.64,0,0,1-6.15-5c-4.25-6.51-2-16.12,2.78-19.29,1.47-1,5.81-.76,12-.08,4.68.52,31.18,4.46,44.71,3.66A24.82,24.82,0,0,0,298,412.12Z"/><path class="cls-20" d="M230.94,301.49s4.94,8.5,5.14,10.09-5.14,2-5.14,2Z"/><path class="cls-30" d="M228.74,300.29c.52.95,1.33,1.33,1.83.82a2.65,2.65,0,0,0-.08-2.82c-.57-1-1.43-1.37-1.91-.76A2.79,2.79,0,0,0,228.74,300.29Z"/><path class="cls-30" d="M223.17,297.05a.5.5,0,0,1-.34-.86c4.13-3.91,7.54-3.69,7.67-3.67a.5.5,0,0,1,.46.53.49.49,0,0,1-.54.46h0s-3.13-.17-6.91,3.41A.48.48,0,0,1,223.17,297.05Z"/><path class="cls-30" d="M230,322.39a2.86,2.86,0,0,1-2-.91.48.48,0,0,1,0-.7.49.49,0,0,1,.7,0,2,2,0,0,0,2.84,0,.5.5,0,0,1,.7.72A3.3,3.3,0,0,1,230,322.39Z"/><path class="cls-30" d="M230.94,314.11a.5.5,0,0,1-.08-1c2.37-.38,4.62-1.16,4.73-1.65.13-.68-1.86-4.56-3.77-7.76a.5.5,0,1,1,.85-.52c1,1.66,4.2,7.16,3.9,8.51s-4,2.16-5.55,2.41Z"/><rect class="cls-46" x="191.51" y="478.62" width="7.71" height="16.75"/><rect class="cls-46" x="191.4" y="538.88" width="6.04" height="15.15"/><path class="cls-46" d="M230.05,556.09a5.85,5.85,0,0,0-3.73-7.39l-27.35-9V527.43h-9.11v12.4l-27,8.87a5.85,5.85,0,0,0-3.73,7.39l35.44-11.65h0Z"/><path class="cls-45" d="M222.86,555.28a4.72,4.72,0,1,1,4.72,4.71A4.72,4.72,0,0,1,222.86,555.28Z"/><circle class="cls-45" cx="161.63" cy="555.28" r="4.72"/><path class="cls-45" d="M198.66,555.28a4.25,4.25,0,1,0-4.25,4.24A4.24,4.24,0,0,0,198.66,555.28Z"/><rect class="cls-29" x="189.95" y="494.32" width="9.32" height="35.37"/><rect class="cls-46" x="187.46" y="522.07" width="14.29" height="18.63"/><path class="cls-46" d="M198.51,455h-29A26.62,26.62,0,0,1,142.9,427l2.07-41.8a26.64,26.64,0,0,1,26.6-25.3h24.86a26.62,26.62,0,0,1,26.6,25.3l2.08,41.8A26.64,26.64,0,0,1,198.51,455Z"/><circle class="cls-51" cx="184" cy="431.86" r="11.19"/><path class="cls-29" d="M194.53,455H167.59A24.73,24.73,0,0,1,142.89,429l1.93-38.81a24.73,24.73,0,0,1,24.7-23.49H192.6a24.71,24.71,0,0,1,24.69,23.49L219.22,429A24.72,24.72,0,0,1,194.53,455Z"/><path class="cls-46" d="M191.45,433.51a10.39,10.39,0,1,0-10.39,10.39A10.39,10.39,0,0,0,191.45,433.51Z"/><path class="cls-29" d="M233,480H155.52a8.5,8.5,0,0,1-8.5-8.5h0a8.49,8.49,0,0,1,8.5-8.5H233a8.49,8.49,0,0,1,8.49,8.5h0A8.5,8.5,0,0,1,233,480Z"/><rect class="cls-46" x="175.44" y="431.86" width="11.24" height="59.96"/><rect class="cls-46" x="175.44" y="485.71" width="23.82" height="8.61"/><path class="cls-37" d="M399.54,491.75s21.48,16.8,21.36,39.68c-.07,13.87-12.72,22.39-22.77,23.4l-1.6-7.26s17.3-4.05,17.75-13.67a38.3,38.3,0,0,0-18.1-35Z"/><path class="cls-73" d="M404.85,506.31a36.15,36.15,0,0,0-8.67-7.37l3.36-7.19a56.72,56.72,0,0,1,5.14,4.77A88.81,88.81,0,0,0,404.85,506.31Z"/><path class="cls-73" d="M406.83,543.47a29.39,29.39,0,0,1-.38,9,25.89,25.89,0,0,1-8.32,2.39l-1.6-7.26A43,43,0,0,0,406.83,543.47Z"/><path class="cls-74" d="M400.9,486.18s13,70.92-.39,75.95c-13.85,5.21-43,5.63-68.74-.51-11.23-2.68-1-68.48,4.61-76.37S390.92,477.73,400.9,486.18Z"/><path class="cls-75" d="M396.18,563.48c-1.42-12.78-5.17-43.89-6.31-62.3-.52-8.41,4.22-9,9.82-15.43a1.09,1.09,0,0,0,.19-.33,9.66,9.66,0,0,1,1,.76s10.24,54.08,3.18,71.94C402.1,563.11,402.53,561.84,396.18,563.48Z"/><path class="cls-37" d="M400.9,486.18s-8.47,6.93-9.74,17.92c-.74,6.44-1.64,23.27-5.53,29.12-5.91,8.92-41.4,9.1-52.37-2.11-6.52-6.65,1.45-41,6.06-43.3S372.2,472.15,400.9,486.18Z"/><path class="cls-76" d="M400.9,486.18S390.4,489,389.14,500c-.75,6.45-1.65,23.27-5.53,29.12-5.92,8.92-41.4,9.1-52.38-2.11-6.51-6.65,1.46-41,6.06-43.3S372.2,472.15,400.9,486.18Z"/><path class="cls-16" d="M369.23,525.58a3.7,3.7,0,1,0,3.56-3.84A3.71,3.71,0,0,0,369.23,525.58Z"/><path class="cls-16" d="M334.72,519.72a3.71,3.71,0,1,0,3.56-3.84A3.72,3.72,0,0,0,334.72,519.72Z"/><path class="cls-37" d="M381.17,484.74a.92.92,0,0,0,.92-1.05c-.5-4-3.12-17.54-15.74-17.89S351.88,478.41,351.63,482a.93.93,0,0,0,.86,1l2.54.17a.89.89,0,0,0,.94-.69c.66-2.81,3.51-12.51,11.2-12,7.89.52,9.77,10.46,10.16,13.37a.92.92,0,0,0,.9.81Z"/><path class="cls-21" d="M580.28,491.75s-21.48,16.8-21.37,39.68c.07,13.87,12.73,22.39,22.78,23.4l1.6-7.26s-17.3-4.05-17.76-13.67a38.32,38.32,0,0,1,18.11-35Z"/><path class="cls-73" d="M575,506.31a36.15,36.15,0,0,1,8.67-7.37l-3.36-7.19a56.72,56.72,0,0,0-5.14,4.77A88.81,88.81,0,0,1,575,506.31Z"/><path class="cls-73" d="M573,543.47a29.71,29.71,0,0,0,.37,9,26,26,0,0,0,8.33,2.39l1.6-7.26A43,43,0,0,1,573,543.47Z"/><path class="cls-77" d="M578.91,486.18s-13,70.92.39,75.95c13.86,5.21,43,5.63,68.75-.51,11.23-2.68,1-68.48-4.62-76.37S588.9,477.73,578.91,486.18Z"/><path class="cls-78" d="M583.64,563.48c1.42-12.78,5.17-43.89,6.31-62.3.52-8.41-4.22-9-9.82-15.43a.92.92,0,0,1-.19-.33,11,11,0,0,0-1,.76s-10.24,54.08-3.17,71.94C577.72,563.11,577.29,561.84,583.64,563.48Z"/><path class="cls-21" d="M578.91,486.18s8.48,6.93,9.75,17.92c.74,6.44,1.64,23.27,5.52,29.12,5.92,8.92,41.4,9.1,52.38-2.11,6.52-6.65-1.45-41-6.06-43.3S607.61,472.15,578.91,486.18Z"/><path class="cls-79" d="M578.91,486.18S589.41,489,590.68,500c.74,6.45,1.65,23.27,5.53,29.12,5.92,8.92,41.4,9.1,52.38-2.11,6.51-6.65-1.46-41-6.06-43.3S607.61,472.15,578.91,486.18Z"/><path class="cls-16" d="M628.19,523a3.7,3.7,0,1,1-3.56-3.84A3.72,3.72,0,0,1,628.19,523Z"/><path class="cls-21" d="M598.65,484.74a.92.92,0,0,1-.92-1.05c.49-4,3.12-17.54,15.73-17.89s14.48,12.61,14.73,16.24a.94.94,0,0,1-.86,1l-2.54.17a.88.88,0,0,1-.94-.69c-.66-2.81-3.51-12.51-11.21-12-7.88.52-9.76,10.46-10.15,13.37a.92.92,0,0,1-.9.81Z"/><rect class="cls-37" x="443.33" y="206.81" width="17.09" height="76.62" transform="translate(698.36 -206.01) rotate(90.17)"/><rect class="cls-16" x="438.24" y="206.81" width="17.09" height="76.62" transform="translate(693.26 -200.91) rotate(90.17)"/><rect class="cls-37" x="404.5" y="250.95" width="85.65" height="2.83"/><rect class="cls-37" x="404.5" y="236.75" width="85.65" height="2.83"/><polygon class="cls-70" points="431.72 270.31 431.77 253.21 495.51 253.44 495.47 270.54 431.72 270.31"/><polygon class="cls-16" points="427.49 270.31 427.53 254.12 491.28 253.44 491.23 270.54 427.49 270.31"/><rect class="cls-70" x="424.21" y="267.71" width="71.26" height="2.83"/><rect class="cls-70" x="424.21" y="253.5" width="71.26" height="2.83"/><path class="cls-80" d="M400,153.15c0,2.67,1.42,4.47,3.31,6.16,1.35,1.2,2.5,2.32,2.59,4.23.07,1.34-.24,2.64.33,3.92.95,2.13,3.38,3,4.94,4.57,1.24,1.26,1.47,3.07,2.57,4.41a6.23,6.23,0,0,0,2.32,1.75A8.7,8.7,0,0,0,426.63,174c1.65-3.23-.21-6.7.68-10,1.39-5.17,9-5.6,10.08-10.93.47-2.21-.63-4.24-1.74-6.07a29.22,29.22,0,0,1-2-3.76c-3.21-7.8-11-2.17-11.1,1.16,0,1.39.18,2.89-.61,4.11a6.83,6.83,0,0,1-1.78,1.65,7.45,7.45,0,0,0-2.25,2.52,6.58,6.58,0,0,0-.64,2,13.1,13.1,0,0,1-.12,2.19c-1,2.93-2.94.67-3.38-.5a12.45,12.45,0,0,1-.53-2.51c-.3-2-1-4.62-3.3-5-1.11-.17-1.71.18-2.84-.59a4.68,4.68,0,0,0-1.4-.86,3.61,3.61,0,0,0-2.54.29A6,6,0,0,0,400,153.15Z"/><path class="cls-37" d="M404.56,155.92a3.66,3.66,0,0,0,2.93-.27c-.74-.59-1.54-1.13-2.32-1.66-.36-.24.08-.75.44-.51a19.55,19.55,0,0,1,4.27,3.51c.3-1.6-1-3.27-.14-4.88.2-.39.81-.09.61.29-.84,1.66.67,3.51,0,5.26a8,8,0,0,1,.62,1.06,24.45,24.45,0,0,1,1.12,3.93,7.72,7.72,0,0,0,2.23,3.55c.27-1.32.55-2.63.8-3.95a.34.34,0,0,1,.67.13c-.29,1.45-.58,2.9-.89,4.34,1.75,1.52,3.47,2.9,4.13,5.22a8.13,8.13,0,0,1,.29,1.94c1.31-5.3.26-11.39,3.75-15.9a.44.44,0,0,1-.08-.11c-.95-2.14-.22-4,.84-6,.21-.38.82-.09.61.29-.93,1.69-1.61,3.35-.9,5.21,1.11-1.24,2.45-2.26,3.56-3.5a6.39,6.39,0,0,0,1.56-6,11.9,11.9,0,0,1-.3-3.1c0-.21.56-.32.65-.12a16.33,16.33,0,0,1,.57,5.29,6.19,6.19,0,0,1-1.51,3.81c2.18-.19,4.58-.93,5.14-3.32.1-.43.77-.3.67.12-.7,3-3.76,3.81-6.44,3.92-1,1.06-2.16,2-3.12,3-3.19,3.39-3.31,7.91-3.76,12.34a13.75,13.75,0,0,0,1.67-3.42,13.5,13.5,0,0,1,2.14-3,.34.34,0,0,1,.51.44,13.41,13.41,0,0,0-2.54,4.1,6.46,6.46,0,0,1-1.8,2.83.47.47,0,0,1-.09.06,16.75,16.75,0,0,1-2.38,7.58v0h0l-.05.07c-.21.31-.76,0-.56-.37a7.34,7.34,0,0,0,.25-7.64,12.52,12.52,0,0,0-3-3.13l0,0a4.74,4.74,0,0,1-5.59.1c-.36-.24.09-.75.44-.51a4.06,4.06,0,0,0,4.64-.06,11.85,11.85,0,0,1-1.18-1.17c-1.54-1.8-1.54-4-2.33-6.14a8.94,8.94,0,0,0-2.65-3.56.2.2,0,0,1-.08.08,4.4,4.4,0,0,1-3.68.36C403.85,156.39,404.15,155.79,404.56,155.92Z"/><path class="cls-81" d="M404.45,185.37a17.5,17.5,0,0,0,2,7.21h0a22.14,22.14,0,0,0,4.39,5.77h14.52c11.88-11.45,3.64-24.08,3.34-24.54v0H407.5A20.53,20.53,0,0,0,404.45,185.37Z"/><path class="cls-21" d="M409.44,199.39h17.29a1,1,0,0,0,1-1h0a1,1,0,0,0-1-1H409.44a1,1,0,0,0-1,1h0A1,1,0,0,0,409.44,199.39Z"/><path class="cls-82" d="M533.62,252.06l-3.25-10.83h13l-3.25,10.83s13,8.4,3.25,22.22h-.09c0,.49-2.87.9-6.41.9s-6.41-.41-6.41-.9h-.09C520.62,260.46,533.62,252.06,533.62,252.06Z"/><path class="cls-21" d="M530.46,241.23c0,.48,2.68.87,6.07.88h1.09c3.2,0,5.67-.42,5.67-.88s-2.39-.83-5.5-.89h-1.07C533.24,240.34,530.46,240.74,530.46,241.23Z"/><path class="cls-83" d="M530.7,213.58a7,7,0,0,1,2.76-.33c2,.29,1.6,2.58,2.54,3.81.42.55-.52,1.09-.94.55l-.1-.16a.87.87,0,0,1-.17.21,1.61,1.61,0,0,1-.7,1c-.51.23-1.23-.21-1.67-.46-1.08-.59-2.65-1.71-2.72-3.07A1.45,1.45,0,0,1,530.7,213.58Z"/><path class="cls-84" d="M534.69,217.87a4.48,4.48,0,0,1,.38-1.41.72.72,0,0,1,0-.21c.14-1,0-2.36.71-3.15a1.86,1.86,0,0,1,2.09-.29c.95.4,1.08,1.18.9,2.13a7.73,7.73,0,0,1-1.25,3.43c-.38.45-1.29,1.25-1.91,1.22C534.78,219.55,534.64,218.49,534.69,217.87Z"/><path class="cls-85" d="M534.86,220.81a44.61,44.61,0,0,1,2.65,10.38c1.08-2.28,1.83-4.75,3.85-6.4a.55.55,0,0,1,.93.38,8.77,8.77,0,0,1-1.15,4c-.85,1.41-2,2.57-2.78,4a.47.47,0,0,1-.53.25l-.07.07a45.11,45.11,0,0,1,0,6.78c0,.59-.11,1.18-.17,1.77h-1.09c.08-.59.13-1.19.19-1.78a43.19,43.19,0,0,0-.05-6.92s0,0-.08,0c-1.1-.47-2.16-1.37-1.59-2.68a.55.55,0,0,1,.85-.11c.2.19.38.42.58.62a44.07,44.07,0,0,0-2.63-10.13C533.56,220.44,534.61,220.16,534.86,220.81Z"/><path class="cls-86" d="M532.15,215.64c.36-.4,1-.43,1.44-.58a22.28,22.28,0,0,0,2.54-1.27c.82-.38,1.18.19,1.38.87a.41.41,0,0,1,.16.27s0,.09,0,.14a4,4,0,0,1-.36,3.41,4.2,4.2,0,0,1-3,2.54.52.52,0,0,1-.64-.37C532.11,220,531,216.92,532.15,215.64Z"/><path class="cls-87" d="M528.86,216.54c.28-.52.84-.37,1.34-.38.67,0,1.64-.44,2.27-.16s.69.86.9,1.31a14.78,14.78,0,0,1,1,2.07,2,2,0,0,1,0,1,.57.57,0,0,1-.38.94,4.87,4.87,0,0,1-3.88-1.66C529.56,219,528.35,217.53,528.86,216.54Z"/><path class="cls-88" d="M534.25,220.27a3.89,3.89,0,0,0,2-1.59c.36-.57.56-1.26.95-1.8a1.23,1.23,0,0,1,2.16,0c1,1.85-.68,2.86-2.36,3.59a5.7,5.7,0,0,1-2.06.9.57.57,0,0,1-.39-.06C533.89,221.57,533.61,220.53,534.25,220.27Z"/><rect class="cls-70" x="457.98" y="155.18" width="11.89" height="45.47" transform="translate(927.86 355.83) rotate(180)"/><rect class="cls-37" x="476.2" y="154.81" width="11.89" height="45.47" transform="translate(995.05 207.93) rotate(163.18)"/><rect class="cls-37" x="444.27" y="168.03" width="10.83" height="32.62" transform="translate(899.38 368.68) rotate(180)"/><rect class="cls-56" x="557.98" y="270.52" width="26.38" height="6"/><rect class="cls-13" x="381.23" y="270.52" width="180.01" height="6" transform="translate(942.46 547.04) rotate(180)"/><rect class="cls-56" x="557.98" y="199.39" width="26.38" height="6"/><rect class="cls-13" x="381.23" y="199.39" width="180.01" height="6" transform="translate(942.46 404.78) rotate(180)"/><polygon class="cls-70" points="560.52 157.26 560.49 170.6 510.75 170.42 510.78 157.08 560.52 157.26"/><polygon class="cls-16" points="563.82 157.26 563.79 170.6 514.05 170.42 514.09 157.08 563.82 157.26"/><rect class="cls-70" x="510.78" y="157.08" width="55.6" height="2.21" transform="translate(1077.17 316.38) rotate(180)"/><rect class="cls-70" x="510.78" y="168.17" width="55.6" height="2.21" transform="translate(1077.17 338.55) rotate(180)"/><rect class="cls-89" x="533.1" y="146.69" width="13.34" height="59.78" transform="translate(361.53 715.81) rotate(-89.82)"/><rect class="cls-16" x="537.08" y="146.69" width="13.34" height="59.78" transform="matrix(0, -1, 1, 0, 365.53, 719.79)"/><rect class="cls-89" x="509.9" y="169.82" width="66.83" height="2.21" transform="translate(1086.63 341.85) rotate(180)"/><rect class="cls-89" x="509.9" y="180.91" width="66.83" height="2.21" transform="translate(1086.63 364.02) rotate(180)"/><rect class="cls-16" x="528.53" y="164.09" width="16.54" height="53.89" transform="translate(344.59 727.42) rotate(-89.87)"/><rect class="cls-70" x="532.11" y="164.09" width="16.54" height="53.89" transform="translate(348.16 731) rotate(-89.87)"/><rect class="cls-70" x="509.88" y="182.68" width="7.39" height="1.99" transform="translate(1027.14 367.36) rotate(180)"/><rect class="cls-70" x="509.88" y="197.2" width="7.39" height="1.99" transform="translate(1027.14 396.38) rotate(180)"/><g class="cls-90"><path class="cls-91" d="M878.35,277.52c0-3.45,16.28-6.2,36.33-6.15s36.27,2.9,36.25,6.34l33.73,280.93-146.75-1.88Z"/></g><rect class="cls-92" x="911.71" y="241.71" width="5.85" height="310.26" transform="translate(1829.26 793.69) rotate(180)"/><path class="cls-93" d="M898.54,230.87h0c0-1,7.21-1.84,16.1-1.84s16.11.83,16.11,1.84a.09.09,0,0,1,0,0l20.19,45.45H878.33Z"/><path class="cls-94" d="M898.54,230.87h0c0-.69,3.33-1.29,8.25-1.6,2.32-.15-10.43,47.1-10.43,47.1H878.33Z"/><path class="cls-95" d="M878.37,276.28c0,1.18,13.64,2.18,31.37,2.36,1.6,0,3.25,0,4.9,0h.53c1.78,0,3.53,0,5.24,0l2.3,0c16.16-.22,28.24-1.13,28.24-2.24s-11.5-2-27.1-2.3h-.28c-2.4,0-4.9-.06-7.46-.07h-7.22C891.6,274.18,878.39,275.11,878.37,276.28Z"/><path class="cls-21" d="M894.64,549.38h40a0,0,0,0,1,0,0v3.21a4.86,4.86,0,0,1-4.86,4.86H899.51a4.86,4.86,0,0,1-4.86-4.86v-3.21A0,0,0,0,1,894.64,549.38Z" transform="translate(1829.26 1106.84) rotate(180)"/></g></g></svg>